<svg width="155" height="40" viewBox="0 0 155 40" fill="none" xmlns="http://www.w3.org/2000/svg">
<path d="M19.525 0H20.4696C21.0012 0.0185687 21.5319 0.0471954 22.0611 0.0974855C21.8491 0.909091 21.6271 1.71915 21.4174 2.53153C18.424 2.29246 15.3779 2.83404 12.6499 4.08897C12.2383 3.36944 11.8159 2.65609 11.3973 1.94043C13.9327 0.736557 16.718 0.0634429 19.525 0Z" fill="white"/>
<path d="M25.5427 3.37331C25.7625 2.57408 25.9776 1.77408 26.1896 0.972534C28.4224 1.71528 30.54 2.82166 32.3861 4.28627C33.5582 5.21161 34.6197 6.27466 35.5636 7.43211C34.834 7.84913 34.1106 8.27466 33.3787 8.68627C31.3122 6.24681 28.5787 4.38143 25.5427 3.37331Z" fill="white"/>
<path d="M1.45455 12.4758C2.79923 9.20696 4.99729 6.29014 7.80658 4.13849C8.22824 4.8588 8.63985 5.5853 9.05996 6.30716C6.80155 8.10367 5.01045 10.4712 3.87234 13.1211C3.06693 12.906 2.26151 12.6878 1.45455 12.4758Z" fill="white"/>
<path d="M18.5354 4.6236C21.2526 4.35667 24.0395 4.82166 26.5153 5.97602C28.8681 7.06538 30.9362 8.76054 32.472 10.8495C34.0201 12.9462 35.0236 15.4422 35.3478 18.0294C35.7377 21.0592 35.2077 24.2027 33.8228 26.9277C32.448 29.6596 30.2414 31.9636 27.5729 33.4576C25.0615 34.875 22.1439 35.5536 19.265 35.4043C16.8248 35.2874 14.4162 34.5749 12.3056 33.3447C9.90561 31.9544 7.89323 29.9048 6.54545 27.4809C5.15358 24.9934 4.48201 22.113 4.6205 19.2673C4.73656 16.6391 5.54584 14.0472 6.94391 11.8197C8.55242 9.24178 10.9362 7.15435 13.7083 5.9087C15.2325 5.21934 16.8704 4.78453 18.5354 4.6236ZM17.0917 7.20696C14.6762 7.70213 12.4263 8.94778 10.7219 10.7288C8.8619 12.5044 7.57602 14.8727 7.12727 17.4066C6.89981 18.5795 6.92302 19.7787 6.94236 20.9671C7.04294 23.559 7.99613 26.1091 9.62708 28.1269C10.0696 28.6863 10.5803 29.1853 11.0878 29.6851C12.7776 31.3168 14.9501 32.4395 17.2588 32.8743C18.5222 33.1211 19.8174 33.1188 21.0986 33.07C20.8186 31.6178 20.6468 30.1354 20.1741 28.7273C19.9458 28.0944 19.6162 27.5025 19.2503 26.9385C19.1698 26.817 19.087 26.6901 18.9609 26.612C18.4952 26.3474 18.0108 26.1083 17.487 25.9845C16.7412 25.7114 15.8932 25.5002 15.3903 24.8333C14.8797 24.3002 14.8116 23.5234 14.7969 22.8232C14.7799 21.8329 15.1636 20.9052 15.4282 19.9691C14.6352 19.9141 13.8337 19.87 13.0631 19.6634C12.4062 19.5064 11.7973 19.2015 11.1992 18.8944C10.5725 18.5687 10.0805 18.0542 9.6294 17.5211C9.18607 16.9888 9.01973 16.2956 8.85029 15.6395C8.8325 15.4251 8.69014 15.0522 8.97795 14.964C9.74236 14.848 10.5191 14.8634 11.2905 14.8704C12.3683 14.8766 13.4275 15.101 14.4735 15.3346C15.7168 15.6634 16.9044 16.2685 17.8375 17.1621C18.1145 16.9532 18.4217 16.7884 18.7443 16.66C18.7265 16.0557 18.8549 15.4623 18.9284 14.8658C19.1528 13.2642 19.9404 11.8066 20.8859 10.5184C21.0267 10.3319 21.2603 10.1671 21.5048 10.2383C21.7865 10.3296 22.0147 10.5354 22.2027 10.7567C22.6623 11.3671 23.1095 12.0302 23.2426 12.7977C23.5172 14.0054 23.3981 15.2573 23.1892 16.4658C23.559 16.5702 23.9513 16.6522 24.2646 16.8897C24.5424 17.0956 24.6739 17.4282 24.8263 17.7261C25.0329 17.713 25.2263 17.8074 25.3625 17.959C25.7393 18.3652 25.8932 18.9346 25.9002 19.4785C26.0611 19.5923 26.2259 19.7037 26.4139 19.7671C27.3075 20.0627 28.2368 20.2368 29.1296 20.5331C29.5335 20.7397 29.9783 20.5106 30.4062 20.5632C30.7644 20.5841 31.2518 20.6723 31.3609 21.0778C31.4398 21.4638 31.4553 21.9048 31.2162 22.2414C31.046 22.4836 31.1064 22.8054 30.9586 23.0592C30.6112 23.8638 29.8236 24.318 29.1729 24.8495C28.9981 25.0174 28.687 25.0236 28.5973 25.2743C28.3389 25.8329 27.8739 26.2522 27.4275 26.6592C26.9733 27.0012 26.4294 27.2263 25.87 27.3199C25.2565 27.3973 24.6352 27.3795 24.0201 27.3339C24.3296 28.9354 24.8418 30.4905 25.3578 32.0356C27.2634 31.2201 28.875 29.8422 30.2043 28.2716C32.3799 25.6379 33.4182 22.113 33.0832 18.7188C32.8758 16.5393 32.1029 14.417 30.865 12.612C29.2727 10.2793 26.9176 8.46654 24.2368 7.56828C21.9482 6.78917 19.4476 6.67621 17.0917 7.20696Z" fill="white"/>
<path d="M35.7006 12.2244C36.4209 11.8197 37.1288 11.3934 37.8484 10.988C39.224 13.7416 39.993 16.807 39.9884 19.8901C39.993 20.8441 39.9242 21.7973 39.7996 22.7435C38.9919 22.5338 38.1865 22.3149 37.3811 22.0983C37.8105 18.7342 37.2093 15.2596 35.7006 12.2244Z" fill="white"/>
<path d="M76.7218 13.2162C78.3466 12.9834 80.0603 13.2495 81.494 14.0658C83.0058 14.9122 84.1586 16.3706 84.629 18.0387C85.0924 19.6758 84.9648 21.4878 84.2189 23.0228C83.4483 24.6367 81.9984 25.8971 80.3071 26.4696C78.7953 26.9865 77.1195 27.0081 75.5899 26.5478C74.0557 26.089 72.6894 25.0754 71.8352 23.7168C70.3861 21.4491 70.4356 18.3211 71.9752 16.1106C73.0507 14.5261 74.8317 13.4747 76.7218 13.2162ZM76.9354 15.9126C75.9876 16.1075 75.1288 16.6832 74.5849 17.4832C73.3787 19.2317 73.6565 21.8901 75.3207 23.2549C76.3737 24.1416 77.8986 24.3814 79.1907 23.9358C80.0371 23.6464 80.7675 23.0453 81.2263 22.2785C81.8491 21.2557 81.9868 19.976 81.6882 18.8255C81.4344 17.8522 80.8209 16.9679 79.966 16.4302C79.077 15.8623 77.9613 15.6952 76.9354 15.9126Z" fill="white"/>
<path d="M96.5184 13.2162C98.0503 12.9981 99.6596 13.2193 101.041 13.9319C102.317 14.5818 103.376 15.6518 104.002 16.94C105.134 19.2426 104.874 22.1826 103.28 24.2081C102.314 25.4623 100.891 26.3404 99.3501 26.6847C97.6975 27.053 95.9141 26.8936 94.383 26.1571C93.1281 25.5567 92.0665 24.5571 91.405 23.3323C90.6058 21.8716 90.393 20.1192 90.7404 18.4975C91.0499 17.0491 91.8553 15.713 92.995 14.7667C93.9915 13.9296 95.2317 13.3988 96.5184 13.2162ZM96.7435 15.9064C95.8816 16.0789 95.0855 16.5594 94.5377 17.248C93.2418 18.8588 93.3253 21.4182 94.7482 22.9253C95.6774 23.9389 97.1567 24.3513 98.4898 24.0696C99.6008 23.8561 100.586 23.1095 101.11 22.1091C101.968 20.4944 101.738 18.3234 100.445 17.0019C99.5133 16.0193 98.0565 15.6286 96.7435 15.9064Z" fill="white"/>
<path d="M53.9954 13.3694C56.0882 13.3702 58.181 13.3671 60.2747 13.371C61.5482 13.3911 62.8882 13.7207 63.8398 14.6128C64.7141 15.412 65.0863 16.6313 65.0654 17.7911C65.0824 18.8797 64.7427 20.0062 63.9752 20.8015C63.4955 21.3137 62.8766 21.6774 62.2236 21.9226C63.313 23.4986 64.393 25.0816 65.4801 26.6592C64.3412 26.6592 63.2023 26.6569 62.0634 26.6607C61.1033 25.2503 60.154 23.8321 59.1969 22.4201C58.4356 22.4201 57.6743 22.4201 56.913 22.4201C56.913 23.8329 56.913 25.2464 56.913 26.6592C55.9404 26.6584 54.9679 26.6592 53.9954 26.6592C53.9946 22.229 53.9954 17.7996 53.9954 13.3694ZM56.913 16.0023C56.913 17.2712 56.9122 18.54 56.9137 19.8089C57.8785 19.8089 58.8426 19.8089 59.8073 19.8089C60.3048 19.8097 60.8186 19.7315 61.2518 19.4739C62.212 18.9385 62.3629 17.4955 61.6967 16.6762C61.2696 16.1841 60.588 16.0224 59.9621 16.0039C58.9462 15.9992 57.9296 16.0031 56.913 16.0023Z" fill="white"/>
<path d="M110.949 13.3694C113.088 13.371 115.226 13.3656 117.364 13.3725C118.613 13.4074 119.955 13.7803 120.781 14.776C121.485 15.5899 121.628 16.7652 121.369 17.7826C121.153 18.6375 120.5 19.3006 119.759 19.7377C120.42 19.9961 121.074 20.3412 121.538 20.8921C121.942 21.3656 122.153 21.9799 122.201 22.595C122.283 23.4824 122.116 24.4325 121.543 25.1389C120.872 25.9845 119.808 26.3992 118.771 26.5749C117.849 26.7389 116.91 26.6886 115.978 26.6971C114.302 26.6963 112.626 26.6971 110.949 26.6963C110.95 22.2545 110.95 17.812 110.949 13.3694ZM113.815 15.8932C113.814 16.8294 113.814 17.7648 113.814 18.701C114.611 18.6994 115.408 18.701 116.205 18.6994C116.835 18.7327 117.518 18.7064 118.064 18.3513C118.629 17.9845 118.728 17.1567 118.419 16.5942C118.109 16.0828 117.468 15.9288 116.911 15.8994C115.879 15.8863 114.846 15.8994 113.815 15.8932ZM113.815 21.1505C113.814 22.1215 113.814 23.0932 113.814 24.0642C115.026 24.0619 116.237 24.0696 117.448 24.0604C118.061 24.0364 118.779 23.9087 119.144 23.3578C119.471 22.8023 119.408 21.966 118.864 21.5652C118.415 21.2356 117.837 21.1675 117.296 21.1528C116.135 21.1482 114.975 21.1536 113.815 21.1505Z" fill="white"/>
<path d="M128.296 26.605C128.299 22.1934 128.309 17.781 128.314 13.3694C131.646 13.3702 134.979 13.3687 138.313 13.3702C138.31 14.2352 138.314 15.101 138.31 15.966C135.939 15.9636 133.567 15.9667 131.196 15.9644C131.195 16.858 131.195 17.7509 131.195 18.6437C133.281 18.6453 135.367 18.6422 137.453 18.6453C137.453 19.511 137.452 20.376 137.453 21.241C135.367 21.2402 133.281 21.241 131.195 21.241C131.195 22.164 131.195 23.0863 131.195 24.0093C133.598 24.0093 136 24.0101 138.402 24.0085C138.402 24.8743 138.402 25.74 138.402 26.605C135.034 26.6043 131.665 26.605 128.296 26.605Z" fill="white"/>
<path d="M143.746 13.388C147.41 13.3872 151.075 13.3872 154.739 13.388V16.0727C153.4 16.0735 152.06 16.072 150.722 16.0735C150.722 19.5961 150.723 23.1195 150.722 26.6422C149.743 26.6429 148.764 26.6422 147.786 26.6422C147.786 23.1195 147.786 19.5961 147.786 16.0735C146.439 16.072 145.092 16.0735 143.746 16.0727C143.745 15.1776 143.745 14.2824 143.746 13.388Z" fill="white"/>
<path d="M0 19.4692C0.0425532 18.4859 0.129981 17.5041 0.294004 16.5331C1.09014 16.7412 1.8824 16.9609 2.67544 17.1783C2.55474 18.3335 2.43559 19.4948 2.48433 20.6584C2.53617 22.3737 2.87505 24.0727 3.42901 25.6944C3.51799 25.8809 3.38491 26.0603 3.2147 26.1308C2.57408 26.465 1.97911 26.8797 1.33075 27.1977C0.525339 25.0979 0.0750484 22.8665 0 20.619V19.4692Z" fill="white"/>
<path d="M36.3961 26.2692C36.5114 26.205 36.6383 26.2801 36.7536 26.3048C37.4174 26.5122 38.1037 26.6422 38.7644 26.858C37.9822 29.0785 36.7814 31.152 35.2565 32.9455C34.1137 34.2894 32.7845 35.4708 31.3385 36.4797C30.923 35.7656 30.5099 35.0499 30.1068 34.3288C31.0027 33.6456 31.8816 32.9323 32.6576 32.1114C34.195 30.5168 35.4073 28.6159 36.2282 26.5602C36.2762 26.4596 36.3033 26.3389 36.3961 26.2692Z" fill="white"/>
<path d="M3.29594 30.9687C3.99845 30.5369 4.71644 30.1315 5.42747 29.7145C7.1853 32.3404 9.65339 34.482 12.5114 35.8337C12.294 36.6445 12.0789 37.4569 11.8662 38.2692C10.0921 37.4615 8.42089 36.4178 6.94778 35.1397C5.54275 33.9288 4.3234 32.5106 3.29594 30.9687Z" fill="white"/>
<path d="M16.4952 37.1737C19.7865 37.8398 23.2588 37.5358 26.3868 36.3157C26.8031 37.0383 27.2193 37.7617 27.641 38.482C25.3919 39.4019 22.981 39.9311 20.5501 40H19.4685C18.2538 39.9536 17.0422 39.8174 15.8514 39.5737C16.0634 38.7729 16.287 37.9752 16.4952 37.1737Z" fill="white"/>
</svg>
