<svg width="78" height="48" viewBox="0 0 78 48" fill="none" xmlns="http://www.w3.org/2000/svg">
<rect width="78" height="48" rx="8" fill="black" fill-opacity="0.1"/>
<g clip-path="url(#clip0_630_2897)">
<path d="M30.5861 19.1555C30.4255 19.3036 30.2634 19.4504 30.1047 19.6012C29.5437 20.1351 29.1224 20.7561 28.9738 21.5305C28.8669 22.0392 28.8705 22.5651 28.9843 23.0722C29.0982 23.5793 29.3196 24.0557 29.6335 24.4687C29.9569 24.9096 30.3424 25.2758 30.8555 25.4877C30.9156 25.5122 30.9764 25.5339 31.05 25.5625C30.9825 25.7452 30.9244 25.9252 30.8522 26.1005C30.4342 27.1195 29.8907 28.0625 29.1487 28.8804C29.0084 29.0316 28.857 29.172 28.6957 29.3002C28.1555 29.7418 27.5479 29.9116 26.8626 29.7078C26.5209 29.6073 26.1833 29.4945 25.843 29.3892C25.4964 29.2713 25.135 29.2027 24.7695 29.1854C24.3117 29.1745 23.8918 29.3125 23.4664 29.4687C23.148 29.5951 22.8225 29.7024 22.4915 29.79C21.9696 29.9157 21.4969 29.754 21.0648 29.4592C20.6396 29.1566 20.2734 28.7778 19.9845 28.3417C19.232 27.2755 18.6667 26.0873 18.3135 24.8288C17.9965 23.712 17.9203 22.54 18.09 21.3913C18.2426 20.3675 18.622 19.4436 19.3364 18.68C20.0791 17.8892 20.9939 17.5638 22.0648 17.6711C22.5982 17.7241 23.1072 17.8797 23.6177 18.0292C23.8303 18.0917 24.0478 18.1385 24.2631 18.1936C24.5648 18.262 24.8792 18.2462 25.1726 18.1481C25.5932 18.0244 26.0085 17.8838 26.4257 17.7595C27.0398 17.566 27.6917 17.5268 28.3243 17.6453C29.1561 17.807 29.8137 18.2567 30.364 18.8872C30.4315 18.966 30.4991 19.0461 30.5666 19.1263C30.574 19.1354 30.5805 19.1452 30.5861 19.1555Z" fill="white"/>
<path d="M27.4581 14C27.4759 14.1754 27.4836 14.3516 27.4811 14.5279C27.4238 15.4331 27.045 16.2874 26.4136 16.9348C26.1253 17.2391 25.806 17.5061 25.413 17.663C25.0754 17.7989 24.7223 17.8247 24.3665 17.8512C24.3611 17.8512 24.355 17.8451 24.3496 17.8424C24.4002 15.7629 25.442 14.4178 27.4581 14Z" fill="white"/>
<path d="M35.0293 16.4721C36.1138 16.2947 37.2112 16.2086 38.31 16.2147C39.9979 16.2147 41.2362 16.61 42.0234 17.3213C42.7499 17.9538 43.182 18.9225 43.182 20.1066C43.182 21.3118 42.8282 22.2608 42.1605 22.9524C41.2551 23.9219 39.7825 24.4171 38.1128 24.4171C37.6024 24.4171 37.1311 24.3974 36.7382 24.2989V29.6345H35.0293V16.4721ZM36.7382 22.894C37.1109 22.9932 37.5828 23.0299 38.152 23.0299C40.214 23.0299 41.4711 22.0224 41.4711 20.1841C41.4711 18.4253 40.2342 17.5761 38.3485 17.5761C37.6024 17.5761 37.0325 17.6352 36.7382 17.7119V22.894Z" fill="white"/>
<path d="M49.3437 29.6331L49.2086 28.4273H49.1499C48.6192 29.1786 47.597 29.8505 46.2426 29.8505C44.3183 29.8505 43.3359 28.4871 43.3359 27.1032C43.3359 24.7935 45.379 23.5265 49.0513 23.5462V23.3485C49.0513 22.5584 48.8352 21.1352 46.8907 21.1352C46.0069 21.1352 45.084 21.4123 44.4162 21.8471L44.0233 20.7011C44.8092 20.1868 45.9482 19.8512 47.146 19.8512C50.0533 19.8512 50.7602 21.8471 50.7602 23.7636V27.3383C50.7602 28.1685 50.7993 28.9789 50.9168 29.6311L49.3437 29.6331ZM49.0884 24.752C47.2033 24.7126 45.0624 25.0482 45.0624 26.9055C45.0624 28.0319 45.8084 28.5659 46.6929 28.5659C47.9298 28.5659 48.7184 27.7751 48.9885 26.9653C49.0494 26.787 49.0825 26.6002 49.0864 26.4117L49.0884 24.752Z" fill="white"/>
<path d="M53.055 20.0693L55.1366 25.7208C55.3526 26.3533 55.5883 27.104 55.7442 27.6774H55.7834C55.9603 27.104 56.1568 26.373 56.391 25.6814L58.2795 20.0693H60.1059L57.5132 26.8866C56.2756 30.1672 55.4316 31.8458 54.2528 32.8744C53.4088 33.6257 52.5648 33.9219 52.132 34.0007L51.6999 32.5388C52.2534 32.354 52.7667 32.0646 53.2123 31.6862C53.8396 31.1629 54.3371 30.4998 54.6653 29.7494C54.7443 29.5714 54.8003 29.4335 54.8003 29.3343C54.8003 29.2351 54.7612 29.0972 54.6822 28.8798L51.1699 20.0693H53.055Z" fill="white"/>
</g>
<defs>
<clipPath id="clip0_630_2897">
<rect width="42.1053" height="20" fill="white" transform="translate(18 14)"/>
</clipPath>
</defs>
</svg>
