<svg fill="none" height="69" viewBox="0 0 69 69" width="69" xmlns="http://www.w3.org/2000/svg" xmlns:xlink="http://www.w3.org/1999/xlink"><clipPath id="a"><path d="m0 0h69v69h-69z"/></clipPath><g clip-path="url(#a)"><path d="m15.1233 11h41.589v44h-41.589z" fill="#fff"/><path clip-rule="evenodd" d="m15.3328 5.8143c5.6735-3.79091 12.3437-5.8143 19.1671-5.8143h.2005c4.5175.0131448 8.9881.915943 13.1566 2.65685 4.1685 1.7409 7.9533 4.28582 11.1383 7.48945 3.185 3.2036 5.7079 7.0032 7.4244 11.1818 1.7166 4.1786 2.5933 8.6544 2.5802 13.1719 0 6.8234-2.0234 13.4937-5.8143 19.1672s-9.1791 10.0954-15.4831 12.7066c-6.3041 2.6112-13.2408 3.2945-19.9332 1.9633-6.6923-1.3312-12.8396-4.617-17.6645-9.4419-4.82489-4.8249-8.11069-10.9722-9.441878-17.6646-1.331187-6.6923-.6479738-13.6291 1.963248-19.9332 2.61121-6.304 7.03316-11.6922 12.70663-15.4831zm3.3686 15.1857h30.6246c.4513 0 .884.1844 1.2031.5126.319.3282.4983.7733.4983 1.2374v24.5c0 .4641-.1793.9093-.4983 1.2374-.3191.3282-.7518.5126-1.2031.5126h-30.6246c-.4513 0-.884-.1844-1.2031-.5126-.319-.3281-.4983-.7733-.4983-1.2374v-24.5c0-.4641.1793-.9092.4983-1.2374.3191-.3282.7518-.5126 1.2031-.5126zm25.3141 20.7877c.9572-.9846 2.2555-1.5377 3.6092-1.5377v-10.5c-1.3537 0-2.652-.5531-3.6092-1.5377s-1.495-2.3199-1.495-3.7123h-17.0137c0 1.3924-.5377 2.7277-1.4949 3.7123s-2.2555 1.5377-3.6092 1.5377v10.5c1.3537 0 2.652.5531 3.6092 1.5377s1.4949 2.3199 1.4949 3.7123h17.0137c0-1.3924.5378-2.7277 1.495-3.7123zm-16.8073-6.7877c0-3.8605 3.0523-7 6.8055-7s6.8055 3.1395 6.8055 7-3.0523 7-6.8055 7-6.8055-3.1395-6.8055-7zm3.4028 0c0 1.9303 1.5261 3.5 3.4027 3.5s3.4027-1.5697 3.4027-3.5c0-1.9302-1.5261-3.5-3.4027-3.5s-3.4027 1.5698-3.4027 3.5z" fill="#75ee4a" fill-rule="evenodd"/></g></svg>