<svg width="12" height="12" viewBox="0 0 12 12" fill="none" xmlns="http://www.w3.org/2000/svg">
<g id="Base icons/x">
<path id="Vector" d="M1.65172 9.17909C1.86395 9.38475 2.20882 9.38475 2.41442 9.17909L5.66418 5.92172L8.92057 9.17909C9.11953 9.38475 9.47104 9.38475 9.67664 9.17909C9.88224 8.9668 9.88224 8.62182 9.67664 8.42279L6.42025 5.16542L9.67664 1.91469C9.88224 1.70904 9.88887 1.35743 9.67664 1.15177C9.46441 0.952747 9.11953 0.952747 8.92057 1.15177L5.66418 4.40913L2.41442 1.15177C2.20882 0.952747 1.85731 0.946103 1.65172 1.15177C1.45276 1.36406 1.45276 1.70904 1.65172 1.91469L4.90811 5.16542L1.65172 8.42279C1.45276 8.62182 1.44612 8.97343 1.65172 9.17909Z" fill="white" stroke="white"/>
</g>
</svg>
