<svg height="58" viewBox="0 0 64 58" width="64" xmlns="http://www.w3.org/2000/svg"><g fill="none"><path d="m63.972 12.781c.058-.182.026-.381-.087-.535-.113-.155-.292-.246-.484-.246h-.005c-.112 0-.22.039-.306.109-.833.677-5.738 4.301-11.461 5.089-.193.026-.353.162-.41.348s-.002.388.143.518c1.62 1.464 2.638 3.582 2.638 5.936 0 4.42-3.58 8-8 8s-8-3.58-8-8c0-3.314 2.013-6.154 4.882-7.371.177-.075.295-.245.304-.437s-.093-.372-.262-.463c-3.841-2.069-7.556-7.404-10.453-15.399-.072-.198-.26-.33-.471-.33s-.399.132-.47.329c-2.897 7.995-6.612 13.33-10.453 15.399-.169.091-.271.271-.262.463s.127.362.304.437c2.868 1.218 4.881 4.058 4.881 7.372 0 4.42-3.58 8-8 8s-8-3.58-8-8c0-2.354 1.018-4.472 2.639-5.936.144-.13.2-.333.143-.518s-.217-.321-.41-.348c-5.723-.788-10.629-4.412-11.462-5.089-.086-.07-.195-.109-.306-.109h-.005c-.191 0-.371.091-.484.246-.113.154-.145.353-.087.535l6.972 39.219h50z" fill="#facb1b"/><path d="m32 11-4 5 4 5 4-5z" fill="#fa5655"/><path d="m32 0c-.21 0-.398.132-.47.33-2.896 7.995-6.612 13.33-10.453 15.399-.169.091-.271.271-.262.463s.127.362.304.437c2.868 1.217 4.881 4.057 4.881 7.371 0 4.42-3.58 8-8 8s-8-3.58-8-8c0-2.354 1.018-4.472 2.639-5.936.145-.13.2-.333.143-.519-.058-.186-.217-.321-.41-.348-5.723-.787-10.629-4.412-11.461-5.089-.087-.069-.196-.108-.307-.108h-.005c-.191 0-.371.091-.483.246s-.145.354-.087.535l6.971 39.219h25z" fill="#fbe158"/><path d="m4.867 40 2.133 12h50l2.133-12z" fill="#df2c2c"/><path d="m58 57c0 .552-.448 1-1 1h-50c-.552 0-1-.448-1-1v-4c0-.552.448-1 1-1h50c.552 0 1 .448 1 1z" fill="#fbe158"/><path d="m61 39c0 .552-.448 1-1 1h-56c-.552 0-1-.448-1-1v-2c0-.552.448-1 1-1h56c.552 0 1 .448 1 1z" fill="#fbec9a"/><circle cx="46" cy="46" fill="#fbec9a" r="2"/><path d="m32 40h-27.133l2.133 12h25z" fill="#fa5655"/><path d="m28 16 4 5v-10z" fill="#f79392"/><g fill="#fbec9a"><circle cx="18" cy="46" r="2"/><circle cx="32" cy="46" r="2"/></g></g></svg>