<svg xmlns="http://www.w3.org/2000/svg" width="129" height="130" viewBox="0 0 129 130" fill="none"><g clip-path="url(#clip0_606_32)"><path d="M102.437 0H26.5634C11.8879 0 0 11.9887 0 26.7693V103.231C0 118.011 11.8879 130 26.5634 130H102.437C117.104 130 129 118.02 129 103.231V26.7693C129 11.9887 117.104 0 102.437 0ZM85.797 72.7188H70.8128V112.384H52.715V72.7188H37.6879V56.6416H52.715V50.764C52.715 29.0253 61.7124 17.607 80.7708 17.607C86.6118 17.607 88.07 18.5492 91.2864 19.3185V35.2314C87.6926 34.5831 86.689 34.2633 82.9666 34.2633C78.5322 34.2633 76.1906 35.508 74.0463 37.9973C71.8935 40.4867 70.8213 44.8085 70.8213 50.9541V56.633H91.3121L85.797 72.7188Z" fill="#DDB43F"></path></g><defs><clipPath id="clip0_606_32"><rect width="129" height="130" fill="white"></rect></clipPath></defs></svg>