<svg fill="none" height="412" width="1609" xmlns="http://www.w3.org/2000/svg" xmlns:xlink="http://www.w3.org/1999/xlink"><linearGradient id="a" gradientUnits="userSpaceOnUse" x1="74.674" x2="405.343" y1="341.102" y2="265.468"><stop offset=".01" stop-color="#aaa"/><stop offset="1" stop-color="#f5f5f5"/></linearGradient><linearGradient id="b" gradientUnits="userSpaceOnUse" x1="69.369" x2="125.074" y1="87.119" y2="366.159"><stop offset=".01" stop-color="#afafaf"/><stop offset="1" stop-color="#f1f1f1"/></linearGradient><path d="m408.224 203h-197.14v70.06h113.49c-10.847 23.093-25.117 40.053-42.81 50.88-17.694 10.827-39.427 16.243-65.2 16.25-39.654 0-72.987-13.14-100-39.42-27.014-26.28-40.527-58.337-40.54-96.17 0-36.593 13.02-67.677 39.06-93.25s58.35-38.36 96.93-38.36c44.26 0 83.01 17.583 116.25 52.75l52.53-52c-23.987-25.867-48.5-44.133-73.54-54.8-29.66-12.627-61.534-18.94-95.62-18.94-56.107 0-103.13 16.917-141.07 50.75a5 5 0 0 1 -.58 3.36 5.08 5.08 0 0 1 -5 4.65c-.124.01-.247.01-.37 0a88.417 88.417 0 0 0 -14.45 16c-.94 9.07-9.88 15.59-15.64 22.45-1.09 2.14-2.2 4.27-3.37 6.34-3.15 5.57-5 11.5-6.84 17.59-1.73 5.67-4 11.08-6 16.62-4.28 11.5-6 23.54-9.63 35.21-1.95 6.22-4.44 12.42-4.85 19s-.19 12.83-1.3 19.24a4 4 0 0 1 -.37 1.1c6.18 41.61 19.66 82.45 44.69 116.67 22.34 30.55 55.68 51.57 90.28 65.71 36.07 14.73 77.44 17.15 115.66 10.9 37.08-6.06 72.8-21.43 98-50.05 25.59-29.07 42.71-63.93 52.18-101.36a4.41 4.41 0 0 1 3.3-3.41 190.643 190.643 0 0 0 2.56-31.34z" fill="#fff"/><path d="m407.094 244.94a194.346 194.346 0 0 1 -25 72.13c-17.76 30.733-40.76 54.177-69 70.33s-61.364 24.233-99.37 24.24c-40.667 0-76.94-8.837-108.82-26.51a191.506 191.506 0 0 1 -48.4-37.93c-3-3.22 27.07 7.08 73.82 10.82 37.34 3 86.82 1.13 127.81-10.37 41.71-11.71 80.76-35.71 107.19-58.39 27.92-23.99 42.04-46.44 41.77-44.32z" fill="url(#a)"/><path d="m156.483 404.939a180.725 180.725 0 0 1 -58.36-22.66c-23.9-14.54-38.42-31.15-48.26-42.59a192.367 192.367 0 0 1 -46.35-95.63 206.11 206.11 0 0 1 8.7-107.79c8.84-24.913 21.384-46.627 37.63-65.14a205.109 205.109 0 0 1 21.56-21.09s-8 35.56-14.18 80.56c-8.78 63.76 6.21 121.29 6.21 121.29a303.494 303.494 0 0 0 34.3 83.21 295.624 295.624 0 0 0 58.75 69.84z" fill="url(#b)"/><path d="m447.294 404.9 23.365-58.996h116.824l22.391 58.996h56.66l-110.204-286.414h-55.297l-110.399 286.414zm119.745-112.151h-76.131l38.163-98.327zm173.094 112.151 31.348-180.882 60.164 180.882h48.093l60.943-180.882 30.764 180.882h52.575l-48.291-286.414h-52.571l-67.174 199.77-66.201-199.77h-53.349l-49.456 286.414zm478.977 0v-52.376h-95.6l102.22-234.038h-173.29v53.934h93.46l-101.83 232.48zm98.13 0v-286.414h-54.12v286.414zm98.33 0 65.62-100.663 66.2 100.663h61.33l-96.77-147.782 91.12-138.632h-61.33l-60.55 91.707-59.97-91.707h-61.33l90.73 138.632-96.77 147.782z" fill="#fff"/><path d="m447.294 404.9 23.365-58.996h116.824l22.391 58.996h56.66l-110.204-286.414h-55.297l-110.399 286.414zm119.745-112.151h-76.131l38.163-98.327zm173.094 112.151 31.348-180.882 60.164 180.882h48.093l60.943-180.882 30.764 180.882h52.575l-48.291-286.414h-52.571l-67.174 199.77-66.201-199.77h-53.349l-49.456 286.414zm478.977 0v-52.376h-95.6l102.22-234.038h-173.29v53.934h93.46l-101.83 232.48zm98.13 0v-286.414h-54.12v286.414zm98.33 0 65.62-100.663 66.2 100.663h61.33l-96.77-147.782 91.12-138.632h-61.33l-60.55 91.707-59.97-91.707h-61.33l90.73 138.632-96.77 147.782z" fill="#fff"/><path d="m1337.63 113.259c-.52-6.23-8.1-41.56-48.2-41.56-38.45 0-46.89 41.56-46.89 41.56 3.73-4.5 20.93-15.78 47.55-15.78s43.82 11.28 47.54 15.78z" fill="#ececec"/></svg>