<svg width="78" height="48" viewBox="0 0 78 48" fill="none" xmlns="http://www.w3.org/2000/svg">
<rect width="78" height="48" rx="8" fill="black" fill-opacity="0.1"/>
<path d="M37.4383 23.7952V29.0697H35.7637V16.0409H40.2028C41.2736 16.0182 42.3084 16.4245 43.0774 17.1688C43.8559 17.8694 44.2945 18.8719 44.2774 19.9181C44.3002 20.9718 43.8616 21.9819 43.0774 22.6844C42.3008 23.4249 41.342 23.7952 40.2028 23.7933L37.4383 23.7952ZM37.4383 17.6453V22.1946H40.2446C40.8673 22.2136 41.4673 21.9686 41.9002 21.5206C42.7793 20.6661 42.8002 19.2592 41.9439 18.3801C41.9287 18.3649 41.9154 18.3497 41.9002 18.3365C41.473 17.8789 40.8692 17.6282 40.2446 17.6453H37.4383ZM48.1355 19.8649C49.3734 19.8649 50.3494 20.1953 51.0652 20.856C51.781 21.5168 52.1379 22.4243 52.1379 23.5749V29.0697H50.5373V27.8318H50.4652C49.7722 28.8514 48.8494 29.3602 47.6988 29.3602C46.7172 29.3602 45.895 29.0697 45.2343 28.4868C44.5925 27.9457 44.228 27.1445 44.2432 26.3033C44.2432 25.3806 44.5925 24.6477 45.2894 24.1028C45.9862 23.5578 46.9165 23.2844 48.0823 23.2844C49.0753 23.2844 49.8956 23.4667 50.5373 23.8294V23.4458C50.5411 22.8724 50.2867 22.3294 49.8462 21.9648C49.4038 21.5661 48.8266 21.3478 48.2304 21.3554C47.2963 21.3554 46.5558 21.7503 46.0109 22.5382L44.5375 21.6098C45.3463 20.4459 46.5463 19.8649 48.1355 19.8649ZM45.9691 26.3413C45.9672 26.7742 46.1742 27.1805 46.5235 27.4331C46.8938 27.7236 47.3532 27.8793 47.8241 27.8698C48.5304 27.8679 49.2083 27.5869 49.7076 27.0875C50.262 26.5654 50.5392 25.954 50.5392 25.2496C50.0171 24.8338 49.2899 24.6249 48.3557 24.6249C47.676 24.6249 47.1083 24.7882 46.6545 25.1167C46.1969 25.4508 45.9691 25.8553 45.9691 26.3413ZM61.3275 20.1554L55.7397 33H54.0119L56.0853 28.5058L52.4094 20.1554H54.2284L56.8846 26.5597H56.9207L59.5048 20.1554H61.3275Z" fill="white"/>
<path d="M30.6728 22.6559C30.6728 22.1452 30.631 21.6363 30.5437 21.1332H23.4844V24.0154H27.5267C27.3596 24.9457 26.8204 25.7679 26.0324 26.29V28.1621H28.4456C29.8583 26.8615 30.6728 24.9343 30.6728 22.6559Z" fill="#4285F4"/>
<path d="M23.484 29.9716C25.5042 29.9716 27.2055 29.3089 28.4453 28.164L26.0321 26.2919C25.3599 26.7476 24.496 27.0077 23.484 27.0077C21.5322 27.0077 19.8746 25.692 19.2823 23.9186H16.7969V25.8476C18.0671 28.3767 20.655 29.9716 23.484 29.9716Z" fill="#34A853"/>
<path d="M19.2828 23.9186C18.9695 22.9901 18.9695 21.9819 19.2828 21.0535V19.1244H16.7974C15.7342 21.2395 15.7342 23.7325 16.7974 25.8476L19.2828 23.9186Z" fill="#FBBC04"/>
<path d="M23.484 17.9643C24.5511 17.9472 25.5821 18.3497 26.3548 19.0864L28.4928 16.9504C27.1371 15.6783 25.3429 14.9796 23.484 15.0005C20.655 15.0005 18.0671 16.5972 16.7969 19.1244L19.2823 21.0535C19.8746 19.2801 21.5322 17.9643 23.484 17.9643Z" fill="#EA4335"/>
</svg>
