<svg xmlns="http://www.w3.org/2000/svg" width="129" height="130" viewBox="0 0 129 130" fill="none"><g clip-path="url(#clip0_606_40)"><path d="M64.5 48.6463C55.5541 48.6463 48.2721 55.9847 48.2721 64.9914C48.2721 74.0066 55.5541 81.3451 64.5 81.3451C73.4459 81.3451 80.7193 74.0066 80.7193 64.9914C80.7193 55.9847 73.4459 48.6463 64.5 48.6463ZM64.5 48.6463C55.5541 48.6463 48.2721 55.9847 48.2721 64.9914C48.2721 74.0066 55.5541 81.3451 64.5 81.3451C73.4459 81.3451 80.7193 74.0066 80.7193 64.9914C80.7193 55.9847 73.4459 48.6463 64.5 48.6463ZM92.6844 27.8757H36.3156C31.5467 27.8757 27.6612 31.7826 27.6612 36.5884V93.3943C27.6612 98.2001 31.5381 102.116 36.3156 102.116H92.6844C97.4533 102.116 101.339 98.2088 101.339 93.3943V36.5884C101.339 31.7826 97.4533 27.8757 92.6844 27.8757ZM80.4792 81.1031C76.2164 85.3989 70.5383 87.7759 64.5 87.7759C58.4617 87.7759 52.7836 85.4076 48.5208 81.1031C44.258 76.8072 41.8993 71.0851 41.8993 65C41.8993 58.9235 44.2494 53.2015 48.5208 48.8969C52.7922 44.6011 58.4617 42.2241 64.5 42.2241C70.5297 42.2241 76.2078 44.5924 80.4792 48.8969C84.742 53.1928 87.1007 58.9149 87.1007 65C87.0922 71.0765 84.742 76.7985 80.4792 81.1031ZM91.4579 42.7686C88.6789 42.7686 86.4231 40.4867 86.4231 37.6948C86.4231 34.8943 88.6875 32.6124 91.4579 32.6124C94.2369 32.6124 96.5013 34.8943 96.5013 37.6948C96.4927 40.4953 94.2369 42.7686 91.4579 42.7686ZM64.5 48.6463C55.5541 48.6463 48.2721 55.9847 48.2721 64.9914C48.2721 74.0066 55.5541 81.3451 64.5 81.3451C73.4459 81.3451 80.7193 74.0066 80.7193 64.9914C80.7193 55.9847 73.4459 48.6463 64.5 48.6463ZM92.6844 27.8757H36.3156C31.5467 27.8757 27.6612 31.7826 27.6612 36.5884V93.3943C27.6612 98.2001 31.5381 102.116 36.3156 102.116H92.6844C97.4533 102.116 101.339 98.2088 101.339 93.3943V36.5884C101.339 31.7826 97.4533 27.8757 92.6844 27.8757ZM80.4792 81.1031C76.2164 85.3989 70.5383 87.7759 64.5 87.7759C58.4617 87.7759 52.7836 85.4076 48.5208 81.1031C44.258 76.8072 41.8993 71.0851 41.8993 65C41.8993 58.9235 44.2494 53.2015 48.5208 48.8969C52.7922 44.6011 58.4617 42.2241 64.5 42.2241C70.5297 42.2241 76.2078 44.5924 80.4792 48.8969C84.742 53.1928 87.1007 58.9149 87.1007 65C87.0922 71.0765 84.742 76.7985 80.4792 81.1031ZM91.4579 42.7686C88.6789 42.7686 86.4231 40.4867 86.4231 37.6948C86.4231 34.8943 88.6875 32.6124 91.4579 32.6124C94.2369 32.6124 96.5013 34.8943 96.5013 37.6948C96.4927 40.4953 94.2369 42.7686 91.4579 42.7686ZM64.5 48.6463C55.5541 48.6463 48.2721 55.9847 48.2721 64.9914C48.2721 74.0066 55.5541 81.3451 64.5 81.3451C73.4459 81.3451 80.7193 74.0066 80.7193 64.9914C80.7193 55.9847 73.4459 48.6463 64.5 48.6463ZM102.437 0H26.5634C11.8965 0 0 11.9887 0 26.7693V103.231C0 118.011 11.8965 130 26.5634 130H102.437C117.112 130 129 118.02 129 103.231V26.7693C129 11.9887 117.104 0 102.437 0ZM107.703 93.4029C107.703 101.753 100.961 108.547 92.6759 108.547H36.3156C28.0301 108.547 21.2884 101.753 21.2884 93.4029V36.5884C21.2884 28.2473 28.0301 21.4535 36.3156 21.4535H92.6844C100.97 21.4535 107.712 28.2473 107.712 36.5884V93.4029H107.703ZM92.6844 27.8757H36.3156C31.5467 27.8757 27.6612 31.7826 27.6612 36.5884V93.3943C27.6612 98.2001 31.5381 102.116 36.3156 102.116H92.6844C97.4533 102.116 101.339 98.2088 101.339 93.3943V36.5884C101.339 31.7826 97.4533 27.8757 92.6844 27.8757ZM80.4792 81.1031C76.2164 85.3989 70.5383 87.7759 64.5 87.7759C58.4617 87.7759 52.7836 85.4076 48.5208 81.1031C44.258 76.8072 41.8993 71.0851 41.8993 65C41.8993 58.9235 44.2494 53.2015 48.5208 48.8969C52.7922 44.6011 58.4617 42.2241 64.5 42.2241C70.5297 42.2241 76.2078 44.5924 80.4792 48.8969C84.742 53.1928 87.1007 58.9149 87.1007 65C87.0922 71.0765 84.742 76.7985 80.4792 81.1031ZM91.4579 42.7686C88.6789 42.7686 86.4231 40.4867 86.4231 37.6948C86.4231 34.8943 88.6875 32.6124 91.4579 32.6124C94.2369 32.6124 96.5013 34.8943 96.5013 37.6948C96.4927 40.4953 94.2369 42.7686 91.4579 42.7686ZM64.5 48.6463C55.5541 48.6463 48.2721 55.9847 48.2721 64.9914C48.2721 74.0066 55.5541 81.3451 64.5 81.3451C73.4459 81.3451 80.7193 74.0066 80.7193 64.9914C80.7193 55.9847 73.4459 48.6463 64.5 48.6463ZM64.5 48.6463C55.5541 48.6463 48.2721 55.9847 48.2721 64.9914C48.2721 74.0066 55.5541 81.3451 64.5 81.3451C73.4459 81.3451 80.7193 74.0066 80.7193 64.9914C80.7193 55.9847 73.4459 48.6463 64.5 48.6463ZM64.5 48.6463C55.5541 48.6463 48.2721 55.9847 48.2721 64.9914C48.2721 74.0066 55.5541 81.3451 64.5 81.3451C73.4459 81.3451 80.7193 74.0066 80.7193 64.9914C80.7193 55.9847 73.4459 48.6463 64.5 48.6463Z" fill="#DDB43F"></path></g><defs><clipPath id="clip0_606_40"><rect width="129" height="130" fill="white"></rect></clipPath></defs></svg>