<svg width="145" height="42" viewBox="0 0 145 42" fill="none" xmlns="http://www.w3.org/2000/svg">
<g clip-path="url(#clip0_160_3623)">
<path d="M15.324 41.9999C14.9866 41.9547 14.6499 41.9051 14.3118 41.8647C11.0383 41.4724 8.14517 40.1974 5.65703 38.033C2.71169 35.4708 0.915855 32.24 0.252715 28.3838C0.0814387 27.3878 0.00180707 26.3787 0.00180707 25.3658C0.00180707 17.2418 0.00180707 9.11814 0.00180707 0.994155C0.00180707 0.85625 -0.00471449 0.717655 0.00661243 0.580785C0.0364743 0.213613 0.240016 0.0184771 0.601447 0.00227322C0.681422 -0.00117441 0.76174 0.000894167 0.841715 0.000894167C6.49316 0.000894167 12.1443 -0.00151917 17.7957 0.00158369C23.7382 0.00503132 29.1642 3.24132 32.0154 8.48033C32.9971 10.2838 33.627 12.2045 33.8549 14.2489C33.9311 14.9322 33.9767 15.6224 33.9795 16.3095C33.9925 19.4693 33.9856 22.6294 33.985 25.7891C33.9832 33.1012 28.9973 39.5879 21.9558 41.44C20.9803 41.6965 19.9921 41.872 18.9843 41.9344C18.8845 41.9406 18.7866 41.9771 18.6878 41.9995C17.5664 41.9995 16.4454 41.9995 15.324 41.9995V41.9999ZM22.6024 24.578C22.6258 24.6662 22.6412 24.6986 22.6419 24.7311C22.6598 25.513 22.6505 26.2932 22.5139 27.0665C22.1881 28.9116 21.0524 30.1218 19.2332 30.5282C18.0236 30.7985 16.8055 30.8078 15.5907 30.5524C13.6528 30.1452 12.4415 28.9744 11.9562 27.0451C11.7869 26.3732 11.7107 25.6895 11.7097 24.9986C11.7056 22.3325 11.696 19.6665 11.7173 17.0004C11.7224 16.373 11.7887 15.7355 11.9164 15.1218C12.3025 13.2677 13.371 12.01 15.2276 11.5029C16.3479 11.1967 17.4889 11.1574 18.6287 11.3501C20.2313 11.6208 21.3527 12.5265 21.9911 14.0293C22.0807 14.2403 22.1634 14.4551 22.2362 14.6723C22.4761 15.3873 22.6879 15.5014 23.4128 15.287C24.783 14.8812 26.1529 14.474 27.5224 14.0662C27.6319 14.0338 27.7421 14.0003 27.8465 13.9545C28.1911 13.8042 28.3411 13.5711 28.3181 13.1977C28.3091 13.0508 28.2813 12.8988 28.2295 12.7619C28.0304 12.2365 27.8465 11.7028 27.6055 11.1964C26.3839 8.62789 24.4614 6.82409 21.7663 5.89116C20.3693 5.40746 18.925 5.22301 17.4494 5.21543C15.7215 5.20646 14.0242 5.38988 12.3794 5.93702C9.4464 6.91235 7.32586 8.78958 6.14306 11.6808C5.48678 13.2846 5.21459 14.9667 5.21185 16.6946C5.20738 19.5562 5.21082 22.4174 5.21047 25.2789C5.21047 26.3514 5.32271 27.4123 5.56882 28.4555C6.4633 32.2462 8.71426 34.8098 12.4165 36.0437C13.6494 36.4547 14.9231 36.6457 16.2192 36.7278C17.9361 36.8367 19.6259 36.706 21.2758 36.2096C23.8017 35.449 25.8409 34.0127 27.2465 31.7428C28.3188 30.0111 28.8048 28.1073 28.8058 26.0739C28.8068 23.9595 28.8062 21.845 28.8058 19.7306C28.8058 19.6386 28.8089 19.5462 28.799 19.4552C28.7694 19.1849 28.6177 19.0097 28.3534 18.958C28.2199 18.9318 28.0805 18.9239 27.9439 18.9239C24.7062 18.9221 21.4684 18.9221 18.2306 18.9235C18.1166 18.9235 18.001 18.928 17.8891 18.9466C17.6124 18.9925 17.4381 19.1638 17.3862 19.4383C17.3694 19.5279 17.3677 19.6213 17.3673 19.7127C17.3663 21.0804 17.3636 22.4477 17.368 23.8154C17.3701 24.3915 17.562 24.5776 18.1335 24.578C19.4951 24.5794 20.8564 24.5783 22.218 24.5787C22.3416 24.5787 22.4655 24.5787 22.6028 24.5787L22.6024 24.578Z" fill="#8989AE"/>
<path d="M145 27.3821C144.314 29.1052 142.976 30.0461 141.248 30.4898C139.638 30.9032 138.024 30.887 136.449 30.3378C134.43 29.6341 133.266 28.1837 132.913 26.0727C132.876 25.8469 132.842 25.6169 132.841 25.3887C132.837 23.9641 132.791 22.5375 132.854 21.1157C132.969 18.4945 134.58 16.5972 137.128 16.0253C138.616 15.6912 140.107 15.6971 141.559 16.2149C143.41 16.8744 144.486 18.2218 144.911 20.1235C144.948 20.289 144.971 20.4579 145 20.6254V24.211C144.821 24.4351 144.582 24.4864 144.307 24.4858C141.861 24.4806 139.416 24.4826 136.971 24.4826C136.838 24.4826 136.705 24.4826 136.559 24.4826C136.559 24.8267 136.538 25.1253 136.563 25.4197C136.66 26.5536 137.325 27.2973 138.419 27.5021C138.952 27.6021 139.488 27.5797 140.021 27.4907C140.769 27.3662 141.325 26.9684 141.697 26.3068C141.764 26.1868 141.83 26.0655 141.905 25.951C142.096 25.661 142.214 25.6259 142.538 25.7528C142.591 25.7734 142.643 25.7993 142.694 25.8252C143.335 26.152 143.975 26.483 144.619 26.8043C144.79 26.8894 144.914 27.0098 145.001 27.1756V27.3824L145 27.3821ZM136.521 21.9124H141.468C141.519 21.4432 141.49 21.0005 141.362 20.5686C141.135 19.8049 140.642 19.3064 139.871 19.094C139.306 18.9382 138.741 18.9385 138.177 19.0947C137.339 19.3267 136.817 19.8797 136.632 20.7237C136.55 21.0988 136.557 21.4936 136.521 21.9124Z" fill="#8989AE"/>
<path d="M75.1919 17.9662C75.601 17.5567 75.9552 17.146 76.3651 16.8027C77.3594 15.9704 78.5131 15.6512 79.793 15.8804C80.8989 16.0787 81.7073 16.7106 82.2516 17.6891C82.3628 17.8887 82.4535 18.1 82.5691 18.3389C82.6392 18.2538 82.7037 18.1824 82.7607 18.1052C83.1224 17.6135 83.5237 17.1578 84.0025 16.7778C85.071 15.9308 86.2744 15.6315 87.6103 15.9142C88.5552 16.1142 89.2733 16.6489 89.7919 17.4584C90.2337 18.1483 90.4599 18.9164 90.5515 19.7228C90.602 20.1665 90.6205 20.6164 90.6212 21.0632C90.627 23.9586 90.6243 26.8535 90.6243 29.7488C90.6243 29.8409 90.6294 29.9333 90.6219 30.0243C90.6023 30.2663 90.4798 30.3953 90.2371 30.4315C90.1698 30.4415 90.1002 30.4411 90.0318 30.4411C89.1281 30.4418 88.2247 30.4425 87.3209 30.4404C87.2187 30.4404 87.1126 30.4384 87.0148 30.4125C86.8466 30.368 86.7371 30.256 86.7247 30.0726C86.7179 29.9695 86.7216 29.8657 86.7216 29.7626C86.7216 27.0397 86.7261 24.3168 86.7161 21.5942C86.7148 21.2422 86.6811 20.8784 86.5885 20.5406C86.3225 19.5683 85.4558 19.1536 84.5194 19.5173C84.2026 19.6404 83.9428 19.8435 83.7234 20.0993C83.3586 20.5251 83.1276 21.0226 82.9807 21.559C82.9453 21.6883 82.9529 21.8317 82.9529 21.9689C82.9515 24.5771 82.9518 27.1848 82.9518 29.793C82.9518 30.3984 82.9093 30.4411 82.31 30.4415C81.4406 30.4418 80.5715 30.4415 79.702 30.4415C79.0873 30.4415 79.0571 30.4122 79.0571 29.8047C79.0568 27.0818 79.0598 24.3588 79.053 21.6362C79.0519 21.3056 79.0324 20.9667 78.96 20.6457C78.6449 19.2484 77.3495 19.175 76.5923 19.6559C76.4018 19.7769 76.2158 19.9252 76.0733 20.0989C75.5907 20.6885 75.2945 21.3408 75.3014 22.1392C75.323 24.6781 75.3096 27.2173 75.3093 29.7564C75.3093 30.3818 75.2485 30.4415 74.6211 30.4415C73.7403 30.4415 72.8596 30.4422 71.9788 30.4415C71.4375 30.4408 71.3689 30.3729 71.3689 29.8243C71.3682 25.4586 71.3685 21.0929 71.3689 16.7272C71.3689 16.6813 71.3675 16.6351 71.3699 16.5893C71.3864 16.2452 71.4883 16.13 71.8288 16.1276C72.7895 16.1207 73.7503 16.1207 74.7113 16.1276C75.0566 16.13 75.1723 16.2597 75.1781 16.6203C75.1843 16.9764 75.1788 17.3326 75.1802 17.6887C75.1805 17.7766 75.1881 17.8649 75.1929 17.9662H75.1919Z" fill="#8989AE"/>
<path d="M51.2838 23.2173C51.0899 23.2173 50.966 23.2173 50.8421 23.2173C50.0756 23.2173 49.3091 23.2194 48.5427 23.2163C48.0958 23.2146 48.0059 23.1205 48.0052 22.664C48.0035 21.8597 48.0031 21.0553 48.0052 20.251C48.0065 19.8238 48.1071 19.7204 48.5293 19.7201C50.5427 19.7183 52.5562 19.7183 54.5696 19.7201C54.9963 19.7204 55.0879 19.8045 55.0879 20.2169C55.0872 21.6531 55.1144 23.0905 55.0666 24.5254C54.9784 27.1769 53.3209 29.3969 50.8314 30.2832C49.6246 30.7132 48.3824 30.8235 47.1138 30.7259C46.37 30.6687 45.6375 30.5504 44.9294 30.3129C42.5713 29.5217 41.1781 27.8713 40.6595 25.45C40.5171 24.785 40.4656 24.1092 40.4642 23.4304C40.4608 21.7759 40.458 20.121 40.4652 18.4665C40.4687 17.6722 40.5476 16.8837 40.7553 16.1138C41.37 13.8374 42.7914 12.3235 45.0379 11.6333C46.7342 11.112 48.4661 11.0551 50.1878 11.4823C52.2648 11.9977 53.6793 13.3133 54.5058 15.2812C54.6033 15.5133 54.6891 15.7522 54.7588 15.9939C54.858 16.3386 54.7488 16.562 54.4128 16.6658C53.4847 16.952 52.5534 17.2285 51.6202 17.4977C51.3319 17.5808 51.1709 17.4822 51.0555 17.1974C51.0171 17.1019 50.99 17.002 50.9553 16.9047C50.5469 15.7674 49.7451 15.1164 48.5496 14.9879C47.9691 14.9255 47.3863 14.9437 46.8107 15.0827C45.6361 15.3664 44.9205 16.1087 44.6469 17.276C44.5611 17.6422 44.51 18.0249 44.5069 18.4007C44.4925 20.1241 44.4935 21.8479 44.5062 23.5714C44.5089 23.9244 44.5587 24.2826 44.6332 24.6284C44.9222 25.9661 45.7882 26.7643 47.143 26.9615C47.7931 27.0563 48.4414 27.0501 49.0867 26.9101C50.3327 26.6401 51.0834 25.8193 51.221 24.5402C51.266 24.1213 51.2629 23.6969 51.2841 23.2173H51.2838Z" fill="#8989AE"/>
<path d="M97.0803 20.9929C97.0803 21.82 97.0659 22.6474 97.0865 23.4742C97.0967 23.8848 97.1372 24.3012 97.2224 24.7025C97.5275 26.1392 98.4374 26.9139 99.9014 27.0169C100.35 27.0483 100.794 27.0056 101.227 26.887C102.014 26.6715 102.58 26.1802 102.911 25.4348C103.04 25.1435 103.123 24.8305 103.214 24.5233C103.334 24.1202 103.502 24.0168 103.894 24.1409C104.765 24.4171 105.635 24.6957 106.504 24.979C106.903 25.1094 107.009 25.2952 106.914 25.7117C106.361 28.1519 104.762 30.1026 101.801 30.6159C100.513 30.839 99.2259 30.8283 97.9542 30.5087C95.466 29.8829 93.954 28.2736 93.3149 25.8054C93.1241 25.0687 93.0489 24.3147 93.0479 23.5541C93.0451 21.8196 93.0417 20.0848 93.0493 18.3503C93.0534 17.427 93.1756 16.5165 93.4728 15.6401C94.2633 13.3078 95.8793 11.897 98.2699 11.3989C99.6305 11.1151 101.001 11.1389 102.351 11.4816C104.429 12.0091 105.804 13.3288 106.545 15.3319C106.645 15.6001 106.73 15.8756 106.798 16.1535C106.888 16.5151 106.764 16.7213 106.403 16.8285C105.516 17.0923 104.627 17.3522 103.738 17.6077C103.388 17.7084 103.238 17.6246 103.106 17.2774C103.016 17.0416 102.943 16.7992 102.841 16.5689C102.382 15.5267 101.563 15.0064 100.445 14.9734C100.026 14.9609 99.5935 14.9792 99.1864 15.0706C98.0685 15.3212 97.462 16.0966 97.2285 17.1809C97.1376 17.6042 97.0971 18.0442 97.0858 18.4779C97.0641 19.316 97.0796 20.1548 97.0792 20.9936L97.0803 20.9929Z" fill="#8989AE"/>
<path d="M65.125 28.6852C65.0656 28.7669 65.0079 28.85 64.9461 28.9304C63.9967 30.1605 62.7388 30.7483 61.1973 30.7307C60.5994 30.7238 60.0134 30.6293 59.4529 30.4094C58.3827 29.9895 57.6279 29.2437 57.2157 28.1681C56.844 27.1983 56.8007 26.194 57.0197 25.1859C57.2239 24.2447 57.7556 23.5159 58.5591 22.9911C59.3304 22.4878 60.1933 22.232 61.0892 22.0772C62.2311 21.88 63.3827 21.8213 64.5401 21.8613C64.6873 21.8665 64.8353 21.862 65.0041 21.862C65.0162 21.7817 65.0392 21.7059 65.0364 21.6314C65.0199 21.1622 65.0371 20.6871 64.9688 20.2251C64.8696 19.5525 64.4395 19.1505 63.7822 19.0029C63.3302 18.9012 62.8743 18.9033 62.4209 18.9981C61.9572 19.0953 61.6102 19.3573 61.383 19.7741C61.2954 19.9348 61.223 20.1041 61.1427 20.2689C61.0006 20.5602 60.9189 20.6036 60.5997 20.525C60.0563 20.3913 59.5147 20.2496 58.9724 20.1117C58.6292 20.0244 58.2852 19.94 57.943 19.85C57.5263 19.7407 57.4656 19.6369 57.5668 19.2084C57.7518 18.4254 58.1414 17.7628 58.739 17.2267C59.421 16.6147 60.2287 16.2527 61.1115 16.0517C62.5617 15.7215 64.0129 15.7153 65.4583 16.0811C66.0617 16.2338 66.6246 16.4858 67.1281 16.8575C68.0209 17.5166 68.5316 18.4168 68.7235 19.4987C68.7973 19.9148 68.8361 20.3423 68.8371 20.765C68.8464 23.7748 68.8423 26.7845 68.8423 29.794C68.8423 29.8629 68.845 29.9319 68.8409 30.0008C68.8223 30.3242 68.719 30.4377 68.3971 30.4397C67.4823 30.4459 66.5673 30.4466 65.6522 30.4394C65.3069 30.4366 65.2115 30.3294 65.2063 29.9722C65.2001 29.5509 65.2049 29.1293 65.2049 28.7076C65.1782 28.7004 65.1514 28.6932 65.1246 28.6859L65.125 28.6852ZM65.0306 24.3136C64.9722 24.2961 64.9403 24.2774 64.9091 24.2785C64.1677 24.3061 63.4246 24.3136 62.6856 24.3726C62.2088 24.4105 61.7375 24.525 61.3123 24.768C60.7356 25.0973 60.5396 25.6196 60.6007 26.2529C60.6653 26.9211 61.0112 27.3541 61.6356 27.5158C62.6804 27.7864 63.8691 27.5113 64.5607 26.5201C64.7543 26.2426 64.952 25.9288 65.012 25.6065C65.0896 25.1883 65.0309 24.7446 65.0309 24.3133L65.0306 24.3136Z" fill="#8989AE"/>
<path d="M116.781 28.6829C116.719 28.7601 116.657 28.8367 116.597 28.9149C115.588 30.2271 114.251 30.817 112.615 30.7118C112.186 30.6843 111.749 30.6119 111.338 30.4843C109.949 30.0516 109.081 29.0925 108.703 27.6921C108.49 26.905 108.473 26.1003 108.633 25.3011C108.864 24.1434 109.539 23.3153 110.571 22.7713C111.382 22.3441 112.257 22.1331 113.156 22.0093C114.201 21.8652 115.251 21.8215 116.305 21.8652C116.418 21.8701 116.531 21.8659 116.677 21.8659C116.691 21.2188 116.75 20.5886 116.551 19.9763C116.394 19.494 116.054 19.1851 115.572 19.0434C115.068 18.8955 114.556 18.8951 114.045 19.0034C113.593 19.0989 113.255 19.3554 113.031 19.7594C112.943 19.9197 112.871 20.089 112.792 20.2545C112.646 20.561 112.562 20.6041 112.223 20.5196C111.668 20.3814 111.116 20.2366 110.562 20.0949C110.208 20.0042 109.852 19.9197 109.5 19.8208C109.174 19.7291 109.116 19.6284 109.188 19.2916C109.393 18.3428 109.888 17.5788 110.658 16.9955C111.376 16.4518 112.195 16.1456 113.071 15.9819C114.416 15.7309 115.755 15.7371 117.085 16.0777C117.826 16.2677 118.503 16.5917 119.077 17.1089C119.872 17.8257 120.277 18.7451 120.415 19.7905C120.465 20.1649 120.482 20.5458 120.483 20.924C120.489 23.8542 120.486 26.7843 120.486 29.7148C120.486 29.8068 120.489 29.8989 120.485 29.9906C120.472 30.3078 120.36 30.4264 120.049 30.4398C119.878 30.4474 119.706 30.4419 119.534 30.4419C118.814 30.4419 118.093 30.4447 117.372 30.4409C116.934 30.4384 116.849 30.3509 116.846 29.9148C116.843 29.5131 116.845 29.1118 116.845 28.7102C116.824 28.7012 116.803 28.6919 116.781 28.6829H116.781ZM116.634 24.2572C116.039 24.2772 115.432 24.2693 114.832 24.3268C114.335 24.3744 113.832 24.4527 113.356 24.5989C112.511 24.8585 112.187 25.3822 112.246 26.2616C112.285 26.8308 112.563 27.248 113.094 27.4449C113.367 27.5459 113.671 27.5904 113.963 27.6028C115.59 27.671 117.068 26.2544 116.634 24.2572H116.634Z" fill="#8989AE"/>
<path d="M126.736 18.3273C126.999 17.9811 127.197 17.685 127.43 17.4209C128.384 16.3414 129.61 15.9122 131.019 15.945C131.39 15.9536 131.482 16.0546 131.484 16.428C131.488 17.3244 131.489 18.2207 131.484 19.1171C131.481 19.5181 131.377 19.6236 130.968 19.6288C130.384 19.6363 129.802 19.6377 129.232 19.796C128.181 20.0883 127.43 20.7186 127.053 21.7594C126.985 21.9487 126.947 22.1603 126.947 22.362C126.939 24.8098 126.942 27.2573 126.942 29.7051C126.942 29.7972 126.945 29.8892 126.941 29.9809C126.93 30.3264 126.827 30.4371 126.487 30.4402C125.881 30.446 125.275 30.4422 124.668 30.4422C124.279 30.4422 123.89 30.4453 123.501 30.4412C123.108 30.4371 123.025 30.3491 123.015 29.9454C123.013 29.8765 123.015 29.8075 123.015 29.7386C123.015 25.429 123.016 21.1199 123.013 16.8103C123.013 16.2894 122.978 16.1098 123.691 16.1218C124.48 16.1353 125.27 16.1249 126.059 16.1249C126.139 16.1249 126.22 16.1225 126.3 16.127C126.618 16.1446 126.729 16.2508 126.734 16.5742C126.742 17.0224 126.737 17.4705 126.737 17.9187C126.737 18.0318 126.737 18.1449 126.737 18.3273H126.736Z" fill="#8989AE"/>
</g>
<defs>
<clipPath id="clip0_160_3623">
<rect width="145" height="42" fill="white"/>
</clipPath>
</defs>
</svg>
