<?xml version="1.0" encoding="UTF-8"?><svg id="other_icons" fill="white" xmlns="http://www.w3.org/2000/svg" viewBox="0 0 42 42"><defs><style>.cls-1{fill-rule:evenodd;}</style></defs><path class="cls-1" d="m30.91,9.48h4.56c-2.02-3.01-4.92-5.38-8.33-6.74.74.81,1.41,1.75,2.02,2.81.67,1.17,1.26,2.49,1.75,3.92Z"/><path class="cls-1" d="m27.45,6.54c-1.59-2.76-3.67-4.6-5.95-4.99v7.93h7.32c-.4-1.06-.86-2.05-1.37-2.94Z"/><path class="cls-1" d="m32.47,18.48h6c-.14-2.5-.79-4.87-1.85-7h-5.12c.56,2.16.89,4.52.97,7Z"/><path class="cls-1" d="m11.66,27.48h4.93c.28-2.3,1.34-4.37,2.91-5.93v-1.07h-8.87c.08,2.5.44,4.87,1.03,7Z"/><path class="cls-1" d="m29.47,11.48h-7.97v7h9c-.08-2.5-.44-4.87-1.03-7Z"/><path class="cls-1" d="m19.51,11.48h-7.8c-.59,2.13-.96,4.5-1.03,7h8.83v-7Z"/><path class="cls-1" d="m10.25,29.48h-4.73c2.07,3.1,5.07,5.52,8.61,6.86-.77-.83-1.48-1.81-2.11-2.91-.68-1.18-1.27-2.51-1.76-3.96Z"/><path class="cls-1" d="m8.71,20.48H2.52c.14,2.5.78,4.87,1.84,7h5.32c-.55-2.16-.89-4.52-.96-7Z"/><path class="cls-1" d="m12.35,29.48c.4,1.08.86,2.07,1.38,2.97,1.55,2.7,3.57,4.51,5.78,4.96v-1.55c-1.68-1.67-2.78-3.92-2.97-6.38h-4.2Z"/><path class="cls-1" d="m21.51,37.45s.03,0,.04,0c-.01,0-.03-.02-.04-.02v.03Z"/><path class="cls-1" d="m12.01,5.56c.63-1.1,1.34-2.08,2.11-2.91-3.53,1.34-6.52,3.75-8.59,6.83h4.72c.49-1.43,1.08-2.75,1.75-3.93Z"/><path class="cls-1" d="m12.36,9.48h7.15V1.58c-2.21.45-4.23,2.26-5.78,4.96-.51.89-.97,1.88-1.37,2.94Z"/><path class="cls-1" d="m9.66,11.48h-5.29c-1.06,2.13-1.71,4.5-1.85,7h6.17c.07-2.48.41-4.84.97-7Z"/><path class="cls-1" d="m32.42,20.64h-5.82c-4.45,0-8.08,3.64-8.08,8.08,0,3.89,2.79,7.17,6.47,7.92v3.75c0,.29.16.53.42.65.26.12.55.07.76-.12l4.64-4.12h1.62c4.45,0,8.08-3.64,8.08-8.08s-3.64-8.08-8.08-8.08Z"/></svg>