<svg height="517pt" viewBox="0 0 2000 517" width="2000pt" xmlns="http://www.w3.org/2000/svg"><g fill="#ddb43f"><path d="m252.36 0h12.21c6.87.24 13.73.61 20.57 1.26-2.74 10.49-5.61 20.96-8.32 31.46-38.69-3.09-78.06 3.91-113.32 20.13-5.32-9.3-10.78-18.52-16.19-27.77 32.77-15.56 68.77-24.26 105.05-25.08z"/><path d="m330.14 43.6c2.84-10.33 5.62-20.67 8.36-31.03 28.86 9.6 56.23 23.9 80.09 42.83 15.15 11.96 28.87 25.7 41.07 40.66-9.43 5.39-18.78 10.89-28.24 16.21-26.71-31.53-62.04-55.64-101.28-68.67z"/><path d="m18.8 161.25c17.38-42.25 45.79-79.95 82.1-107.76 5.45 9.31 10.77 18.7 16.2 28.03-29.19 23.22-52.34 53.82-67.05 88.07-10.41-2.78-20.82-5.6-31.25-8.34z"/><path d="m239.57 59.76c35.12-3.45 71.14 2.56 103.14 17.48 30.41 14.08 57.14 35.99 76.99 62.99 20.01 27.1 32.98 59.36 37.17 92.8 5.04 39.16-1.81 79.79-19.71 115.01-17.77 35.31-46.29 65.09-80.78 84.4-32.46 18.32-70.17 27.09-107.38 25.16-31.54-1.51-62.67-10.72-89.95-26.62-31.02-17.97-57.03-44.46-74.45-75.79-17.99-32.15-26.67-69.38-24.88-106.16 1.5-33.97 11.96-67.47 30.03-96.26 20.79-33.32 51.6-60.3 87.43-76.4 19.7-8.91 40.87-14.53 62.39-16.61m-18.66 33.39c-31.22 6.4-60.3 22.5-82.33 45.52-24.04 22.95-40.66 53.56-46.46 86.31-2.94 15.16-2.64 30.66-2.39 46.02 1.3 33.5 13.62 66.46 34.7 92.54 5.72 7.23 12.32 13.68 18.88 20.14 21.84 21.09 49.92 35.6 79.76 41.22 16.33 3.19 33.07 3.16 49.63 2.53-3.62-18.77-5.84-37.93-11.95-56.13-2.95-8.18-7.21-15.83-11.94-23.12-1.04-1.57-2.11-3.21-3.74-4.22-6.02-3.42-12.28-6.51-19.05-8.11-9.64-3.53-20.6-6.26-27.1-14.88-6.6-6.89-7.48-16.93-7.67-25.98-.22-12.8 4.74-24.79 8.16-36.89-10.25-.71-20.61-1.28-30.57-3.95-8.49-2.03-16.36-5.97-24.09-9.94-8.1-4.21-14.46-10.86-20.29-17.75-5.73-6.88-7.88-15.84-10.07-24.32-.23-2.77-2.07-7.59 1.65-8.73 9.88-1.5 19.92-1.3 29.89-1.21 13.93.08 27.62 2.98 41.14 6 16.07 4.25 31.42 12.07 43.48 23.62 3.58-2.7 7.55-4.83 11.72-6.49-.23-7.81 1.43-15.48 2.38-23.19 2.9-20.7 13.08-39.54 25.3-56.19 1.82-2.41 4.84-4.54 8-3.62 3.64 1.18 6.59 3.84 9.02 6.7 5.94 7.89 11.72 16.46 13.44 26.38 3.55 15.61 2.01 31.79-.69 47.41 4.78 1.35 9.85 2.41 13.9 5.48 3.59 2.66 5.29 6.96 7.26 10.81 2.67-.17 5.17 1.05 6.93 3.01 4.87 5.25 6.86 12.61 6.95 19.64 2.08 1.47 4.21 2.91 6.64 3.73 11.55 3.82 23.56 6.07 35.1 9.9 5.22 2.67 10.97-.29 16.5.39 4.63.27 10.93 1.41 12.34 6.65 1.02 4.99 1.22 10.69-1.87 15.04-2.2 3.13-1.42 7.29-3.33 10.57-4.49 10.4-14.67 16.27-23.08 23.14-2.26 2.17-6.28 2.25-7.44 5.49-3.34 7.22-9.35 12.64-15.12 17.9-5.87 4.42-12.9 7.33-20.13 8.54-7.93 1-15.96.77-23.91.18 4 20.7 10.62 40.8 17.29 60.77 24.63-10.54 45.46-28.35 62.64-48.65 28.12-34.04 41.54-79.6 37.21-123.47-2.68-28.17-12.67-55.6-28.67-78.93-20.58-30.15-51.02-53.58-85.67-65.19-29.58-10.07-61.9-11.53-92.35-4.67z"/><path d="m461.43 158c9.31-5.23 18.46-10.74 27.76-15.98 17.78 35.59 27.72 75.21 27.66 115.06.06 12.33-.83 24.65-2.44 36.88-10.44-2.71-20.85-5.54-31.26-8.34 5.55-43.48-2.22-88.39-21.72-127.62z"/><path d="m991.63 170.82c21-3.01 43.15.43 61.68 10.98 19.54 10.94 34.44 29.79 40.52 51.35 5.99 21.16 4.34 44.58-5.3 64.42-9.96 20.86-28.7 37.15-50.56 44.55-19.54 6.68-41.2 6.96-60.97 1.01-19.83-5.93-37.49-19.03-48.53-36.59-18.73-29.31-18.09-69.74 1.81-98.31 13.9-20.48 36.92-34.07 61.35-37.41m2.76 34.85c-12.25 2.52-23.35 9.96-30.38 20.3-15.59 22.6-12 56.96 9.51 74.6 13.61 11.46 33.32 14.56 50.02 8.8 10.94-3.74 20.38-11.51 26.31-21.42 8.05-13.22 9.83-29.76 5.97-44.63-3.28-12.58-11.21-24.01-22.26-30.96-11.49-7.34-25.91-9.5-39.17-6.69z"/><path d="m1247.5 170.82c19.8-2.82 40.6.04 58.46 9.25 16.49 8.4 30.17 22.23 38.26 38.88 14.64 29.76 11.27 67.76-9.33 93.94-12.48 16.21-30.87 27.56-50.79 32.01-21.36 4.76-44.41 2.7-64.2-6.82-16.22-7.76-29.94-20.68-38.49-36.51-10.33-18.88-13.08-41.53-8.59-62.49 4-18.72 14.41-35.99 29.14-48.22 12.88-10.82 28.91-17.68 45.54-20.04m2.91 34.77c-11.14 2.23-21.43 8.44-28.51 17.34-16.75 20.82-15.67 53.9 2.72 73.38 12.01 13.1 31.13 18.43 48.36 14.79 14.36-2.76 27.09-12.41 33.87-25.34 11.08-20.87 8.11-48.93-8.6-66.01-12.04-12.7-30.87-17.75-47.84-14.16z"/><path d="m697.89 172.8c27.05.01 54.1-.03 81.16.02 16.46.26 33.78 4.52 46.08 16.05 11.3 10.33 16.11 26.09 15.84 41.08.22 14.07-4.17 28.63-14.09 38.91-6.2 6.62-14.2 11.32-22.64 14.49 14.08 20.37 28.04 40.83 42.09 61.22-14.72 0-29.44-.03-44.16.02-12.41-18.23-24.68-36.56-37.05-54.81-9.84 0-19.68 0-29.52 0v54.79c-12.57-.01-25.14 0-37.71 0-.01-57.26 0-114.51 0-171.77m37.71 34.03c0 16.4-.01 32.8.01 49.2h37.4c6.43.01 13.07-1 18.67-4.33 12.41-6.92 14.36-25.57 5.75-36.16-5.52-6.36-14.33-8.45-22.42-8.69-13.13-.06-26.27-.01-39.41-.02z"/><path d="m1434.02 172.8c27.64.02 55.28-.05 82.91.04 16.14.45 33.49 5.27 44.16 18.14 9.11 10.52 10.95 25.71 7.6 38.86-2.79 11.05-11.23 19.62-20.8 25.27 8.54 3.34 16.99 7.8 22.99 14.92 5.22 6.12 7.95 14.06 8.57 22.01 1.06 11.47-1.1 23.75-8.51 32.88-8.67 10.93-22.42 16.29-35.82 18.56-11.92 2.12-24.06 1.47-36.1 1.58-21.67-.01-43.33 0-65-.01.01-57.41.01-114.83 0-172.25m37.04 32.62c-.02 12.1-.01 24.19-.01 36.29 10.3-.02 20.6 0 30.9-.02 8.14.43 16.97.09 24.03-4.5 7.3-4.74 8.58-15.44 4.59-22.71-4.01-6.61-12.29-8.6-19.49-8.98-13.34-.17-26.69 0-40.02-.08m0 67.95c-.02 12.55-.01 25.11-.01 37.66 15.66-.03 31.31.07 46.96-.05 7.93-.31 17.21-1.96 21.92-9.08 4.23-7.18 3.42-17.99-3.61-23.17-5.8-4.26-13.28-5.14-20.27-5.33-15-.06-30 .01-44.99-.03z"/><path d="m1658.22 343.87c.04-57.02.18-114.05.24-171.07 43.07.01 86.15-.01 129.23.01-.03 11.18.02 22.37-.03 33.55-30.65-.03-61.3.01-91.95-.02-.02 11.55-.01 23.09-.01 34.63 26.96.02 53.92-.02 80.88.02 0 11.19-.01 22.37 0 33.55-26.96-.01-53.92 0-80.88 0v35.78c31.05 0 62.1.01 93.15-.01 0 11.19-.01 22.38 0 33.56-43.54-.01-87.08 0-130.63 0z"/><path d="m1857.92 173.04c47.36-.01 94.72-.01 142.08 0v34.7c-17.31.01-34.62-.01-51.92.01 0 45.53.01 91.07 0 136.6-12.65.01-25.3 0-37.94 0 0-45.53 0-91.07 0-136.6-17.41-.02-34.82 0-52.22-.01-.01-11.57-.01-23.14 0-34.7z"/><path d="m0 251.64c.55-12.71 1.68-25.4 3.8-37.95 10.29 2.69 20.53 5.53 30.78 8.34-1.56 14.93-3.1 29.94-2.47 44.98.67 22.17 5.05 44.13 12.21 65.09 1.15 2.41-.57 4.73-2.77 5.64-8.28 4.32-15.97 9.68-24.35 13.79-10.41-27.14-16.23-55.98-17.2-85.03z"/><path d="m470.42 339.53c1.49-.83 3.13.14 4.62.46 8.58 2.68 17.45 4.36 25.99 7.15-10.11 28.7-25.63 55.5-45.34 78.68-14.77 17.37-31.95 32.64-50.64 45.68-5.37-9.23-10.71-18.48-15.92-27.8 11.58-8.83 22.94-18.05 32.97-28.66 19.87-20.61 35.54-45.18 46.15-71.75.62-1.3.97-2.86 2.17-3.76z"/><path d="m42.6 400.27c9.08-5.58 18.36-10.82 27.55-16.21 22.72 33.94 54.62 61.62 91.56 79.09-2.81 10.48-5.59 20.98-8.34 31.48-22.93-10.44-44.53-23.93-63.57-40.45-18.16-15.65-33.92-33.98-47.2-53.91z"/><path d="m213.2 480.47c42.54 8.61 87.42 4.68 127.85-11.09 5.38 9.34 10.76 18.69 16.21 28-29.07 11.89-60.23 18.73-91.65 19.62h-13.98c-15.7-.6-31.36-2.36-46.75-5.51 2.74-10.35 5.63-20.66 8.32-31.02z"/></g></svg>