<svg fill="none" height="69" viewBox="0 0 69 69" width="69" xmlns="http://www.w3.org/2000/svg"><path d="m67.9673 42.8457c-4.6082 18.4823-23.3298 29.7303-41.8163 25.1214-18.47873-4.6077-29.7279-23.3285-25.11767-41.8093 4.60619-18.48434 23.32777-29.73317 41.80857-25.12544 18.4851 4.60772 29.7341 23.33014 25.1254 41.81334z" fill="#345d9d"/><path d="m35.1247 42.4662 1.2475-4.3763 3.3742-1.2065 2.9448-11.3701-3.456 1.3906 3.456-12.9039h-16.8712l-5.3578 19.9795-3.3947 1.1657-3.0675 11.3905 3.6401-1.3088-2.7403 9.6728h35.7873l3.3129-12.4335zm13.9878 10.3885h-31.4724l2.9857-10.9406-3.5583 1.3292 1.7587-6.5235 3.3947-1.1656 5.1124-19.5092h12.8017l-3.8242 14.3149 3.4765-1.4315-1.6973 6.3804-3.4152 1.1861-2.2699 7.9958h18.9775z" fill="#fff"/></svg>