<svg width="78" height="48" viewBox="0 0 78 48" fill="none" xmlns="http://www.w3.org/2000/svg">
<rect width="78" height="48" rx="8" fill="black" fill-opacity="0.1"/>
<path d="M28.0825 36.8564V35.1348C28.0926 34.99 28.0716 34.8447 28.0211 34.7086C27.9706 34.5726 27.8917 34.4488 27.7896 34.3456C27.6875 34.2425 27.5646 34.1622 27.4291 34.1103C27.2936 34.0583 27.1485 34.0359 27.0036 34.0444C26.814 34.0319 26.6244 34.0706 26.4548 34.1564C26.2853 34.2422 26.1418 34.372 26.0395 34.5322C25.9462 34.3768 25.8127 34.2495 25.6531 34.1636C25.4936 34.0778 25.3138 34.0366 25.1327 34.0444C24.9749 34.0364 24.8177 34.0698 24.6768 34.1413C24.5359 34.2127 24.4161 34.3198 24.3293 34.4518V34.1132H23.7324V36.8564H24.335V35.3471C24.3222 35.2533 24.3303 35.1578 24.3586 35.0675C24.387 34.9772 24.435 34.8942 24.4991 34.8246C24.5633 34.7549 24.642 34.7003 24.7297 34.6647C24.8174 34.629 24.9119 34.6132 25.0065 34.6183C25.4025 34.6183 25.6033 34.8765 25.6033 35.3414V36.8679H26.2059V35.3471C26.1936 35.2534 26.202 35.1581 26.2306 35.068C26.2592 34.9779 26.3072 34.8952 26.3712 34.8257C26.4352 34.7562 26.5138 34.7016 26.6012 34.6657C26.6887 34.6299 26.783 34.6137 26.8774 34.6183C27.2848 34.6183 27.4799 34.8765 27.4799 35.3414V36.8679L28.0825 36.8564ZM36.998 34.1132H36.0166V33.2811H35.414V34.1132H34.8688V34.6584H35.4255V35.921C35.4255 36.558 35.6723 36.9368 36.3782 36.9368C36.6419 36.9377 36.9005 36.8641 37.1242 36.7244L36.9521 36.2137C36.792 36.3091 36.6103 36.3625 36.4241 36.3686C36.1371 36.3686 36.0281 36.185 36.0281 35.9095V34.6584H37.0037L36.998 34.1132ZM42.0884 34.0444C41.9429 34.0401 41.7989 34.0751 41.6716 34.1458C41.5444 34.2165 41.4385 34.3203 41.3653 34.4461V34.1132H40.7742V36.8564H41.371V35.3184C41.371 34.865 41.5662 34.6125 41.9449 34.6125C42.0726 34.6108 42.1993 34.6342 42.318 34.6814L42.5016 34.1075C42.3653 34.0587 42.2217 34.0335 42.0769 34.0329L42.0884 34.0444ZM34.3925 34.3313C34.0547 34.1304 33.6662 34.0308 33.2734 34.0444C32.579 34.0444 32.1256 34.3772 32.1256 34.9224C32.1256 35.3701 32.4585 35.6455 33.0725 35.7316L33.3595 35.7718C33.6866 35.8177 33.8416 35.9038 33.8416 36.0587C33.8416 36.2711 33.6235 36.3916 33.216 36.3916C32.8883 36.4011 32.5669 36.3 32.3035 36.1046L32.0166 36.5695C32.3642 36.8122 32.7807 36.937 33.2045 36.9253C33.9965 36.9253 34.4556 36.5523 34.4556 36.03C34.4556 35.5078 34.0941 35.2954 33.4972 35.2094L33.2103 35.1692C32.952 35.1348 32.7454 35.0831 32.7454 34.8995C32.7454 34.7158 32.9405 34.5781 33.2677 34.5781C33.57 34.5816 33.8664 34.6626 34.1285 34.8134L34.3925 34.3313ZM50.3783 34.0444C50.2328 34.0401 50.0888 34.0751 49.9615 34.1458C49.8343 34.2165 49.7284 34.3203 49.6552 34.4461V34.1132H49.0641V36.8564H49.6609V35.3184C49.6609 34.865 49.8561 34.6125 50.2348 34.6125C50.3625 34.6108 50.4892 34.6342 50.6079 34.6814L50.7915 34.1075C50.6552 34.0587 50.5116 34.0335 50.3668 34.0329L50.3783 34.0444ZM42.6881 35.4791C42.681 35.6719 42.7143 35.864 42.7857 36.0432C42.8571 36.2224 42.9651 36.3847 43.1029 36.5198C43.2406 36.6548 43.405 36.7596 43.5856 36.8275C43.7662 36.8953 43.959 36.9247 44.1516 36.9138C44.5099 36.9321 44.8621 36.8153 45.1387 36.5867L44.8517 36.1046C44.6454 36.262 44.3938 36.3485 44.1343 36.3514C43.9137 36.3336 43.7079 36.2333 43.5578 36.0706C43.4078 35.9079 43.3245 35.6947 43.3245 35.4734C43.3245 35.252 43.4078 35.0388 43.5578 34.8761C43.7079 34.7134 43.9137 34.6131 44.1343 34.5953C44.3938 34.5982 44.6454 34.6847 44.8517 34.8421L45.1387 34.36C44.8621 34.1314 44.5099 34.0146 44.1516 34.0329C43.959 34.022 43.7662 34.0514 43.5856 34.1192C43.405 34.1871 43.2406 34.2919 43.1029 34.4269C42.9651 34.562 42.8571 34.7243 42.7857 34.9035C42.7143 35.0827 42.681 35.2748 42.6881 35.4676V35.4791ZM48.2779 35.4791V34.1132H47.681V34.4461C47.5796 34.3157 47.4487 34.2112 47.299 34.1414C47.1494 34.0715 46.9852 34.0383 46.8202 34.0444C46.4396 34.0444 46.0747 34.1955 45.8057 34.4646C45.5366 34.7337 45.3854 35.0986 45.3854 35.4791C45.3854 35.8596 45.5366 36.2245 45.8057 36.4936C46.0747 36.7627 46.4396 36.9138 46.8202 36.9138C46.9852 36.9199 47.1494 36.8867 47.299 36.8168C47.4487 36.747 47.5796 36.6425 47.681 36.5121V36.845H48.2779V35.4791ZM46.0569 35.4791C46.0664 35.3176 46.1229 35.1625 46.2195 35.0327C46.3161 34.903 46.4485 34.8043 46.6005 34.7488C46.7524 34.6934 46.9173 34.6836 47.0747 34.7207C47.2322 34.7577 47.3754 34.84 47.4866 34.9574C47.5979 35.0749 47.6724 35.2222 47.701 35.3814C47.7295 35.5407 47.7109 35.7047 47.6474 35.8535C47.5839 36.0023 47.4782 36.1292 47.3435 36.2187C47.2088 36.3082 47.0508 36.3563 46.889 36.3572C46.7754 36.3586 46.6627 36.3365 46.5581 36.2923C46.4534 36.248 46.359 36.1826 46.2809 36.1002C46.2027 36.0177 46.1425 35.9199 46.1039 35.8131C46.0654 35.7062 46.0494 35.5925 46.0569 35.4791ZM38.8545 34.0444C38.474 34.0497 38.1113 34.206 37.846 34.4788C37.5807 34.7517 37.4347 35.1187 37.44 35.4992C37.4453 35.8797 37.6016 36.2425 37.8744 36.5078C38.1472 36.7731 38.5142 36.9191 38.8947 36.9138C39.3075 36.935 39.7135 36.8021 40.0339 36.5408L39.7469 36.0989C39.5203 36.2806 39.2396 36.3816 38.9492 36.3858C38.7519 36.4028 38.5558 36.3422 38.4025 36.2168C38.2493 36.0914 38.151 35.9111 38.1285 35.7144H40.1659C40.1659 35.6398 40.1659 35.5652 40.1659 35.4848C40.1659 34.624 39.6321 34.0501 38.8631 34.0501L38.8545 34.0444ZM38.8545 34.5781C38.9438 34.5762 39.0326 34.5919 39.1159 34.6243C39.1991 34.6567 39.2752 34.7053 39.3396 34.7671C39.4041 34.8289 39.4558 34.9028 39.4917 34.9846C39.5276 35.0664 39.5471 35.1545 39.5489 35.2438H38.1142C38.1246 35.0596 38.2067 34.8868 38.3429 34.7624C38.4791 34.6379 38.6587 34.5718 38.843 34.5781H38.8545ZM53.8073 35.4848V33.0114H53.2334V34.4461C53.1321 34.3157 53.0011 34.2112 52.8515 34.1414C52.7018 34.0715 52.5376 34.0383 52.3726 34.0444C51.9921 34.0444 51.6271 34.1955 51.3581 34.4646C51.089 34.7337 50.9378 35.0986 50.9378 35.4791C50.9378 35.8596 51.089 36.2245 51.3581 36.4936C51.6271 36.7627 51.9921 36.9138 52.3726 36.9138C52.5376 36.9199 52.7018 36.8867 52.8515 36.8168C53.0011 36.747 53.1321 36.6425 53.2334 36.5121V36.845H53.8073V35.4848ZM54.803 36.4576C54.8403 36.4571 54.8774 36.4639 54.9121 36.4777C54.945 36.4911 54.9752 36.5106 55.001 36.5351C55.0262 36.5598 55.0467 36.589 55.0613 36.6211C55.0758 36.6547 55.0833 36.6908 55.0833 36.7273C55.0833 36.7638 55.0758 36.8 55.0613 36.8335C55.0467 36.8656 55.0262 36.8948 55.001 36.9196C54.9752 36.944 54.945 36.9635 54.9121 36.977C54.8777 36.9921 54.8406 36.9999 54.803 36.9999C54.7486 36.9995 54.6955 36.9836 54.6497 36.9542C54.604 36.9247 54.5676 36.8829 54.5448 36.8335C54.5304 36.7999 54.523 36.7638 54.523 36.7273C54.523 36.6908 54.5304 36.6547 54.5448 36.6211C54.5594 36.589 54.5798 36.5598 54.605 36.5351C54.6309 36.5106 54.661 36.4911 54.694 36.4777C54.7314 36.4628 54.7714 36.456 54.8116 36.4576H54.803ZM54.803 36.9425C54.8317 36.9427 54.86 36.9368 54.8862 36.9253C54.9109 36.9143 54.9333 36.8987 54.9522 36.8794C54.9881 36.8402 55.008 36.789 55.008 36.7359C55.008 36.6828 54.9881 36.6316 54.9522 36.5924C54.9334 36.5731 54.911 36.5575 54.8862 36.5465C54.86 36.5351 54.8317 36.5292 54.803 36.5293C54.7744 36.5295 54.7461 36.5353 54.7198 36.5465C54.694 36.5571 54.6706 36.5727 54.6509 36.5924C54.615 36.6316 54.5951 36.6828 54.5951 36.7359C54.5951 36.789 54.615 36.8402 54.6509 36.8794C54.6707 36.8991 54.6941 36.9147 54.7198 36.9253C54.7488 36.9378 54.7801 36.9437 54.8116 36.9425H54.803ZM54.8202 36.6011C54.847 36.5998 54.8734 36.6079 54.8948 36.624C54.9036 36.6313 54.9106 36.6405 54.915 36.651C54.9195 36.6615 54.9215 36.6729 54.9207 36.6843C54.9211 36.6938 54.9195 36.7033 54.9161 36.7122C54.9126 36.7211 54.9073 36.7292 54.9006 36.7359C54.884 36.751 54.8627 36.7601 54.8403 36.7617L54.9235 36.8564H54.8575L54.7801 36.7617H54.7542V36.8564H54.6997V36.6039L54.8202 36.6011ZM54.7571 36.6498V36.7187H54.8202C54.8315 36.7221 54.8434 36.7221 54.8547 36.7187C54.8567 36.7147 54.8577 36.7103 54.8577 36.7058C54.8577 36.7013 54.8567 36.6969 54.8547 36.6929C54.8567 36.6889 54.8577 36.6845 54.8577 36.68C54.8577 36.6755 54.8567 36.6711 54.8547 36.6671C54.8434 36.6637 54.8315 36.6637 54.8202 36.6671L54.7571 36.6498ZM51.6007 35.4848C51.6102 35.3234 51.6667 35.1682 51.7633 35.0384C51.8599 34.9087 51.9923 34.81 52.1443 34.7546C52.2963 34.6991 52.4611 34.6894 52.6186 34.7264C52.776 34.7635 52.9192 34.8458 53.0304 34.9632C53.1417 35.0806 53.2162 35.228 53.2448 35.3872C53.2733 35.5464 53.2547 35.7105 53.1912 35.8592C53.1277 36.008 53.0221 36.135 52.8873 36.2244C52.7526 36.3139 52.5946 36.3621 52.4328 36.3629C52.3192 36.3643 52.2065 36.3422 52.1019 36.298C51.9972 36.2538 51.9028 36.1884 51.8247 36.1059C51.7465 36.0234 51.6863 35.9257 51.6477 35.8188C51.6092 35.7119 51.5932 35.5982 51.6007 35.4848ZM31.4484 35.4848V34.1132H30.8516V34.4461C30.7502 34.3157 30.6193 34.2112 30.4696 34.1414C30.3199 34.0715 30.1558 34.0383 29.9907 34.0444C29.6102 34.0444 29.2453 34.1955 28.9762 34.4646C28.7072 34.7337 28.556 35.0986 28.556 35.4791C28.556 35.8596 28.7072 36.2245 28.9762 36.4936C29.2453 36.7627 29.6102 36.9138 29.9907 36.9138C30.1558 36.9199 30.3199 36.8867 30.4696 36.8168C30.6193 36.747 30.7502 36.6425 30.8516 36.5121V36.845H31.4484V35.4848ZM29.2275 35.4848C29.237 35.3234 29.2935 35.1682 29.3901 35.0384C29.4867 34.9087 29.6191 34.81 29.7711 34.7546C29.923 34.6991 30.0879 34.6894 30.2453 34.7264C30.4028 34.7635 30.5459 34.8458 30.6572 34.9632C30.7685 35.0806 30.843 35.228 30.8715 35.3872C30.9001 35.5464 30.8815 35.7105 30.818 35.8592C30.7544 36.008 30.6488 36.135 30.5141 36.2244C30.3793 36.3139 30.2214 36.3621 30.0596 36.3629C29.9455 36.3651 29.8322 36.3436 29.7268 36.2998C29.6215 36.2559 29.5264 36.1906 29.4476 36.1081C29.3689 36.0255 29.3081 35.9275 29.2692 35.8202C29.2303 35.7129 29.2141 35.5987 29.2217 35.4848H29.2275Z" fill="white"/>
<path d="M43.2322 13.2092H34.1934V29.4533H43.2322V13.2092Z" fill="#FF5F00"/>
<path d="M34.7676 21.3329C34.7659 19.7682 35.1203 18.2237 35.8039 16.8163C36.4875 15.4089 37.4823 14.1754 38.7131 13.2094C37.1892 12.0118 35.359 11.267 33.4319 11.0603C31.5047 10.8535 29.5582 11.1932 27.8149 12.0404C26.0716 12.8875 24.6019 14.2081 23.5736 15.8511C22.5453 17.4941 22 19.3932 22 21.3314C22 23.2697 22.5453 25.1688 23.5736 26.8118C24.6019 28.4548 26.0716 29.7753 27.8149 30.6225C29.5582 31.4697 31.5047 31.8093 33.4319 31.6026C35.359 31.3959 37.1892 30.6511 38.7131 29.4535C37.4827 28.4877 36.4881 27.2548 35.8045 25.8479C35.121 24.441 34.7664 22.897 34.7676 21.3329Z" fill="#EB001B"/>
<path d="M55.4275 21.3327C55.4275 23.2711 54.8821 25.1704 53.8536 26.8134C52.8251 28.4564 51.3551 29.777 49.6116 30.624C47.8681 31.4711 45.9215 31.8105 43.9942 31.6035C42.0669 31.3965 40.2367 30.6513 38.7129 29.4533C39.9428 28.4867 40.9372 27.2534 41.6209 25.8464C42.3047 24.4395 42.6599 22.8956 42.6599 21.3313C42.6599 19.767 42.3047 18.2231 41.6209 16.8161C40.9372 15.4092 39.9428 14.1759 38.7129 13.2093C40.2367 12.0112 42.0669 11.2661 43.9942 11.0591C45.9215 10.8521 47.8681 11.1915 49.6116 12.0385C51.3551 12.8856 52.8251 14.2061 53.8536 15.8492C54.8821 17.4922 55.4275 19.3915 55.4275 21.3298V21.3327Z" fill="#F79E1B"/>
<path d="M54.441 27.7316V27.3987H54.5758V27.3298H54.2344V27.3987H54.3807V27.7316H54.441ZM55.1038 27.7316V27.3298H55.0005L54.88 27.6168L54.7595 27.3298H54.6677V27.7316H54.7423V27.4303L54.8542 27.6914H54.9317L55.0436 27.4303V27.7344L55.1038 27.7316Z" fill="#F79E1B"/>
</svg>
