<svg width="216" height="64" viewBox="0 0 216 64" fill="none" xmlns="http://www.w3.org/2000/svg">
<path d="M16.9801 11.934C17.5393 12.4233 18.1685 12.8428 18.8675 13.1923C19.2171 13.402 19.5666 13.5768 19.9161 13.7166C20.3355 13.9263 20.755 14.2409 20.9647 13.7166C21.1744 13.1923 21.2793 12.668 21.5938 12.1437C21.7336 11.7942 21.8735 11.4796 22.0133 11.2C22.1181 11.0951 22.5375 10.6757 22.4327 10.466C22.3278 10.3611 21.9084 10.2563 21.8035 10.2563C21.5938 10.1864 21.4191 10.1165 21.2793 10.0466C20.5453 9.73199 20.021 9.10284 19.8112 8.36884C19.7413 8.01931 19.7413 7.66979 19.8112 7.32026C19.8112 7.11055 19.8112 6.90083 19.9161 6.79597C20.755 5.01339 23.1667 5.43282 24.5298 6.27168C26.2076 7.42512 27.7804 6.79597 28.9339 5.22311C30.0873 3.65024 29.8776 1.7628 28.4096 0.504511C28.1999 0.364701 27.9902 0.259843 27.7804 0.189938C27.1513 -0.124635 26.4173 -0.0197774 25.893 0.294796C25.4736 0.609369 24.7396 1.65795 25.2639 2.18223C25.6833 2.70652 26.3124 2.07738 26.7319 2.07738C27.5707 2.18223 27.9902 3.33567 27.2561 4.17453C26.2076 5.32797 24.0056 3.7551 23.0618 3.33567C22.7822 3.12595 22.5026 2.98614 22.223 2.91624L22.1181 2.81138C21.5589 2.60167 20.9647 2.49681 20.3355 2.49681C17.5044 2.49681 15.1975 4.90853 15.1975 7.84455C15.1975 9.41742 15.8267 10.8854 16.9801 11.934Z" fill="white"/>
<path d="M38.4759 6.27168C39.8391 5.43282 42.2508 5.01339 43.0897 6.79597C43.1945 6.90083 43.1945 7.11055 43.1945 7.32026C43.2644 7.66979 43.2644 8.01931 43.1945 8.36884C42.9848 9.10284 42.4605 9.73199 41.8314 10.0466C41.6217 10.1165 41.412 10.1864 41.2022 10.2563C41.0974 10.2563 40.678 10.3611 40.5731 10.466C40.4682 10.6757 40.8877 11.0951 40.9925 11.2C41.1323 11.4796 41.2721 11.7942 41.412 12.1437C41.7265 12.668 41.8314 13.1923 42.0411 13.7166C42.2508 14.2409 42.6702 13.9263 43.0897 13.7166C43.4392 13.5768 43.7887 13.402 44.1383 13.1923C44.8373 12.8428 45.5014 12.4233 46.1306 11.934C47.284 10.8854 47.8083 9.41742 47.8083 7.84455C47.8083 4.90853 45.5014 2.49681 42.6702 2.49681C42.0411 2.49681 41.4469 2.60167 40.8877 2.81138L40.7828 2.91624C40.5032 2.98614 40.2236 3.12595 39.9439 3.33567C39.0002 3.7551 36.7982 5.32797 35.7496 4.17453C35.0156 3.33567 35.4351 2.18223 36.2739 2.07738C36.6934 2.07738 37.3225 2.70652 37.7419 2.18223C38.2662 1.65795 37.5322 0.609369 37.1128 0.294796C36.5885 -0.0197774 35.8545 -0.124635 35.2253 0.189938C35.0156 0.259843 34.8059 0.364701 34.5962 0.504511C33.1282 1.7628 32.9185 3.65024 34.0719 5.22311C35.2254 6.79597 36.7982 7.42512 38.4759 6.27168Z" fill="white"/>
<path d="M40.678 60.0637C40.678 60.0637 40.678 60.0987 40.678 60.1686C40.7479 60.0987 40.7479 60.0637 40.678 60.0637Z" fill="white"/>
<path d="M62.6979 38.0435C62.4882 37.2046 62.1736 36.3658 61.6493 35.7366C61.2299 35.1075 60.6007 34.5832 59.8667 34.3735C58.6084 33.8492 57.2453 33.6395 55.8821 33.8492C55.253 33.954 54.6238 33.954 53.9947 34.1638C53.5753 34.2337 53.1558 34.3385 52.7364 34.4783C51.8975 34.688 51.1635 34.8978 50.3247 35.0026C49.9052 35.0725 49.4858 35.1075 49.0664 35.1075C47.5984 35.0026 46.1304 34.5832 45.0818 33.7443C44.8721 33.6395 44.7672 33.3249 44.5575 33.1152C44.3478 32.6957 44.2429 32.1715 44.3478 31.6472C44.4526 31.1229 44.6624 30.7034 44.8721 30.3889C44.942 30.319 44.9769 30.284 44.9769 30.284C45.2915 29.7597 45.8158 29.3403 46.2352 28.9209C46.4449 28.6063 46.6547 28.2917 46.7595 28.082C47.2488 27.383 47.5984 26.649 47.8081 25.88C48.3324 24.3071 48.4372 22.7343 48.1227 21.1614C47.9129 20.008 47.7032 18.54 49.0664 17.7011C49.5907 17.3865 50.2198 17.3865 50.7441 17.2817C51.583 17.1768 52.4218 17.4914 53.051 17.9108C54.3093 18.6448 55.253 19.5885 55.3578 21.0565C55.4627 21.7905 55.3578 22.4197 54.9384 23.0488C54.519 23.7828 53.8898 24.2023 53.1558 24.5168C51.3732 25.3557 49.6955 26.2994 48.6469 27.9771C48.0178 29.0257 48.1227 30.3889 48.5421 31.4375C49.0664 32.5909 50.0101 33.7443 51.2684 33.8492C52.4218 34.0589 53.5753 33.5346 54.4141 32.8006C55.1481 32.1715 55.4627 31.1229 54.8336 30.1792C54.6238 29.8646 53.8898 29.55 53.4704 29.6549C53.4704 29.6549 53.4355 29.6898 53.3655 29.7597C53.3655 29.7597 53.3655 29.8646 53.4704 29.9694C53.6801 30.1792 53.9947 30.4937 53.8898 30.8083C53.8898 31.2277 53.4704 31.4375 53.051 31.5423C52.2121 31.5423 50.5344 30.7034 51.1635 29.7597C51.8975 28.816 53.8898 28.2917 54.8336 27.9771C56.0918 27.5577 57.455 27.1383 58.5036 26.2994C59.7619 25.3557 60.8104 24.5168 61.3347 22.944C61.6493 21.7905 61.6493 20.5323 61.5444 19.3788C61.3347 18.4351 60.9153 17.3865 60.391 16.5477C58.8181 14.1359 55.8821 12.9825 53.1558 12.6679C52.2471 12.598 51.3383 12.598 50.4295 12.6679C48.8567 12.7728 47.1789 13.1922 46.0255 14.2408C44.9769 15.0797 44.3478 16.3379 44.0332 17.7011C43.8934 18.3302 43.8235 18.9943 43.8235 19.6934C43.9284 20.4274 43.8235 21.0565 43.7186 21.7905C43.4041 24.3071 42.3555 26.8237 40.6778 28.7112C40.3282 29.1306 39.9787 29.55 39.6292 29.9694C39.3496 30.1792 39.0699 30.3889 38.7903 30.5986C38.6855 30.7034 37.9515 31.2277 37.7417 31.2277C37.6019 31.2277 37.532 31.1928 37.532 31.1229C37.532 30.9132 37.6369 30.8083 37.7417 30.7034C38.6855 29.7597 39 28.1869 39 26.9286C39 26.579 39.035 26.2295 39.1049 25.88C38.8253 26.1596 38.4757 26.3693 38.0563 26.5091C37.8466 26.649 37.6369 26.7189 37.4272 26.7189C37.4272 26.614 37.4272 26.614 37.532 26.614C38.0563 26.2994 38.4757 25.88 38.8952 25.3557C39.1049 25.0411 39.2098 24.8314 39.3146 24.412C39.4195 24.0974 39.4195 23.9926 39.3146 23.678C39 23.8877 38.4758 23.8877 38.266 24.0974C38.1961 24.1673 38.1612 24.2372 38.1612 24.3071C38.0563 25.0411 37.2175 25.88 36.3786 25.5654C36.064 25.3557 35.8543 25.0411 35.8543 24.7266C35.7844 25.0761 35.7145 25.4256 35.6446 25.7751C35.5397 26.4043 35.7494 27.1383 35.9592 27.7674C36.064 28.082 36.2737 28.2917 36.4835 28.6063C36.064 28.5014 35.6446 28.082 35.4349 27.7674C35.0154 27.1383 34.8407 26.4392 34.9106 25.6703C34.9106 24.9363 35.2252 24.3071 35.7494 23.8877C36.4835 23.2586 37.3223 22.944 38.1612 22.7343C38.8952 22.6294 40.0486 22.6294 40.5729 22.0003C40.9923 21.3711 41.0972 20.5323 41.0972 19.7982C41.237 18.8196 41.237 17.806 41.0972 16.7574C41.0273 15.6389 40.8525 14.5204 40.5729 13.4019C40.2583 12.7728 40.0486 12.0388 39.6292 11.4096C39.2098 10.7805 38.6855 10.2562 38.1612 9.73191C37.6369 9.10276 36.9029 8.47362 36.1689 8.05419C34.9106 7.11047 33.4426 6.27161 31.7649 6.16675C31.7649 6.16675 31.7299 6.16675 31.66 6.16675C31.5901 6.16675 31.5202 6.16675 31.4503 6.16675C31.3804 6.16675 31.3105 6.16675 31.2406 6.16675C29.5628 6.27161 28.0948 7.11047 26.8365 8.05419C26.1025 8.47362 25.3685 9.10276 24.7394 9.73191C24.32 10.2562 23.7957 10.7805 23.3762 11.4096C22.9568 12.0388 22.6422 12.7728 22.4325 13.4019C22.1529 14.5204 21.9432 15.6389 21.8034 16.7574C21.7335 17.806 21.7335 18.8196 21.8034 19.7982C21.9082 20.5323 22.0131 21.3711 22.4325 22.0003C22.9568 22.6294 24.0054 22.6294 24.7394 22.7343C25.6831 22.944 26.522 23.2586 27.1511 23.8877C27.6754 24.3071 28.0948 24.9363 28.0948 25.6703C28.1647 26.4392 27.99 27.1383 27.5705 27.7674C27.3608 28.082 26.9414 28.5014 26.522 28.6063C26.7317 28.2917 26.9414 28.082 27.0463 27.7674C27.256 27.1383 27.3608 26.4043 27.3608 25.7751C27.2909 25.4256 27.221 25.0761 27.1511 24.7266C27.0463 25.0411 26.9414 25.3557 26.6268 25.5654C25.788 25.88 24.9491 25.0411 24.8442 24.3071C24.8442 24.2372 24.8093 24.1673 24.7394 24.0974C24.5297 23.8877 23.9005 23.8877 23.586 23.678C23.586 23.9926 23.586 24.0974 23.6908 24.412C23.7957 24.8314 23.9005 25.0411 24.1102 25.3557C24.5297 25.88 24.9491 26.2994 25.4734 26.614C25.4734 26.614 25.4734 26.614 25.5783 26.7189C25.3685 26.7189 25.1588 26.649 24.9491 26.5091C24.5297 26.3693 24.1801 26.1596 23.9005 25.88C23.9704 26.2295 24.0054 26.579 24.0054 26.9286C24.0054 28.1869 24.32 29.7597 25.1588 30.7034C25.2637 30.8083 25.4734 30.9132 25.4734 31.1229C25.3685 31.3326 24.9491 31.1229 24.8442 31.018C24.6345 30.8782 24.4248 30.7384 24.2151 30.5986C23.9355 30.3889 23.6559 30.1792 23.3762 29.9694C23.0267 29.55 22.6772 29.1306 22.3277 28.7112C20.6499 26.8237 19.6014 24.3071 19.2868 21.7905C19.1819 21.0565 19.0771 20.4274 19.1819 19.6934C19.1819 18.9943 19.112 18.3302 18.9722 17.7011C18.6576 16.3379 18.0285 15.0797 16.9799 14.2408C15.8265 13.1922 14.1488 12.7728 12.5759 12.6679C11.6671 12.598 10.7584 12.598 9.8496 12.6679C7.1233 12.9825 4.18728 14.1359 2.61441 16.5477C2.09013 17.3865 1.67069 18.4351 1.46098 19.3788C1.35612 20.5323 1.35612 21.7905 1.67069 22.944C2.19498 24.5168 3.24356 25.3557 4.50185 26.2994C5.55043 27.1383 6.91358 27.5577 8.17187 27.9771C9.22045 28.2917 11.1079 28.816 11.8419 29.7597C12.471 30.7034 10.7933 31.5423 9.95445 31.5423C9.53502 31.4375 9.11559 31.2277 9.11559 30.8083C9.01073 30.4937 9.32531 30.1792 9.53502 29.9694C9.63988 29.8646 9.63988 29.7597 9.63988 29.7597C9.56998 29.6898 9.53502 29.6549 9.53502 29.6549C9.11559 29.55 8.38159 29.8646 8.17187 30.1792C7.54273 31.1229 7.8573 32.1715 8.5913 32.8006C9.43017 33.5346 10.5836 34.0589 11.737 33.8492C12.9953 33.7443 13.939 32.5909 14.4633 31.4375C14.8828 30.3889 14.9876 29.0257 14.3585 27.9771C13.3099 26.2994 11.6322 25.3557 9.8496 24.5168C9.11559 24.2023 8.48645 23.7828 8.06701 23.0488C7.64758 22.4197 7.54273 21.7905 7.64758 21.0565C7.75244 19.5885 8.69616 18.6448 9.95445 17.9108C10.5836 17.4914 11.4225 17.1768 12.2613 17.2817C12.7856 17.3865 13.4148 17.3865 13.939 17.7011C15.3022 18.54 15.0925 20.008 14.8828 21.1614C14.5682 22.7343 14.6731 24.3071 15.1973 25.88C15.4071 26.649 15.7566 27.383 16.2459 28.082C16.3508 28.2917 16.5605 28.6063 16.7702 28.9209C17.1896 29.3403 17.7139 29.7597 18.0285 30.284C18.0285 30.284 18.0634 30.319 18.1334 30.3889C18.3431 30.7034 18.5528 31.1229 18.6576 31.6472C18.7625 32.1715 18.6576 32.6957 18.4479 33.1152C18.2382 33.3249 18.1334 33.6395 17.9236 33.7443C16.3508 35.0026 14.2536 35.3172 12.2613 35.0026C10.4787 34.7929 8.80102 34.0589 7.01844 33.8492C5.02614 33.6395 2.92899 33.954 1.56584 35.422C0.936691 36.156 0.51726 37.0998 0.307545 38.0435C-0.426459 40.6649 0.202687 43.4961 1.67069 45.5932C3.24356 47.7953 5.76015 49.1584 8.38159 49.473C10.5836 49.6827 12.8905 48.9487 15.0925 48.2147C17.2945 47.4807 19.4965 46.6418 21.8034 46.3272C22.5723 46.2573 23.3413 46.2573 24.1102 46.3272C24.9491 46.3272 25.788 46.6418 26.3123 47.271C27.256 48.2147 27.5705 49.7875 26.8365 50.941C26.2074 51.8847 25.1588 52.3041 24.32 52.8284C24.2501 52.8284 24.1801 52.8634 24.1102 52.9333C24.1102 53.0032 24.1452 53.0381 24.2151 53.0381C24.9491 54.1916 26.1025 55.0304 27.256 55.4499C27.99 55.2401 28.6191 54.8207 29.1434 54.2964C31.1357 52.1993 31.2406 48.6341 30.0871 46.2224C29.8774 45.8729 29.6677 45.5233 29.458 45.1738C29.3881 45.1039 29.3531 45.069 29.3531 45.069C29.2832 44.9291 29.1784 44.8243 29.0386 44.7544C28.8288 44.4748 28.6191 44.2301 28.4094 44.0204C27.6754 43.4961 26.9414 43.1815 26.1025 42.7621C25.2637 42.4126 24.3899 42.1679 23.4811 42.0281C20.1257 41.7135 16.8751 42.7621 13.939 44.1252C11.8419 45.0689 9.32531 45.6981 7.54273 44.4398C6.07472 43.3912 5.02614 41.5038 6.17958 39.8261C7.33301 38.1483 10.269 38.2532 12.0516 38.5678C13.4148 38.7775 14.6731 39.4066 16.0362 39.9309C17.5042 40.5601 19.0771 40.7698 20.6499 40.7698C22.3277 40.7698 24.0054 40.7698 25.6831 41.0844C26.522 41.2941 27.4657 41.6086 28.1997 42.1329C28.5143 42.3427 29.0386 42.6572 29.2483 42.9718C29.458 43.1815 29.6677 43.7058 29.8774 43.3912C30.0871 43.1116 30.2968 42.832 30.5066 42.5524C30.8211 42.2378 31.2406 41.7135 31.7649 41.8184C31.9746 41.9232 32.1843 42.1329 32.394 42.3427C33.4426 43.7058 34.8057 44.8592 35.9592 46.1175C37.3223 47.4807 38.266 49.0535 39.3146 50.6264C39.5243 51.0458 39.734 51.675 39.8389 52.1993C39.8389 52.3391 39.8389 52.4439 39.8389 52.5138C39.769 52.7236 39.6991 52.9333 39.6292 53.143C39.4195 53.6673 39.1049 54.1916 38.6855 54.611C38.1612 55.0304 37.532 55.345 37.0077 55.7644C36.5184 56.0441 36.064 56.3586 35.6446 56.7082C34.9106 57.4422 34.2814 58.3859 34.0717 59.3296C33.9669 60.483 34.1766 61.6365 34.9106 62.4753C35.6446 63.2093 36.6932 63.6288 37.6369 63.8385C38.3709 63.9433 39.2098 64.0482 39.8389 63.6288C40.2583 63.419 40.6778 62.9996 40.8875 62.5802C41.2021 62.0559 40.8875 61.1122 40.0486 61.6365C39.8389 61.8462 39.6292 62.1608 39.3146 62.3705C37.9515 63.3142 37.9515 61.3219 38.3709 60.5879C39 59.749 40.2583 59.1199 41.2021 58.5956C43.4041 57.4422 45.0818 55.345 45.2915 52.8284C45.3614 52.2692 45.3614 51.7099 45.2915 51.1507C45.2915 51.0808 45.2915 51.0109 45.2915 50.941C45.2915 50.8711 45.2915 50.8012 45.2915 50.7313C45.2915 50.6614 45.2565 50.6264 45.1866 50.6264C45.1866 50.4866 45.1866 50.3817 45.1866 50.3118C45.1866 50.2419 45.1866 50.207 45.1866 50.207C44.7672 48.8438 44.0332 47.6904 43.2992 46.4321C42.7749 45.6981 42.2506 44.8592 41.6215 44.1252C41.0972 43.4961 40.468 42.7621 40.5729 41.9232C40.5729 41.5038 40.8875 41.0844 41.4118 40.9795C41.7263 40.8746 42.1458 40.7698 42.5652 40.7698C44.0332 40.8746 45.5012 40.4552 46.9692 39.9309C48.3324 39.4066 49.5907 38.7775 50.9538 38.5678C51.583 38.4629 52.317 38.3581 53.051 38.3581C54.519 38.3581 55.987 38.7775 56.721 39.8261C57.8744 41.5038 56.8258 43.3912 55.3578 44.4398C55.2879 44.4398 55.253 44.4748 55.253 44.5447C55.1831 44.5447 55.1481 44.5447 55.1481 44.5447C55.0782 44.6146 55.0083 44.6495 54.9384 44.6495C54.8685 44.7194 54.8336 44.7544 54.8336 44.7544C54.6937 44.8243 54.5539 44.8592 54.4141 44.8592C54.4141 44.9291 54.4141 44.9641 54.4141 44.9641C54.3442 44.9641 54.2743 44.9641 54.2044 44.9641C54.1345 44.9641 54.0995 44.9641 54.0995 44.9641C53.8898 45.034 53.6452 45.1039 53.3655 45.1738C51.8975 45.2787 50.3247 44.7544 48.9615 44.1252C47.9129 43.6359 46.7945 43.2165 45.6061 42.8669C44.9769 42.6572 44.4526 42.4475 43.8235 42.3427C43.6138 42.2378 42.5652 41.9232 42.4603 42.2378C42.3555 42.4475 42.5652 42.5524 42.6701 42.6572C42.8099 42.9368 42.9497 43.1815 43.0895 43.3912C43.5089 43.8806 43.8584 44.4049 44.1381 44.9641C44.4177 45.3835 44.6973 45.803 44.9769 46.2224C45.1167 46.4321 45.2565 46.6418 45.3964 46.8515C45.8158 47.4807 46.4449 47.9001 47.0741 48.1098C47.9129 48.3894 48.7868 48.6341 49.6955 48.8438C50.6043 49.1234 51.5131 49.3332 52.4218 49.473C53.1209 49.5429 53.785 49.5429 54.4141 49.473C57.1404 49.2633 59.657 47.7953 61.2299 45.5932C61.2998 45.4534 61.4046 45.2787 61.5444 45.069C62.3833 43.7058 62.8027 42.1329 62.9076 40.5601C62.9076 39.7212 62.8027 38.8823 62.6979 38.0435Z" fill="white"/>
<path d="M27.1512 56.7084C26.7318 56.3588 26.3124 56.0443 25.8929 55.7647C25.2638 55.3452 24.6346 55.0306 24.2152 54.6112C23.5861 53.9821 23.0618 53.3529 23.0618 52.5141C22.8521 51.6752 23.2715 50.8363 23.7958 49.9975C24.0055 49.648 24.2502 49.2635 24.5298 48.844C24.7395 48.6343 25.1589 48.3198 25.0541 48.0052C25.0541 47.4809 24.3201 47.4809 24.0055 47.4809C23.2365 47.411 22.4676 47.411 21.6986 47.4809C20.8598 47.5858 19.8112 47.6906 19.0772 48.11C18.6577 48.3198 18.1335 48.844 17.9237 49.3683C17.714 49.9276 17.5742 50.5218 17.5043 51.1509C17.2946 53.0384 17.9237 54.8209 19.0772 56.3938C19.7063 57.3375 20.65 58.0715 21.5938 58.5958C22.5375 59.1201 23.7958 59.7492 24.4249 60.5881C24.9492 61.3221 24.9492 63.3144 23.4812 62.3707C23.1666 62.161 23.0618 61.8464 22.7472 61.6367C21.9083 61.1124 21.5938 62.0561 21.9083 62.5804C22.1181 62.9998 22.5375 63.4193 22.9569 63.629C23.5861 64.0484 24.4249 63.9436 25.1589 63.8387C26.2075 63.629 27.1512 63.2096 27.8852 62.4755C28.6192 61.6367 28.9338 60.4833 28.7241 59.3298C28.5144 58.3861 27.8852 57.4424 27.1512 56.7084Z" fill="white"/>
<path d="M19.2871 58.5957C19.0773 58.2811 18.8676 58.0714 18.6579 57.7568C18.5181 57.5471 18.3783 57.3723 18.2385 57.2325C18.0288 56.9179 17.9239 56.8131 17.6093 56.8131C17.1899 56.8131 16.8753 57.0228 16.4559 57.1277C15.7219 57.2325 14.883 57.1276 14.3587 56.7082C13.7296 56.1839 13.6247 55.2402 14.0442 54.7159C14.2539 54.4014 14.5685 54.2965 14.883 54.2965C15.1976 54.4014 15.5122 54.6111 15.5122 55.0305C15.5122 55.1703 15.4423 55.3101 15.3025 55.4499C15.3025 55.4499 15.1976 55.5548 15.1976 55.6596C15.1976 55.7295 15.2326 55.7645 15.3025 55.7645C15.7219 56.2888 16.351 55.6596 16.5608 55.2402C16.8753 54.6111 16.8753 53.7722 16.5608 53.2479C16.4908 53.1081 16.4209 53.0032 16.351 52.9333C16.2112 52.7935 16.0714 52.6537 15.9316 52.5139C15.5122 52.1993 14.9879 52.0945 14.3587 52.0945C13.7995 52.0945 13.2752 52.2343 12.7859 52.5139C12.5762 52.6537 12.3664 52.8285 12.1567 53.0382C11.7373 53.4576 11.4227 53.8771 11.3179 54.4014C11.3179 54.4713 11.3179 54.5412 11.3179 54.6111C11.248 54.6111 11.213 54.6111 11.213 54.6111C10.8984 55.9742 11.6324 57.7568 12.4713 58.7005C13.5199 59.6442 15.617 60.2734 17.085 60.0637C17.7142 59.9938 18.3433 59.819 18.9725 59.5394C19.1822 59.4345 19.6016 59.3297 19.6016 59.1199C19.7065 58.9102 19.4968 58.7005 19.2871 58.5957Z" fill="white"/>
<path d="M43.5089 58.5958C43.7186 58.3861 43.9283 58.0715 44.1381 57.8618C44.1381 57.7919 44.1381 57.7569 44.1381 57.7569C44.2779 57.6171 44.4177 57.4423 44.5575 57.2326C44.7672 57.0229 44.8721 56.9181 45.1866 56.9181C45.6061 56.9181 46.0255 57.1278 46.3401 57.1278C47.0741 57.2326 47.9129 57.2326 48.5421 56.7083C49.0664 56.2889 49.1712 55.3452 48.7518 54.716C48.5421 54.5063 48.2275 54.2966 47.9129 54.4015C47.5984 54.4015 47.2838 54.716 47.2838 55.0306C47.2838 55.1704 47.3537 55.3102 47.4935 55.4501C47.4935 55.5549 47.5984 55.6598 47.5984 55.7646C47.5984 55.7646 47.5984 55.7996 47.5984 55.8695C47.0741 56.3938 46.4449 55.7646 46.2352 55.2403C45.9206 54.716 45.9206 53.8772 46.2352 53.3529C46.3051 53.2131 46.375 53.0733 46.4449 52.9335C46.5847 52.8636 46.7245 52.7587 46.8644 52.6189C47.2838 52.3043 47.9129 52.1995 48.4372 52.1995C48.9965 52.1995 49.5208 52.3393 50.0101 52.6189C50.2198 52.7587 50.4295 52.9335 50.6392 53.1432C51.0587 53.5626 51.3732 53.982 51.4781 54.5063C51.4781 54.5762 51.513 54.6112 51.583 54.6112C51.8975 56.0792 51.1635 57.8618 50.3247 58.7006C49.2761 59.7492 47.1789 60.3784 45.7109 60.1687C45.0818 60.0987 44.4526 59.924 43.8235 59.6444C43.6138 59.5395 43.1943 59.4346 43.1943 59.1201C43.1943 58.9104 43.4041 58.8055 43.5089 58.5958Z" fill="white"/>
<path d="M35.3301 55.5548C35.6446 55.5548 35.8543 55.2402 36.1689 55.1354C36.7981 54.7159 37.6369 54.2965 38.0564 53.6674C38.2661 53.3528 37.3224 52.6188 37.1126 52.3042C36.4835 51.5702 35.8543 50.6265 35.7495 49.5779C35.6446 49.0536 35.8543 48.6342 35.8543 48.2148C35.8543 47.7953 35.5398 47.4808 35.3301 47.1662C34.8407 46.6768 34.3514 46.1875 33.862 45.6982C33.6523 45.4885 33.4426 45.2787 33.2329 45.3836C33.0232 45.4885 33.0232 45.6982 32.9183 45.803C32.7785 46.1526 32.6387 46.5021 32.4989 46.8516C32.2892 47.4808 32.1843 48.1099 32.1843 48.7391C32.1843 49.9973 32.394 51.0459 32.9183 52.1994C33.1979 53.0382 33.6174 53.8072 34.1766 54.5062C34.3863 54.7159 34.5611 54.9257 34.7009 55.1354C34.8058 55.2402 34.9106 55.4499 35.1203 55.4499C35.1902 55.5199 35.2602 55.5548 35.3301 55.5548Z" fill="white"/>
<path fill-rule="evenodd" clip-rule="evenodd" d="M83.2501 39.9311C82.1316 39.9311 81.083 39.6514 80.1043 39.0922C79.1257 38.6029 78.3567 37.8689 77.7975 36.8902C77.1683 35.9115 76.8538 34.793 76.8538 33.5347C76.8538 32.3464 77.1683 31.2628 77.7975 30.2842C78.3567 29.3055 79.1257 28.5365 80.1043 27.9773C81.083 27.418 82.1316 27.1384 83.2501 27.1384C84.4385 27.1384 85.522 27.418 86.5007 27.9773C87.4793 28.5365 88.2483 29.3055 88.8075 30.2842C89.3668 31.2628 89.6464 32.3464 89.6464 33.5347C89.6464 34.793 89.3668 35.9115 88.8075 36.8902C88.2483 37.8689 87.4793 38.6029 86.5007 39.0922C85.522 39.6514 84.4385 39.9311 83.2501 39.9311ZM83.2501 37.2048C84.2987 37.2048 85.1026 36.8552 85.6618 36.1562C86.2909 35.527 86.6055 34.6532 86.6055 33.5347C86.6055 32.4862 86.2909 31.6124 85.6618 30.9133C85.1026 30.2842 84.2987 29.9696 83.2501 29.9696C82.2714 29.9696 81.4675 30.2842 80.8383 30.9133C80.2791 31.5425 79.9995 32.4163 79.9995 33.5347C79.9995 34.6532 80.2791 35.527 80.8383 36.1562C81.4675 36.8552 82.2714 37.2048 83.2501 37.2048ZM97.0913 33.5347C97.0913 32.3464 97.336 31.2628 97.8253 30.2842C98.3845 29.3055 99.1185 28.5715 100.027 28.0821C101.006 27.5229 102.09 27.2433 103.278 27.2433C104.816 27.2433 106.109 27.6278 107.158 28.3967C108.206 29.1657 108.905 30.2143 109.255 31.5425H105.899C105.62 31.0531 105.27 30.6686 104.851 30.389C104.361 30.1094 103.837 29.9696 103.278 29.9696C102.369 29.9696 101.6 30.3191 100.971 31.0182C100.412 31.6473 100.132 32.4862 100.132 33.5347C100.132 34.6532 100.412 35.527 100.971 36.1562C101.6 36.8552 102.369 37.2048 103.278 37.2048C103.837 37.2048 104.361 37.065 104.851 36.7853C105.27 36.5057 105.62 36.0863 105.899 35.527H109.255C108.905 36.9251 108.206 38.0087 107.158 38.7776C106.109 39.5466 104.816 39.9311 103.278 39.9311C102.09 39.9311 101.006 39.6514 100.027 39.0922C99.1185 38.533 98.3845 37.799 97.8253 36.8902C97.336 35.9115 97.0913 34.793 97.0913 33.5347ZM126.242 27.3481V29.7599H122.991V39.8262H119.95V29.7599H116.595V27.3481H126.242ZM139.873 39.9311C138.755 39.9311 137.706 39.6514 136.727 39.0922C135.749 38.6029 134.945 37.8689 134.316 36.8902C133.757 35.9115 133.477 34.793 133.477 33.5347C133.477 32.3464 133.757 31.2628 134.316 30.2842C134.945 29.3055 135.749 28.5365 136.727 27.9773C137.706 27.418 138.755 27.1384 139.873 27.1384C141.062 27.1384 142.145 27.418 143.124 27.9773C144.102 28.5365 144.871 29.3055 145.431 30.2842C145.99 31.2628 146.27 32.3464 146.27 33.5347C146.27 34.793 145.99 35.9115 145.431 36.8902C144.871 37.8689 144.102 38.6029 143.124 39.0922C142.145 39.6514 141.062 39.9311 139.873 39.9311ZM139.873 37.2048C140.922 37.2048 141.726 36.8552 142.285 36.1562C142.914 35.527 143.229 34.6532 143.229 33.5347C143.229 32.4862 142.914 31.6124 142.285 30.9133C141.726 30.2842 140.922 29.9696 139.873 29.9696C138.895 29.9696 138.091 30.2842 137.462 30.9133C136.902 31.5425 136.623 32.4163 136.623 33.5347C136.623 34.6532 136.902 35.527 137.462 36.1562C138.091 36.8552 138.895 37.2048 139.873 37.2048ZM163.676 31.3327C163.676 32.1017 163.501 32.7658 163.152 33.325C162.802 33.9542 162.313 34.4435 161.684 34.793C160.985 35.1426 160.111 35.3173 159.062 35.3173H157.175V39.8262H154.134V27.3481H159.062C160.111 27.3481 160.95 27.5229 161.579 27.8724C162.278 28.222 162.802 28.7113 163.152 29.3404C163.501 29.8997 163.676 30.5638 163.676 31.3327ZM158.852 32.9056C159.412 32.9056 159.831 32.7658 160.111 32.4862C160.46 32.2765 160.635 31.892 160.635 31.3327C160.635 30.8434 160.46 30.4589 160.111 30.1793C159.831 29.9696 159.412 29.8647 158.852 29.8647H157.175V32.9056H158.852ZM174.476 37.5193H178.461V39.8262H171.54V27.3481H174.476V37.5193ZM193.875 37.7291H189.261L188.527 39.9311H185.381L189.89 27.453H193.351L197.86 39.9311H194.714L193.875 37.7291ZM193.036 35.3173L191.463 30.8084L189.995 35.3173H193.036ZM216 27.453L211.701 35.7368V39.9311H208.66V35.7368L204.361 27.453H207.821L210.233 32.591L212.644 27.453H216Z" fill="white"/>
</svg>
