<svg fill="none" height="43" viewBox="0 0 216 43" width="216" xmlns="http://www.w3.org/2000/svg"><g fill="#fff"><path d="m6.05684 39.3695v-31.44081l26.54126 13.26971-15.033 7.5171v-7.5171c0-.8032-.3191-1.5735-.887-2.1414-.568-.568-1.3382-.887-2.1414-.887s-1.5735.319-2.1414.887c-.568.5679-.8871 1.3382-.8871 2.1414v12.4173c.0001.5162.1321 1.0238.3834 1.4747.2514.4508.6139.8299 1.053 1.1013s.9403.426 1.4559.4492c.5157.0232 1.0287-.0858 1.4904-.3166l24.8328-12.4167c.503-.2516.926-.6382 1.2216-1.1166s.4522-1.0296.4522-1.592-.1566-1.1136-.4522-1.592-.7186-.865-1.2216-1.1166l-36.341-18.171102c-.46177-.2306772-.97483-.3395221-1.49048-.31620569-.51565.02331639-1.0168.17802069-1.45586.44943069-.439067.27141-.801491.650517-1.052875 1.101347s-.38338844.95843-.383485 1.47461v36.34102c.00000002.8032.319065 1.5735.887004 2.1414.567936.568 1.338226.887 2.141416.887s1.57348-.319 2.14142-.887c.56794-.5679.887-1.3382.887-2.1414z"/><path d="m74.4674 14.5892c-.3427-.8134-.9178-1.5076-1.6533-1.9956s-1.5986-.7482-2.4812-.7479h-12.3457c-.4961 0-.9718.1971-1.3226.5479s-.5479.8266-.5479 1.3227v14.9644c0 .4961.1971.9718.5479 1.3226s.8265.5479 1.3226.5479.9719-.1971 1.3227-.5479.5479-.8265.5479-1.3226v-4.3647h10.4751c.5896.0004 1.1736-.1154 1.7185-.3409.5448-.2254 1.0399-.5561 1.4568-.973.417-.417.7476-.9121.9731-1.4569.2255-.5449.3413-1.1288.3409-1.7185v-3.4917c.0001-.5998-.1206-1.1936-.3548-1.7458zm-3.3863 5.2375c.0008.0998-.0189.1987-.058.2906-.0573.1343-.1521.2493-.2731.3311-.1232.0829-.2686.1264-.4171.1247h-10.4751v-4.9863h10.4751c.0997-.0002.1985.0195.2905.058.1003.0426.1902.1063.2635.187.0733.0806.1283.1761.1612.28.0222.0723.0333.1476.033.2232z"/><path d="m164.001 20.0961c-.741-.5014-1.615-.769-2.51-.7682h-10.974c-.1.0008-.199-.0189-.29-.058-.135-.0574-.25-.1522-.331-.2731-.083-.1235-.126-.2688-.125-.4171v-2.2447c0-.0997.019-.1985.058-.2905.057-.1343.152-.2492.273-.3311.06-.0403.125-.0716.194-.0929.071-.0225.146-.0339.221-.0337h12.969c.496 0 .972-.1971 1.323-.5479s.548-.8265.548-1.3226-.197-.9719-.548-1.3227-.827-.5479-1.323-.5479h-12.969c-.59-.0004-1.173.1154-1.718.3409s-1.04.5561-1.457.9731c-.417.4169-.748.912-.973 1.4569-.226.5448-.342 1.1288-.341 1.7184v2.2447c-.001.5896.115 1.1736.341 1.7185.225.5448.556 1.0399.973 1.4568.417.417.912.7476 1.457.9731s1.128.3413 1.718.3409h10.974c.1-.0002.199.0195.291.058.1.0426.19.1063.263.187.073.0806.128.1761.161.28.022.0723.034.1476.033.2232v2.2447c.001.0998-.019.1987-.058.2905-.057.1344-.152.2493-.273.3311-.123.0829-.268.1264-.417.1247h-12.969c-.496 0-.972.1971-1.323.5479s-.548.8266-.548 1.3227.197.9719.548 1.3227.827.5478 1.323.5478h12.969c.59.0004 1.174-.1154 1.719-.3409.544-.2254 1.039-.5561 1.456-.973.417-.417.748-.9121.973-1.4569.226-.5449.342-1.1288.341-1.7185v-2.2428c.001-.7348-.179-1.4584-.524-2.1073s-.844-1.2031-1.453-1.6138z"/><path d="m141.522 12.3084c-.373-.3266-.861-.4914-1.356-.4583-.495.033-.957.2614-1.283.6348l-7.321 8.3669-7.323-8.3669c-.16-.188-.357-.3422-.578-.4536-.221-.1115-.461-.1781-.708-.1959s-.495.0135-.729.0921c-.235.0787-.451.203-.638.3659-.186.163-.338.3612-.447.5832-.109.2221-.173.4635-.188.7105-.015.2469.019.4943.1.728.082.2337.208.4489.373.6333l8.268 9.4469v4.2854c0 .4961.197.9719.547 1.3227.351.3508.827.5479 1.323.5479s.972-.1971 1.323-.5479.548-.8266.548-1.3227v-4.2854l8.266-9.4469c.162-.185.286-.4.364-.6327.079-.2328.111-.4788.095-.724-.017-.2451-.081-.4847-.19-.7048-.11-.2202-.261-.4168-.446-.5785z"/><path d="m190.507 14.5892c-.343-.814-.918-1.5086-1.655-1.9966-.736-.4881-1.6-.7479-2.483-.7469h-10.974c-.59-.0004-1.174.1154-1.718.3409-.545.2255-1.04.5561-1.457.9731-.417.4169-.748.912-.973 1.4569-.226.5448-.342 1.1288-.341 1.7184v9.7269c-.001.5896.115 1.1736.341 1.7185.225.5448.556 1.0399.973 1.4568.417.417.912.7476 1.457.9731.544.2255 1.128.3413 1.718.3409h10.974c.59.0004 1.174-.1154 1.718-.3409.545-.2255 1.04-.5561 1.457-.9731.417-.4169.748-.912.973-1.4568.226-.5449.342-1.1289.341-1.7185v-9.7269c.001-.5995-.118-1.1932-.351-1.7458zm-3.39 11.4727c0 .0997-.019.1985-.058.2905-.042.1003-.106.1902-.187.2635-.08.0733-.176.1283-.28.1612-.072.0222-.147.0333-.223.033h-10.974c-.1.0008-.199-.0189-.29-.058-.101-.0425-.191-.1063-.264-.1869-.073-.0807-.128-.1762-.161-.2801-.022-.0723-.033-.1476-.033-.2232v-9.7269c-.001-.0998.019-.1987.058-.2905.057-.1344.152-.2493.273-.3311.123-.0822.269-.1256.417-.1247h10.974c.1-.0003.199.0195.291.058.134.0574.249.1522.331.2731.04.0597.071.1251.093.1939.022.0716.033.1462.033.2213z"/><path d="m214.129 11.8457c-.496 0-.972.1971-1.322.5479-.351.3508-.548.8266-.548 1.3227v10.692l-13.072-12.0638c-.267-.2465-.6-.4099-.959-.4702-.358-.0603-.726-.015-1.059.1305s-.616.3849-.816.6888c-.199.3039-.305.6593-.306 1.0227v14.9644c0 .4961.197.9718.548 1.3226s.827.5479 1.323.5479.972-.1971 1.323-.5479c.35-.3508.547-.8265.547-1.3226v-10.6921l13.072 12.0669c.267.2465.6.4099.959.4702.358.0603.726.015 1.059-.1305s.617-.3848.816-.6888c.199-.3039.305-.6593.306-1.0226v-14.9675c0-.2457-.048-.4889-.142-.7159-.095-.2269-.232-.4331-.406-.6068s-.38-.3115-.607-.4055-.47-.1424-.716-.1424z"/><path d="m94.6499 26.8101h-11.2233v-13.0938c0-.4961-.197-.9719-.5478-1.3227s-.8266-.5479-1.3227-.5479-.9719.1971-1.3227.5479-.5479.8266-.5479 1.3227v14.9644c0 .4961.1971.9718.5479 1.3226s.8266.5479 1.3227.5479h13.0938c.4961 0 .9719-.1971 1.3227-.5479s.5479-.8265.5479-1.3226-.1971-.9719-.5479-1.3227-.8266-.5479-1.3227-.5479z"/><path d="m120.089 30.551c-.327.0002-.649-.0854-.932-.2483-.284-.1629-.52-.3974-.685-.6801l-7.112-12.1941-7.114 12.1947c-.25.4286-.66.7403-1.14.8665-.48.1263-.99.0569-1.419-.1931-.428-.25-.74-.6599-.866-1.1397s-.057-.99.193-1.4186l8.729-14.9644c.165-.2824.401-.5168.684-.6796.284-.1629.605-.2486.932-.2486s.648.0857.932.2486c.283.1628.519.3972.684.6796l8.729 14.9644c.166.2842.254.607.255.9359.001.329-.085.6524-.249.9376-.163.2853-.399.5223-.684.6872s-.608.2518-.937.252z"/></g></svg>