<svg width="216" height="44" viewBox="0 0 216 44" fill="none" xmlns="http://www.w3.org/2000/svg">
<path d="M102.386 0.195908C102.236 0.391489 102.229 0.481757 102.229 3.15971C102.229 5.83766 102.236 5.92793 102.386 6.12351L102.537 6.31909H106.434C110.112 6.31909 110.338 6.31157 110.45 6.18369C110.563 6.05581 110.578 5.73987 110.578 3.13714V0.23352L110.413 0.120685C110.262 0.0153721 109.758 0.000327427 106.396 0.000327427H102.537L102.386 0.195908Z" fill="#FFC003"/>
<path d="M145.708 0.150576C145.557 0.301023 145.557 0.398814 145.557 17.4896C145.557 34.5803 145.557 34.6781 145.708 34.8286C145.858 34.979 145.956 34.979 149.943 34.979C153.809 34.979 154.042 34.9715 154.155 34.8436C154.276 34.7157 154.283 33.3993 154.283 17.4745C154.283 0.880243 154.276 0.240845 154.148 0.128009C154.02 0.0151744 153.621 0.000129716 149.935 0.000129716C145.956 0.000129716 145.858 0.000129716 145.708 0.150576Z" fill="#FFC003"/>
<path d="M47.3532 3.94955C44.6301 4.33319 41.8995 5.34871 39.7933 6.75539C34.9113 10.0126 31.9775 15.2481 31.7669 21.0629C31.5413 27.3215 34.5652 33.1362 39.8685 36.6567C40.8464 37.3036 42.6292 38.1837 43.7801 38.5749C50.3471 40.8165 57.5159 39.1315 62.3828 34.1969C64.5493 32.0004 66.1365 29.2096 66.9113 26.2232C67.3777 24.4103 67.4303 23.9439 67.4379 21.7023C67.4379 19.8969 67.4153 19.5659 67.2573 18.6933C66.4299 14.0972 64.0227 10.1555 60.3368 7.37974C58.0575 5.66465 55.6127 4.61904 52.5812 4.04734C51.5131 3.85176 48.459 3.79159 47.3532 3.94955ZM52.1525 9.3205C57.1322 10.4037 60.9085 14.1799 61.9992 19.1823C62.1496 19.8743 62.1647 20.1828 62.1647 21.7023C62.1647 23.2143 62.1496 23.5302 61.9992 24.1997C61.6983 25.5688 61.0965 27.1334 60.5098 28.0812L60.2841 28.4423L58.1779 25.1926C57.0269 23.4023 56.0716 21.9129 56.0566 21.8753C56.0415 21.8452 56.8765 21.8151 57.9146 21.8151H59.8027V21.2585C59.8027 20.1 59.3965 18.4827 58.7947 17.249C57.3429 14.2702 54.522 12.1715 51.2347 11.6223C50.3095 11.4644 48.4289 11.502 47.5789 11.69C45.8487 12.0737 44.3142 12.8334 43.0053 13.9467C42.727 14.1875 42.4787 14.368 42.4637 14.3529C42.4486 14.3379 42.1929 13.8414 41.8995 13.2396L41.3654 12.1639L41.5761 11.9834C42.0199 11.6148 43.3739 10.7347 43.9606 10.4413C45.1793 9.83202 46.3979 9.43334 47.7594 9.21519C48.7373 9.05722 51.1896 9.1174 52.1525 9.3205ZM41.215 18.2345C42.2982 20.2204 43.1783 21.8678 43.1783 21.8903C43.1783 21.9204 42.3283 21.9279 41.2902 21.9054L39.3946 21.8678L39.4548 22.462C39.6804 24.982 40.6809 27.1334 42.4336 28.8861C43.8628 30.3229 45.5704 31.2406 47.6391 31.6844C48.6546 31.895 50.49 31.9176 51.4754 31.722C53.2959 31.3534 55.1463 30.4508 56.3951 29.3149L56.7937 28.9463L57.3579 30.0897L57.9221 31.2406L57.4933 31.5791C53.6494 34.588 48.3762 35.1447 44.0735 32.9933C37.7697 29.8414 35.2272 22.3266 38.349 16.0605C38.695 15.3609 39.1839 14.5561 39.2216 14.6012C39.2366 14.6162 40.1318 16.2561 41.215 18.2345Z" fill="#FFC003"/>
<path d="M169.403 8.05673C167.793 8.23727 166.191 8.71118 164.702 9.44084C163.069 10.2382 161.926 11.0807 160.64 12.4272C158.624 14.541 157.375 17.1212 156.946 20.085C156.781 21.266 156.833 23.312 157.067 24.478C157.902 28.6905 160.564 32.2335 164.371 34.2194C166.417 35.2876 168.576 35.8066 170.915 35.8066C173.187 35.7991 175.278 35.3177 177.241 34.3323C178.114 33.896 178.174 33.896 178.219 34.3924C178.249 34.6482 178.31 34.8137 178.4 34.8814C178.505 34.9566 179.303 34.9792 182.417 34.9792C186.088 34.9792 186.313 34.9717 186.426 34.8438C186.547 34.7159 186.554 33.6929 186.554 21.6421V8.57578L186.374 8.46294C186.223 8.35763 185.719 8.3501 182.342 8.36515L178.49 8.38772L178.347 8.56825C178.234 8.70365 178.204 8.86162 178.204 9.26031C178.204 9.53863 178.167 9.79439 178.129 9.81696C178.084 9.83953 177.64 9.65899 177.129 9.41075C174.759 8.25231 171.983 7.76336 169.403 8.05673ZM173.315 15.6016C174.556 15.8273 175.526 16.3313 176.406 17.2265C177.798 18.6256 178.453 20.604 178.204 22.6802C177.821 25.99 175.436 28.2091 172.254 28.2166C170.456 28.2241 169.027 27.6524 167.718 26.4112C166.853 25.5838 166.244 24.5307 165.943 23.3647C165.762 22.6425 165.74 21.281 165.905 20.5137C166.191 19.1522 167.086 17.7455 168.207 16.888C169.674 15.7596 171.547 15.2857 173.315 15.6016Z" fill="#FFC003"/>
<path d="M13.653 8.16197C12.2088 8.3726 10.599 8.8766 9.31266 9.52352C8.38741 9.9899 8.3498 9.98238 8.3498 9.33546C8.3498 8.92925 8.31971 8.77881 8.19183 8.62084L8.04138 8.42526H4.16738C0.398684 8.42526 0.293371 8.43278 0.150447 8.5757C0 8.72615 0 8.82394 0 26.1629C0 42.9678 0.00752234 43.6148 0.135402 43.7276C0.263282 43.8404 0.654443 43.8555 4.18994 43.8555C7.88341 43.8555 8.10908 43.8479 8.22192 43.7201C8.33475 43.5922 8.3498 43.1484 8.3498 38.8832C8.3498 35.4681 8.37236 34.1592 8.43254 34.099C8.50024 34.0313 8.72591 34.114 9.33522 34.4149C10.3583 34.934 11.6521 35.3778 12.8632 35.6336C13.7283 35.8216 13.9464 35.8367 15.6089 35.8442C17.2036 35.8442 17.512 35.8216 18.2793 35.6712C24.0113 34.5127 28.3517 30.2551 29.4876 24.6886C30.2172 21.1079 29.4725 17.3994 27.4189 14.3303C25.1547 10.9452 21.6794 8.77128 17.5947 8.1695C16.6244 8.02657 14.6159 8.02657 13.653 8.16197ZM15.2102 15.6843C16.677 15.8047 18.4147 16.7675 19.4076 18.0012C19.874 18.5729 20.4909 19.8066 20.6488 20.461C21.4537 23.8536 19.4076 27.2161 15.9774 28.1413C15.1049 28.382 13.5853 28.382 12.7654 28.1488C11.3286 27.7351 10.2078 26.9152 9.40292 25.674C8.71087 24.6209 8.3498 23.3646 8.3498 22.0256C8.3498 20.0774 8.91397 18.6255 10.1552 17.3693C10.8773 16.6396 11.5543 16.2034 12.4269 15.91C12.976 15.7294 14.1044 15.5715 14.5181 15.6166C14.6234 15.6317 14.9318 15.6617 15.2102 15.6843Z" fill="#FFC003"/>
<path d="M83.8213 8.1695C82.3846 8.3726 80.8124 8.86907 79.481 9.52352C78.5557 9.98238 78.5331 9.97486 78.5331 9.33546C78.5331 8.92925 78.5031 8.77881 78.3752 8.62084L78.2247 8.42526H74.3658C71.0033 8.42526 70.4993 8.4403 70.3488 8.54561L70.1833 8.65845V26.1328C70.1833 42.9678 70.1909 43.6148 70.3188 43.7276C70.4466 43.8404 70.8303 43.8555 74.3282 43.8555C76.457 43.8555 78.2323 43.8254 78.2774 43.7953C78.5256 43.6373 78.5331 43.4192 78.5331 38.7478C78.5331 35.8743 78.5632 34.0689 78.6084 34.0388C78.646 34.0163 78.9544 34.1441 79.3004 34.3322C80.6544 35.0543 82.5049 35.6185 84.1147 35.8066C85.3559 35.957 87.4396 35.8667 88.598 35.626C93.3145 34.6256 97.0983 31.5188 98.866 27.186C99.9267 24.6058 100.175 21.7774 99.5806 19.0393C99.2271 17.3844 98.3545 15.406 97.354 13.9918C96.6921 13.0515 94.9544 11.3138 94.0292 10.6669C92.1486 9.34298 90.0574 8.508 87.7706 8.1695C86.8002 8.02657 84.8068 8.01905 83.8213 8.1695ZM86.0329 15.8047C88.237 16.3087 90.0273 18.0012 90.7344 20.2353C90.8848 20.7243 90.9074 20.9499 90.9074 21.9655C90.9074 23.2894 90.8021 23.7633 90.2605 24.8315C89.0268 27.2988 86.1608 28.728 83.4302 28.2541C81.0682 27.8404 79.2779 26.1103 78.6685 23.6429C78.4354 22.7027 78.4354 21.2208 78.6685 20.2729C78.992 18.9791 79.7894 17.6853 80.7522 16.9029C81.2562 16.4967 82.3545 15.9401 82.9337 15.7971C83.874 15.5715 85.0174 15.5715 86.0329 15.8047Z" fill="#FFC003"/>
<path d="M126.902 8.1695C125.465 8.38764 123.818 8.91421 122.554 9.54608C121.666 9.9899 121.636 9.98238 121.636 9.29033C121.636 8.35003 122.012 8.42526 117.461 8.42526C113.685 8.42526 113.58 8.43278 113.437 8.5757C113.286 8.72615 113.286 8.82394 113.286 26.1404C113.286 43.4568 113.286 43.5546 113.437 43.705C113.58 43.8479 113.685 43.8555 117.461 43.8555C121.237 43.8555 121.343 43.8479 121.486 43.705C121.636 43.5546 121.636 43.4568 121.636 38.823C121.636 34.934 121.651 34.084 121.734 34.0539C121.794 34.0313 122.02 34.114 122.245 34.2419C123.351 34.8512 124.796 35.3627 126.27 35.6636C127.263 35.8667 129.459 35.942 130.573 35.8066C136.899 35.0619 141.946 30.2024 142.887 23.9514C143.037 22.9735 143.03 21.0402 142.887 20.0172C141.984 13.8639 137.147 9.08722 130.881 8.1695C129.881 8.01905 127.887 8.02657 126.902 8.1695ZM128.542 15.6843C131.009 15.9175 133.326 18.0162 133.943 20.5814C134.131 21.3336 134.108 22.7327 133.905 23.5075C133.213 26.178 130.828 28.1338 128.023 28.3369C124.713 28.5701 121.952 26.1178 121.644 22.665C121.576 21.8827 121.651 20.8221 121.824 20.1526C122.238 18.5353 123.366 17.0835 124.796 16.3011C125.638 15.8423 126.954 15.5414 127.804 15.6166C127.947 15.6317 128.286 15.6617 128.542 15.6843Z" fill="#FFC003"/>
<path d="M102.386 8.54574L102.229 8.74884L102.244 21.7474C102.266 34.1142 102.274 34.7536 102.402 34.8814C102.529 35.0093 102.793 35.0168 106.449 35.0168C110.24 35.0168 110.368 35.0093 110.473 34.8739C110.563 34.746 110.578 32.8203 110.578 21.6572V8.58335L110.413 8.47051C110.262 8.3652 109.758 8.35016 106.396 8.35016H102.537L102.386 8.54574Z" fill="#FFC003"/>
<path d="M189.345 8.59832C189.247 8.64346 189.127 8.74125 189.089 8.81647C189.029 8.90674 190.007 11.6599 193.437 21.0403C195.874 27.69 197.883 33.2189 197.898 33.3243C197.913 33.4446 197.273 35.4531 196.303 38.3417C195.408 40.997 194.678 43.2312 194.678 43.3139C194.678 43.3891 194.738 43.5095 194.814 43.5772C194.941 43.69 195.355 43.7051 199.244 43.7051C203.231 43.7051 203.539 43.6976 203.652 43.5697C203.712 43.502 204.57 41.155 205.548 38.3642C206.526 35.5734 209.294 27.8254 211.694 21.1456C215.387 10.8851 216.057 8.98196 215.996 8.80895L215.929 8.61337L211.784 8.5908C207.91 8.57576 207.632 8.58328 207.526 8.70364C207.466 8.77886 206.405 11.8028 205.179 15.4211C203.923 19.1146 202.885 22.0407 202.817 22.0934C202.659 22.2213 202.389 22.2138 202.276 22.0784C202.231 22.0182 201.08 18.9792 199.726 15.3308C197.627 9.67402 197.236 8.67355 197.078 8.59832C196.942 8.5231 195.987 8.50053 193.211 8.50053C190.436 8.50053 189.48 8.5231 189.345 8.59832Z" fill="#FFC003"/>
</svg>
