<svg width="245" height="33" viewBox="0 0 245 33" fill="none" xmlns="http://www.w3.org/2000/svg">
<g clip-path="url(#clip0_160_3632)">
<path d="M0 10.7132C0.105108 10.7078 0.210793 10.6982 0.3159 10.6982C2.96092 10.6976 5.60593 10.6778 8.25037 10.7072C9.31357 10.7192 10.3976 10.7264 11.4342 10.9369C13.3354 11.323 14.4517 12.6498 14.9409 14.5547C15.1459 15.3539 15.1228 16.1747 14.9894 16.986C14.8404 17.8889 14.3582 18.5772 13.6363 19.0875C13.3516 19.2889 13.0507 19.4652 12.7342 19.6673C12.8462 19.7188 12.9513 19.7674 13.057 19.8154C14.8739 20.6386 15.9082 22.5117 15.7425 24.558C15.6524 25.669 15.3902 26.6919 14.711 27.5721C13.8465 28.6921 12.6857 29.2898 11.3551 29.5507C10.8486 29.6496 10.3254 29.6922 9.80966 29.694C6.66451 29.7066 3.51995 29.7006 0.374807 29.6994C0.250064 29.6994 0.125898 29.6898 0.00115503 29.6844C0.00115503 28.6471 0.00115503 27.6098 0.00115503 26.572H1.36929V13.8244H0C0 12.7878 0 11.7505 0 10.7132ZM5.22881 26.5426C5.25884 26.5606 5.27502 26.5786 5.29119 26.5786C6.77078 26.5786 8.25557 26.6553 9.72938 26.5534C11.418 26.4371 12.4674 24.5184 11.7703 22.9541C11.302 21.9025 10.4005 21.4756 9.35689 21.3743C8.67195 21.3077 7.97547 21.3527 7.28476 21.3635C6.60503 21.3737 5.9253 21.4036 5.22881 21.4252V26.542V26.5426ZM5.22766 18.3914C5.37435 18.3914 5.4887 18.3914 5.60304 18.3914C6.66047 18.3914 7.71848 18.3674 8.77475 18.4022C9.41637 18.4232 9.99157 18.2877 10.5084 17.8979C11.831 16.9002 11.7345 15.0236 10.289 14.2399C9.86856 14.0121 9.3667 13.8622 8.8943 13.8382C7.73407 13.7782 6.56922 13.8124 5.40669 13.81C5.35182 13.81 5.29696 13.8256 5.22881 13.8358V18.392L5.22766 18.3914Z" fill="#8989AE"/>
<path d="M241.056 -1.07767e-05C241.404 0.102517 241.766 0.170268 242.099 0.313567C243.705 1.00727 244.716 2.2478 244.951 4.03393C245.379 7.28063 242.908 9.46668 240.481 9.45768C237.832 9.44809 235.771 7.24945 235.865 4.50999C235.94 2.34972 237.544 0.441276 239.601 0.0629446C239.664 0.0515527 239.724 0.0209743 239.785 -0.000610352C240.208 -0.000610352 240.632 -0.000610352 241.055 -0.000610352L241.056 -1.07767e-05ZM236.642 4.70066C236.616 6.85733 238.3 8.63087 240.408 8.66744C242.436 8.70222 244.21 6.93647 244.237 4.85475C244.265 2.61593 242.599 0.804619 240.484 0.777038C238.39 0.749458 236.669 2.50801 236.642 4.70066Z" fill="#8989AE"/>
<path d="M158.975 26.2925C159.593 23.5087 160.191 20.8088 160.8 18.0663H159.433V15.2394H164.999V18.0574C164.68 18.0574 164.374 18.0711 164.069 18.0526C163.868 18.04 163.787 18.1119 163.736 18.3134C163.147 20.6505 162.548 22.9853 161.953 25.3206C161.605 26.6852 161.253 28.0493 160.915 29.4169C160.86 29.6417 160.766 29.7095 160.544 29.7071C159.495 29.6945 158.446 29.6933 157.398 29.7071C157.165 29.7101 157.065 29.6447 157.01 29.4031C156.318 26.3854 155.617 23.3702 154.917 20.3543C154.877 20.1828 154.833 20.0126 154.77 19.7559C154.398 21.424 154.047 23.0026 153.696 24.5813C153.332 26.2092 152.965 27.8352 152.61 29.4649C152.57 29.6513 152.501 29.7053 152.325 29.7041C151.228 29.6975 150.132 29.6963 149.034 29.7053C148.855 29.7065 148.785 29.6381 148.741 29.4691C147.778 25.7937 146.808 22.1213 145.855 18.4435C145.774 18.1311 145.657 18.0178 145.351 18.0514C145.088 18.0807 144.819 18.0574 144.538 18.0574V15.2471H150.11V18.049H148.747C149.388 20.8706 150.019 23.6418 150.649 26.4136C150.666 26.4154 150.683 26.4178 150.7 26.4196C150.794 25.9771 150.891 25.5352 150.981 25.0916C151.637 21.8814 152.294 18.6719 152.944 15.4606C152.98 15.2795 153.04 15.2136 153.224 15.2154C154.292 15.2238 155.359 15.2232 156.428 15.216C156.594 15.2148 156.662 15.2723 156.697 15.4408C157.424 18.9603 158.156 22.4786 158.889 25.9969C158.904 26.0701 158.93 26.1408 158.975 26.2925H158.975Z" fill="#8989AE"/>
<path d="M144.731 26.6984V29.8036C144.63 29.8036 144.529 29.8036 144.429 29.8036C143.255 29.8036 142.081 29.7916 140.908 29.812C140.617 29.8174 140.497 29.7359 140.416 29.4415C140.093 28.2663 139.735 27.1014 139.403 25.9286C139.347 25.7319 139.272 25.6636 139.07 25.6648C137.079 25.6732 135.088 25.6738 133.096 25.6648C132.881 25.6636 132.801 25.7385 132.743 25.9436C132.403 27.1451 132.049 28.3425 131.699 29.541C131.674 29.625 131.646 29.7077 131.62 29.7892H127.332V26.6996C127.716 26.6996 128.088 26.6859 128.459 26.705C128.66 26.7158 128.744 26.6403 128.804 26.4484C130.325 21.5799 131.852 16.7131 133.378 11.8464C133.478 11.525 133.566 11.1988 133.685 10.8847C133.716 10.8031 133.84 10.7072 133.922 10.7066C135.298 10.6958 136.673 10.7024 138.049 10.6946C138.236 10.6934 138.262 10.8049 138.306 10.9434C139.641 15.1225 140.978 19.3009 142.314 23.4793C142.628 24.4608 142.946 25.4405 143.247 26.4262C143.314 26.6475 143.416 26.7182 143.635 26.7056C143.988 26.6853 144.344 26.7002 144.731 26.7002L144.731 26.6984ZM136.017 14.4347C135.995 14.4359 135.973 14.4371 135.952 14.4383C135.166 17.1958 134.38 19.9532 133.588 22.7317H138.381C137.589 19.9532 136.803 17.194 136.017 14.4353V14.4347Z" fill="#8989AE"/>
<path d="M205.47 23.2689H195.461C195.572 25.2326 196.525 26.6919 197.942 27.0673C199.531 27.4882 200.914 26.8022 201.578 25.2457C201.61 25.1708 201.697 25.0719 201.763 25.0695C202.895 25.0239 204.027 24.9915 205.202 24.955C205.148 25.1792 205.113 25.3705 205.056 25.5539C204.274 28.0787 202.565 29.5009 200.093 29.9716C198.541 30.2666 197.023 30.1143 195.605 29.3552C193.761 28.3677 192.633 26.7741 192.144 24.7067C191.585 22.3456 191.785 20.0558 193.073 17.9855C194.563 15.5908 196.764 14.5829 199.47 14.9037C202.157 15.2221 203.887 16.8583 204.844 19.4317C205.265 20.5661 205.511 21.7352 205.484 22.9578C205.482 23.0459 205.477 23.1334 205.471 23.2683L205.47 23.2689ZM201.537 20.7184C201.477 19.0126 200.224 17.8122 198.6 17.8512C197.125 17.886 195.562 19.3034 195.573 20.6248C197.554 20.656 199.536 20.6872 201.537 20.7184Z" fill="#8989AE"/>
<path d="M31.1771 24.9555C30.9305 26.1702 30.4414 27.2111 29.6351 28.0787C28.5188 29.2802 27.1253 29.8678 25.5446 30.0465C24.0292 30.2173 22.5889 29.9823 21.2681 29.1783C19.5188 28.1128 18.4891 26.4952 18.0635 24.4632C17.6021 22.2616 17.8238 20.1427 18.9292 18.1731C20.2569 15.8066 22.8465 14.5169 25.4614 14.8922C28.2075 15.2867 29.9389 16.9446 30.8768 19.5839C31.3301 20.8598 31.5334 22.1644 31.4428 23.2485H21.3929C21.4656 23.6424 21.5107 23.992 21.5961 24.3313C21.8924 25.5107 22.4462 26.5042 23.6076 26.9563C25.2743 27.6044 26.8977 26.8921 27.552 25.2625C27.5832 25.1845 27.6647 25.0742 27.7259 25.0718C28.8665 25.025 30.0082 24.9926 31.1777 24.9561L31.1771 24.9555ZM21.6302 20.6247C23.6151 20.6553 25.5989 20.6865 27.5786 20.7171C27.7241 19.344 26.4952 17.9956 25.0081 17.8535C23.4303 17.703 21.7382 19.0838 21.6302 20.6247Z" fill="#8989AE"/>
<path d="M169.943 19.8753C168.819 19.8441 167.71 19.813 166.578 19.7812C166.638 18.8272 166.898 17.9771 167.427 17.2264C168.191 16.1448 169.249 15.5338 170.487 15.2472C172.096 14.8749 173.698 14.9366 175.262 15.4792C177.178 16.1442 178.264 17.6599 178.298 19.8004C178.329 21.7112 178.265 23.6238 178.245 25.5359C178.239 26.0114 178.244 26.4874 178.244 26.9869H179.423V29.7875H175.049V28.2022C175.025 28.1872 175.002 28.1716 174.98 28.1566C174.821 28.3341 174.676 28.5272 174.502 28.6867C173.261 29.8241 171.794 30.2168 170.171 30.0615C168.965 29.9458 167.912 29.4763 167.033 28.5925C165.35 26.9005 165.189 23.3139 168.037 21.8551C169.109 21.3065 170.249 21.0061 171.421 20.8382C172.486 20.6853 173.558 20.5876 174.627 20.4647C174.722 20.4539 174.816 20.4353 174.945 20.4149C174.94 19.6691 174.897 18.9418 174.464 18.311C174.211 17.9447 173.842 17.7498 173.426 17.6623C172.819 17.534 172.207 17.5232 171.597 17.6515C170.646 17.8517 170.068 18.5203 169.976 19.5228C169.966 19.6301 169.956 19.7368 169.943 19.8765L169.943 19.8753ZM175.004 22.9427C174.243 23.0231 173.582 23.0752 172.926 23.1676C172.109 23.2821 171.291 23.4068 170.542 23.8055C169.808 24.1964 169.416 24.8752 169.487 25.633C169.567 26.4958 170.022 27.0648 170.843 27.3292C172.554 27.8814 174.407 26.8484 174.826 25.0418C174.978 24.3871 174.946 23.6862 175.003 22.9427H175.004Z" fill="#8989AE"/>
<path d="M78.3444 27.9534H80.3709V29.6735H76.2729V29.3414C76.2729 25.9898 76.2763 22.6381 76.2677 19.2871C76.2665 18.9214 76.2255 18.5496 76.1545 18.1911C75.9662 17.2438 75.3639 16.7377 74.4329 16.6952C73.3657 16.6466 72.541 17.1532 71.8549 17.9333C70.9696 18.9394 70.47 20.0941 70.5012 21.5031C70.5468 23.5471 70.5128 25.5922 70.5128 27.6374C70.5128 27.7567 70.5128 27.8754 70.5128 28.0355H72.5502V29.7839H66.5164V28.0553H68.5232V16.8792H66.5181V15.1453H70.6127C70.645 16.026 70.6768 16.8978 70.7114 17.8511C70.9863 17.4782 71.2069 17.161 71.4454 16.8588C72.2193 15.8779 73.1711 15.1806 74.404 14.9966C75.4141 14.8461 76.4051 14.8934 77.257 15.5865C77.8605 16.077 78.1504 16.7671 78.3438 17.5112C78.3704 17.6125 78.3958 17.7138 78.4241 17.8266C78.7181 17.3985 78.9751 16.9644 79.2887 16.58C80.3421 15.2886 81.6801 14.647 83.3197 14.891C84.8172 15.1141 85.736 16.1112 85.9618 17.6665C86.0288 18.1275 86.0646 18.5976 86.0658 19.0641C86.075 21.8971 86.0704 24.7295 86.0704 27.5624V27.9414H87.9837V29.6765H84.0722C84.0722 29.5584 84.0722 29.4421 84.0722 29.3258C84.0722 26.0042 84.0803 22.6825 84.063 19.3615C84.0607 18.8806 83.9862 18.3848 83.8528 17.9243C83.575 16.9686 82.8127 16.5027 81.8528 16.6004C80.6164 16.7263 79.772 17.4596 79.1194 18.4801C78.5945 19.3009 78.3132 20.1883 78.3329 21.204C78.3727 23.3181 78.345 25.4328 78.345 27.5475C78.345 27.6668 78.345 27.7855 78.345 27.954L78.3444 27.9534Z" fill="#8989AE"/>
<path d="M47.0241 22.0068H46.718C45.4671 22.0068 44.2162 22.002 42.9653 22.011C42.7366 22.0128 42.6685 21.9552 42.6962 21.7034C42.7476 21.2298 42.7545 20.7507 42.7811 20.2549H49.2135V29.6838H47.1581V26.8598C46.77 27.349 46.4298 27.8287 46.04 28.2586C45.112 29.2815 43.9454 29.8876 42.6217 30.0903C39.6504 30.5454 37.4345 29.2245 35.7701 26.7734C34.6901 25.1834 34.1606 23.3738 33.9989 21.4438C33.8106 19.1972 34.1051 17.0315 35.0459 14.9852C35.8931 13.1415 37.1088 11.6336 38.9424 10.7894C41.7427 9.50028 44.9601 10.2845 46.7619 13.1091C46.8075 13.1805 46.8555 13.2494 46.9404 13.3771C46.949 13.2122 46.9577 13.1181 46.9577 13.024C46.9588 12.2661 46.9629 11.5077 46.9554 10.7498C46.9537 10.5597 47.0027 10.483 47.1979 10.4878C47.7079 10.4992 48.2178 10.4938 48.7278 10.4902C48.8606 10.4896 48.9478 10.5112 48.9472 10.682C48.9415 12.6271 48.9397 14.5715 48.9363 16.5165C48.9363 16.5249 48.927 16.5333 48.908 16.5669C48.8531 16.5741 48.7803 16.5921 48.7076 16.5921C48.1786 16.5944 47.649 16.5861 47.12 16.5974C46.9323 16.6016 46.8641 16.5363 46.811 16.345C46.386 14.8041 45.5538 13.587 44.1654 12.8147C41.8051 11.5023 39.5927 12.3483 38.0877 14.2087C37.2456 15.2496 36.7946 16.4847 36.5723 17.8068C36.2263 19.8627 36.3124 21.8959 37.0146 23.8697C37.5003 25.2349 38.2465 26.4161 39.4344 27.2417C41.1029 28.4013 43.2316 28.2934 44.9162 26.9401C46.4293 25.7242 47.1142 24.0939 47.0553 22.1189C47.0547 22.0913 47.0409 22.0638 47.0247 22.0068H47.0241Z" fill="#8989AE"/>
<path d="M94.0644 27.1883V29.7797H90.0535V28.0655H91.9605V11.5982H90.1517V9.8396H94.0361V18.0484C94.0569 18.058 94.0777 18.067 94.099 18.0766C94.1458 18.0034 94.1937 17.9303 94.2399 17.8565C94.721 17.0867 95.3054 16.4193 96.036 15.8959C97.7801 14.647 99.9666 14.7531 101.593 16.1651C102.869 17.2731 103.589 18.7217 103.95 20.3741C104.438 22.6081 104.257 24.7678 103.173 26.7992C102.483 28.0895 101.54 29.1207 100.195 29.6759C98.4067 30.414 96.3427 29.8822 95.0369 28.3755C94.7123 28.0007 94.4074 27.608 94.0649 27.1889L94.0644 27.1883ZM93.9772 21.6662C94.0026 21.6686 94.028 21.6716 94.0534 21.674C94.0534 22.3209 94.0436 22.9685 94.0557 23.6154C94.0823 25.0502 94.5974 26.2614 95.6906 27.1553C96.7307 28.0061 97.8979 28.4132 99.2169 27.9414C100.367 27.5301 101.034 26.6175 101.45 25.4819C101.945 24.1305 102.017 22.7239 101.889 21.3041C101.793 20.2446 101.531 19.2289 100.949 18.329C99.8869 16.6885 97.9759 16.1939 96.3484 17.2174C94.7562 18.2187 93.8669 19.6714 93.9777 21.6662H93.9772Z" fill="#8989AE"/>
<path d="M60.7655 20.7651C60.7383 20.1368 60.7736 19.4712 60.6685 18.8303C60.4854 17.7109 59.73 17.1083 58.7182 16.8355C57.8947 16.6131 57.0607 16.6436 56.2343 16.8475C55.1855 17.1059 54.6144 17.8482 54.336 18.8813C54.3025 19.0042 54.2742 19.1289 54.2401 19.2686H52.0352C52.1929 18.7985 52.3084 18.3488 52.4903 17.9309C53.0054 16.7504 53.8538 15.917 55.0342 15.4733C56.7489 14.8287 58.4681 14.8479 60.1516 15.5662C61.6341 16.1988 62.412 17.4213 62.6366 19.0383C62.6886 19.4113 62.6978 19.7926 62.699 20.1703C62.7042 22.664 62.7019 25.157 62.7019 27.6506C62.7019 27.77 62.7019 27.8887 62.7019 28.0446H64.6597C64.7249 28.6381 64.7861 29.1987 64.8502 29.7827H60.8267V27.3245C60.7383 27.4384 60.6979 27.484 60.6656 27.5343C59.5983 29.2101 58.0754 30.0118 56.1604 30.1017C54.4642 30.1814 53.1411 29.4967 52.2194 28.0404C51.4663 26.8496 51.2752 25.5479 51.7909 24.1953C52.1853 23.161 53.0135 22.586 53.9456 22.1507C55.0308 21.6435 56.1817 21.3707 57.3518 21.195C58.4624 21.0283 59.5804 20.912 60.7655 20.7645V20.7651ZM60.8146 22.3228C60.7123 22.3228 60.6454 22.3132 60.5818 22.324C59.3055 22.5429 58.0246 22.7371 56.7558 22.9949C56.0039 23.1478 55.2733 23.408 54.649 23.9045C54.0854 24.353 53.8417 24.9663 53.874 25.6798C53.9456 27.2597 55.3397 28.5452 56.8696 28.4217C58.1898 28.315 59.2778 27.7118 60.0707 26.5978C60.5668 25.9011 60.8504 25.1246 60.8192 24.2367C60.7967 23.6029 60.8146 22.968 60.8146 22.3216V22.3228Z" fill="#8989AE"/>
<path d="M115.066 22.9644C115.218 24.4459 115.457 25.8465 116.397 27.0025C117.492 28.3474 119.642 28.7455 121.044 27.8521C121.698 27.4348 122.126 26.813 122.444 26.1085C122.544 25.8861 122.661 25.7998 122.9 25.8064C123.561 25.8231 124.223 25.8124 124.927 25.8124C124.832 26.0858 124.747 26.4083 124.612 26.7063C123.586 28.9751 121.083 30.3367 118.68 30.0777C115.613 29.7468 113.436 27.4036 112.94 24.1857C112.641 22.2485 112.818 20.367 113.696 18.6055C114.63 16.733 116.043 15.4517 118.095 15.1033C120.647 14.6699 123.049 15.9829 124.244 18.3908C124.87 19.6535 125.143 21.0062 125.19 22.4152C125.202 22.7817 125.034 22.965 124.684 22.965C121.605 22.965 118.527 22.965 115.449 22.965H115.066V22.9644ZM122.858 21.2922C122.84 20.2063 122.551 19.2344 121.988 18.3464C121.378 17.3835 120.531 16.781 119.415 16.7882C117.701 16.7995 116.42 17.6288 115.666 19.2434C115.371 19.8772 115.233 20.5697 115.158 21.2928H122.858V21.2922Z" fill="#8989AE"/>
<path d="M182.648 18.0568C182.265 18.0568 181.901 18.0466 181.538 18.061C181.333 18.0694 181.246 18.0184 181.251 17.7828C181.264 17.0153 181.258 16.2473 181.255 15.4798C181.254 15.3233 181.264 15.2148 181.464 15.216C182.955 15.2238 184.446 15.2226 185.936 15.225C185.954 15.225 185.972 15.2364 186.023 15.2544V17.4236C186.315 16.9949 186.554 16.604 186.832 16.2449C187.585 15.2676 188.586 14.8611 189.778 14.9486C190.169 14.9774 190.56 15.0325 190.948 15.0955C191.024 15.1081 191.144 15.2142 191.144 15.279C191.157 16.3438 191.153 17.4086 191.153 18.5029C190.659 18.4471 190.196 18.392 189.732 18.3422C187.998 18.1551 186.516 19.232 186.176 20.9294C186.145 21.084 186.133 21.2453 186.133 21.4036C186.13 23.1586 186.131 24.9129 186.132 26.6679C186.132 26.7266 186.139 26.7848 186.146 26.8897C186.598 26.8897 187.047 26.9065 187.493 26.8831C187.758 26.8693 187.816 26.9665 187.811 27.2231C187.794 27.9408 187.805 28.6585 187.804 29.3762C187.804 29.4733 187.796 29.5704 187.791 29.6837H181.256V28.689C181.256 28.2004 181.27 27.7117 181.251 27.2237C181.241 26.9677 181.302 26.8657 181.568 26.8837C181.92 26.9083 182.276 26.8897 182.649 26.8897V18.0574L182.648 18.0568Z" fill="#8989AE"/>
<path d="M238.424 19.2151V20.4497H237.029V20.8262C237.029 23.4985 237.036 26.1702 237.023 28.8425C237.021 29.297 236.983 29.7611 236.887 30.2035C236.662 31.2342 236.089 32.0274 235.153 32.4543C233.538 33.1912 231.909 33.2056 230.322 32.35C229.422 31.865 228.877 31.0633 228.591 30.065C228.584 30.0393 228.594 30.0081 228.599 29.9433C229.107 29.9433 229.613 29.9343 230.118 29.9535C230.187 29.9559 230.269 30.0872 230.316 30.1754C230.679 30.8541 231.158 31.3883 231.922 31.5652C232.659 31.7361 233.394 31.7217 234.108 31.4573C235.017 31.1197 235.507 30.4236 235.559 29.4343C235.597 28.701 235.566 27.9635 235.566 27.1685C235.398 27.3682 235.265 27.5282 235.13 27.6871C233.577 29.523 230.8 29.1375 229.482 27.3454C228.155 25.5418 228.125 22.4097 229.416 20.5774C230.753 18.6797 233.721 18.3769 235.231 20.5414C235.326 20.6763 235.425 20.8082 235.566 21.0031V19.2151H238.424ZM235.57 24.0117C235.562 24.0117 235.555 24.0117 235.548 24.0117C235.548 23.6238 235.598 23.2269 235.538 22.8492C235.387 21.9036 234.824 21.2279 234.062 20.7387C232.623 19.8141 230.987 20.3843 230.379 22.0205C229.966 23.1334 229.967 24.2821 230.233 25.4279C230.424 26.2511 230.822 26.9496 231.579 27.3472C233.494 28.3527 235.428 26.6271 235.566 25.0286C235.595 24.6923 235.57 24.3511 235.57 24.0117H235.57Z" fill="#8989AE"/>
<path d="M109.379 28.0499H111.235V29.7838H105.291V28.0505H107.301V11.4878H105.388V9.83838H109.379V28.0505V28.0499Z" fill="#8989AE"/>
<path d="M210.398 24.5256C210.425 23.1322 210.681 21.9 211.455 20.8418C213.331 18.2756 217.188 18.4297 218.801 21.2003C220.068 23.3762 220.004 25.6504 218.754 27.8244C218.015 29.1099 216.832 29.7635 215.386 29.8738C213.987 29.9805 212.761 29.5746 211.786 28.5032C210.978 27.6152 210.597 26.5216 210.46 25.3266C210.426 25.0304 210.413 24.7318 210.398 24.5262V24.5256ZM212.063 24.5621C212.059 25.2583 212.153 26.0551 212.472 26.8076C212.928 27.8868 213.7 28.5181 214.864 28.5613C216.044 28.6051 216.918 28.0811 217.479 27.0048C217.809 26.3711 217.943 25.6792 217.997 24.9699C218.075 23.9212 217.982 22.8941 217.496 21.9504C216.944 20.8778 216.067 20.3327 214.888 20.3693C213.769 20.4041 212.996 21.0013 212.522 22.0349C212.172 22.7976 212.063 23.61 212.063 24.5621Z" fill="#8989AE"/>
<path d="M220.695 29.6477V28.4198H222.1V20.4719H220.64V19.2235H223.59V21.3586C224.04 20.6026 224.46 19.8531 225.225 19.3992C226.012 18.9321 226.841 18.9795 227.698 19.145V20.6062C227.128 20.6062 226.562 20.5288 226.024 20.6211C224.682 20.8514 224.013 21.8269 223.679 23.1076C223.633 23.2881 223.607 23.4805 223.606 23.667C223.6 25.1725 223.603 26.6781 223.603 28.1836C223.603 28.2423 223.612 28.3017 223.619 28.4018H225.291V29.6459H220.695V29.6477Z" fill="#8989AE"/>
<path d="M207.132 27.8922H208.875V29.6478H207.132V27.8922Z" fill="#8989AE"/>
<path d="M242.387 6.9869C241.69 7.06844 241.687 7.05945 241.641 6.286C241.623 5.99041 241.581 5.69302 241.516 5.40462C241.46 5.1564 241.293 4.96154 241.037 4.95254C240.473 4.93276 239.909 4.94655 239.324 4.94655V6.97791H238.695V2.11656C239.536 2.11656 240.362 2.07638 241.183 2.12975C241.824 2.17112 242.22 2.57043 242.314 3.10106C242.433 3.77558 242.215 4.25944 241.604 4.63957C242.044 4.79905 242.169 5.1588 242.213 5.5833C242.261 6.05216 242.328 6.51923 242.387 6.9869ZM239.331 4.3134C239.918 4.3134 240.473 4.33858 241.024 4.305C241.434 4.27982 241.686 3.93986 241.691 3.51177C241.697 3.09446 241.467 2.72692 241.115 2.70714C240.526 2.67356 239.935 2.69814 239.331 2.69814V4.314V4.3134Z" fill="#8989AE"/>
</g>
<defs>
<clipPath id="clip0_160_3632">
<rect width="245" height="33" fill="white"/>
</clipPath>
</defs>
</svg>
