<?xml version="1.0" encoding="utf-8"?>
<!-- Generator: Adobe Illustrator 16.0.0, SVG Export Plug-In . SVG Version: 6.00 Build 0)  -->
<!DOCTYPE svg PUBLIC "-//W3C//DTD SVG 1.1//EN" "http://www.w3.org/Graphics/SVG/1.1/DTD/svg11.dtd">
<svg version="1.1" id="Layer_1" xmlns="http://www.w3.org/2000/svg" xmlns:xlink="http://www.w3.org/1999/xlink" x="0px" y="0px"
	 width="972px" height="184px" viewBox="0 0 972 184" enable-background="new 0 0 972 184" xml:space="preserve">
<g>
	<defs>
		<rect id="SVGID_1_" x="-56" y="-446" width="1080" height="1080"/>
	</defs>
	<clipPath id="SVGID_2_">
		<use xlink:href="#SVGID_1_"  overflow="visible"/>
	</clipPath>
	<path clip-path="url(#SVGID_2_)" fill="#F8C831" d="M123.493,146.934l-5.772-20.109c0,0,11.358,3.724,19.925-9.685
		c0,0,10.987-6.517,10.8-12.289c0,0,2.801-4.08,0.941-6.966c-1.862-2.886-7.541-1.304-7.541-1.304
		c-1.116-0.186-14.614-3.724-16.011-5.026c0,0,0.2-4.496-2.7-6.981c-1.304-1.116-2.048-0.651-2.048-0.651s-0.28-4.375-6.888-5.679
		c0,0,4.775-20.487-8.384-27.562c0,0-2.234-0.993-5.957,6.455c-3.724,7.449-5.586,14.522-6.455,22.094l-2.855,1.739
		c0,0-5.586-5.834-17.13-8.192c-11.543-2.359-24.329-3.102-23.459,1.116c0,0,0.249,11.543,14.894,17.377
		c13.033,3.601,13.902,2.978,13.902,2.978s-5.586,13.901,0,20.854c5.587,6.952,15.641,4.965,18.619,12.04
		c0,0,6.083,12.163,7.076,27.432c0,0,3.971,3.102,9.434,0.746c5.46-2.359,12.023-2.371,9.611-8.385h-0.002V146.934z"/>
	<path clip-path="url(#SVGID_2_)" fill="#F8C831" d="M99.36,25.572c-37.792,0-68.428,30.636-68.428,68.43
		c0,37.795,30.636,68.429,68.428,68.429s68.428-30.637,68.428-68.429C167.788,56.21,137.152,25.572,99.36,25.572 M99.36,152.081
		c-32.078,0-58.081-26.003-58.081-58.081c0-32.078,26.003-58.082,58.081-58.082S157.441,61.922,157.441,94
		C157.441,126.078,131.438,152.081,99.36,152.081z"/>
	<path clip-path="url(#SVGID_2_)" fill="#F8C831" d="M22.141,94c0-4.466,0.381-8.843,1.108-13.103l-11.129-3.03
		C11.158,83.099,10.654,88.49,10.654,94c0,11.71,2.27,22.891,6.394,33.126l10.052-5.837c-3.207-8.485-4.962-17.682-4.962-27.291
		h0.002V94z"/>
	<path clip-path="url(#SVGID_2_)" fill="#F8C831" d="M123.404,20.598c14.015,4.587,26.261,13.076,35.46,24.183l10.052-5.838
		c-10.826-13.659-25.591-24.055-42.579-29.472l-2.933,11.125V20.598z"/>
	<path clip-path="url(#SVGID_2_)" fill="#F8C831" d="M168.607,59.792c5.104,10.312,7.972,21.925,7.972,34.208
		c0,3.374-0.217,6.696-0.637,9.955l11.175,3.042c0.622-4.243,0.945-8.583,0.945-12.997c0-14.386-3.425-27.973-9.504-39.988
		l-9.953,5.78H168.607z"/>
	<path clip-path="url(#SVGID_2_)" fill="#F8C831" d="M66.827,23.949c9.887-4.6,20.912-7.168,32.535-7.168
		c2.188,0,4.353,0.092,6.493,0.27l2.968-11.255c-3.108-0.33-6.264-0.499-9.461-0.499c-13.696,0-26.664,3.104-38.245,8.647
		l5.712,10.007h-0.002V23.949z"/>
	<path clip-path="url(#SVGID_2_)" fill="#F8C831" d="M127.328,165.998c-8.672,3.372-18.104,5.222-27.969,5.222
		c-5.225,0-10.332-0.521-15.267-1.51l-2.933,11.125c5.874,1.226,11.961,1.868,18.2,1.868c11.937,0,23.322-2.358,33.718-6.633
		L127.328,165.998z"/>
	<path clip-path="url(#SVGID_2_)" fill="#F8C831" d="M28.293,63.747c5.119-12.007,13.189-22.452,23.301-30.424l-5.749-10.07
		c-12.664,9.594-22.673,22.512-28.729,37.452l11.175,3.042H28.293z"/>
	<path clip-path="url(#SVGID_2_)" fill="#F8C831" d="M171.615,121.301c-5.603,14.823-15.636,27.469-28.486,36.323l5.712,10.007
		c15.441-10.396,27.433-25.521,33.901-43.3L171.615,121.301z"/>
	<path clip-path="url(#SVGID_2_)" fill="#F8C831" d="M67.07,164.164c-12.888-5.942-23.863-15.329-31.738-26.983l-9.951,5.777
		c9.442,14.238,22.883,25.594,38.723,32.461l2.968-11.257H67.07V164.164z"/>
	<path clip-path="url(#SVGID_2_)" fill="#F8C831" d="M123.493,146.934l-5.772-20.109c0,0,11.358,3.724,19.925-9.685
		c0,0,10.987-6.517,10.8-12.289c0,0,2.801-4.08,0.941-6.966c-1.862-2.886-7.541-1.304-7.541-1.304
		c-1.116-0.186-14.614-3.724-16.011-5.026c0,0,0.2-4.496-2.7-6.981c-1.304-1.116-2.048-0.651-2.048-0.651s-0.28-4.375-6.888-5.679
		c0,0,4.775-20.487-8.384-27.562c0,0-2.234-0.993-5.957,6.455c-3.724,7.449-5.586,14.522-6.455,22.094l-2.855,1.739
		c0,0-5.586-5.834-17.13-8.192c-11.543-2.359-24.329-3.102-23.459,1.116c0,0,0.249,11.543,14.894,17.377
		c13.033,3.601,13.902,2.978,13.902,2.978s-5.586,13.901,0,20.854c5.587,6.952,15.641,4.965,18.619,12.04
		c0,0,6.083,12.163,7.076,27.432c0,0,3.971,3.102,9.434,0.746c5.46-2.359,12.023-2.371,9.611-8.385h-0.002V146.934z"/>
	<path clip-path="url(#SVGID_2_)" fill="#F8C831" d="M99.362,25.572c-37.792,0-68.428,30.636-68.428,68.43
		c0,37.795,30.636,68.429,68.428,68.429s68.428-30.637,68.428-68.429C167.79,56.21,137.152,25.572,99.362,25.572 M99.362,152.081
		c-32.078,0-58.081-26.003-58.081-58.081c0-32.078,26.003-58.082,58.081-58.082S157.443,61.922,157.443,94
		C157.443,126.078,131.44,152.081,99.362,152.081"/>
	<path clip-path="url(#SVGID_2_)" fill="#F8C831" d="M22.141,94c0-4.466,0.381-8.843,1.108-13.103l-11.129-3.03
		C11.158,83.099,10.654,88.49,10.654,94c0,11.71,2.27,22.891,6.394,33.126l10.052-5.837c-3.207-8.485-4.962-17.682-4.962-27.291
		h0.002V94z"/>
	<path clip-path="url(#SVGID_2_)" fill="#F8C831" d="M123.404,20.598c14.015,4.587,26.261,13.076,35.46,24.183l10.052-5.838
		c-10.826-13.659-25.591-24.055-42.579-29.472l-2.933,11.125V20.598z"/>
	<path clip-path="url(#SVGID_2_)" fill="#F8C831" d="M168.607,59.792c5.104,10.312,7.972,21.925,7.972,34.208
		c0,3.374-0.217,6.696-0.637,9.955l11.175,3.042c0.622-4.243,0.945-8.583,0.945-12.997c0-14.386-3.425-27.973-9.504-39.988
		l-9.953,5.78H168.607z"/>
	<path clip-path="url(#SVGID_2_)" fill="#F8C831" d="M66.827,23.949c9.887-4.6,20.912-7.168,32.535-7.168
		c2.188,0,4.353,0.092,6.493,0.27l2.968-11.255c-3.106-0.33-6.262-0.499-9.459-0.499c-13.696,0-26.666,3.104-38.245,8.647
		l5.712,10.007h-0.004V23.949z"/>
	<path clip-path="url(#SVGID_2_)" fill="#F8C831" d="M127.328,165.998c-8.672,3.372-18.104,5.222-27.969,5.222
		c-5.225,0-10.332-0.521-15.267-1.51l-2.933,11.125c5.874,1.226,11.961,1.868,18.2,1.868c11.937,0,23.322-2.358,33.718-6.633
		L127.328,165.998z"/>
	<path clip-path="url(#SVGID_2_)" fill="#F8C831" d="M28.293,63.747c5.119-12.007,13.189-22.452,23.301-30.424l-5.749-10.07
		c-12.664,9.594-22.673,22.512-28.729,37.452l11.175,3.042H28.293z"/>
	<path clip-path="url(#SVGID_2_)" fill="#F8C831" d="M171.615,121.301c-5.603,14.823-15.636,27.469-28.486,36.323l5.712,10.007
		c15.441-10.396,27.433-25.521,33.901-43.3L171.615,121.301z"/>
	<path clip-path="url(#SVGID_2_)" fill="#F8C831" d="M67.07,164.164c-12.888-5.942-23.863-15.329-31.738-26.983l-9.951,5.777
		c9.442,14.238,22.883,25.594,38.723,32.461l2.968-11.257H67.07V164.164z"/>
	<path clip-path="url(#SVGID_2_)" fill="#F8C831" d="M123.493,146.934l-5.772-20.109c0,0,11.358,3.724,19.925-9.685
		c0,0,10.987-6.517,10.8-12.289c0,0,2.801-4.08,0.941-6.966c-1.862-2.886-7.541-1.304-7.541-1.304
		c-1.116-0.186-14.614-3.724-16.011-5.026c0,0,0.2-4.496-2.7-6.981c-1.304-1.116-2.048-0.651-2.048-0.651s-0.28-4.375-6.888-5.679
		c0,0,4.775-20.487-8.384-27.562c0,0-2.234-0.993-5.957,6.455c-3.724,7.449-5.586,14.522-6.455,22.094l-2.855,1.739
		c0,0-5.586-5.834-17.13-8.192c-11.543-2.359-24.329-3.102-23.459,1.116c0,0,0.249,11.543,14.894,17.377
		c13.033,3.601,13.902,2.978,13.902,2.978s-5.586,13.901,0,20.854c5.587,6.952,15.641,4.965,18.619,12.04
		c0,0,6.083,12.163,7.076,27.432c0,0,3.971,3.102,9.434,0.746c5.46-2.359,12.023-2.371,9.611-8.385h-0.002V146.934z"/>
	<path clip-path="url(#SVGID_2_)" fill="#F8C831" d="M99.362,25.572c-37.792,0-68.428,30.636-68.428,68.43
		c0,37.795,30.636,68.429,68.428,68.429s68.428-30.637,68.428-68.429C167.79,56.21,137.152,25.572,99.362,25.572 M99.362,152.081
		c-32.078,0-58.081-26.003-58.081-58.081c0-32.078,26.003-58.082,58.081-58.082S157.443,61.922,157.443,94
		C157.443,126.078,131.44,152.081,99.362,152.081"/>
	<path clip-path="url(#SVGID_2_)" fill="#F8C831" d="M22.141,94c0-4.466,0.381-8.843,1.108-13.103l-11.129-3.03
		C11.158,83.099,10.654,88.49,10.654,94c0,11.71,2.27,22.891,6.394,33.126l10.052-5.837c-3.207-8.485-4.962-17.682-4.962-27.291
		h0.002V94z"/>
	<path clip-path="url(#SVGID_2_)" fill="#F8C831" d="M123.404,20.598c14.015,4.587,26.261,13.076,35.46,24.183l10.052-5.838
		c-10.826-13.659-25.591-24.055-42.579-29.472l-2.933,11.125V20.598z"/>
	<path clip-path="url(#SVGID_2_)" fill="#F8C831" d="M168.607,59.792c5.104,10.312,7.972,21.925,7.972,34.208
		c0,3.374-0.217,6.696-0.637,9.955l11.175,3.042c0.622-4.243,0.945-8.583,0.945-12.997c0-14.386-3.425-27.973-9.504-39.988
		l-9.953,5.78H168.607z"/>
	<path clip-path="url(#SVGID_2_)" fill="#F8C831" d="M66.827,23.949c9.887-4.6,20.912-7.168,32.535-7.168
		c2.188,0,4.353,0.092,6.493,0.27l2.968-11.255c-3.106-0.33-6.262-0.499-9.459-0.499c-13.696,0-26.666,3.104-38.245,8.647
		l5.712,10.007h-0.004V23.949z"/>
	<path clip-path="url(#SVGID_2_)" fill="#F8C831" d="M127.328,165.998c-8.672,3.372-18.104,5.222-27.969,5.222
		c-5.225,0-10.332-0.521-15.267-1.51l-2.933,11.125c5.874,1.226,11.961,1.868,18.2,1.868c11.937,0,23.322-2.358,33.718-6.633
		L127.328,165.998z"/>
	<path clip-path="url(#SVGID_2_)" fill="#F8C831" d="M28.293,63.747c5.119-12.007,13.189-22.452,23.301-30.424l-5.749-10.07
		c-12.664,9.594-22.673,22.512-28.729,37.452l11.175,3.042H28.293z"/>
	<path clip-path="url(#SVGID_2_)" fill="#F8C831" d="M171.615,121.301c-5.603,14.823-15.636,27.469-28.486,36.323l5.712,10.007
		c15.441-10.396,27.433-25.521,33.901-43.3L171.615,121.301z"/>
	<path clip-path="url(#SVGID_2_)" fill="#F8C831" d="M67.07,164.164c-12.888-5.942-23.863-15.329-31.738-26.983l-9.951,5.777
		c9.442,14.238,22.883,25.594,38.723,32.461l2.968-11.257H67.07V164.164z"/>
	<path clip-path="url(#SVGID_2_)" fill="#F8C831" d="M239.569,98.016h-7.877v21.194h-14.551V59.289h23.754
		c7.158,0,12.755,1.576,16.79,4.728c4.035,3.152,6.053,7.606,6.053,13.361c0,4.166-0.85,7.619-2.55,10.36
		c-1.7,2.741-4.36,4.961-7.98,6.66l12.603,24.194v0.618h-15.588L239.569,98.016z M231.692,86.904h9.203
		c2.764,0,4.844-0.722,6.24-2.166c1.395-1.444,2.093-3.459,2.093-6.044s-0.705-4.614-2.114-6.085
		c-1.41-1.472-3.483-2.208-6.219-2.208h-9.203V86.904z"/>
	<path clip-path="url(#SVGID_2_)" fill="#F8C831" d="M323.643,90.484c0,5.844-1.092,11.016-3.275,15.516
		c-2.184,4.5-5.286,7.963-9.307,10.391s-8.602,3.643-13.743,3.643c-5.14,0-9.701-1.174-13.68-3.52
		c-3.98-2.345-7.083-5.699-9.307-10.062c-2.225-4.362-3.393-9.369-3.504-15.021v-3.375c0-5.871,1.085-11.05,3.255-15.535
		c2.169-4.486,5.278-7.95,9.327-10.392c4.049-2.441,8.658-3.663,13.826-3.663c5.113,0,9.673,1.208,13.681,3.622
		c4.007,2.415,7.123,5.851,9.348,10.309c2.225,4.459,3.351,9.568,3.379,15.33V90.484z M308.843,87.974
		c0-5.953-1.002-10.474-3.006-13.56c-2.004-3.087-4.871-4.63-8.602-4.63c-7.296,0-11.152,5.432-11.566,16.297l-0.042,4.403
		c0,5.872,0.981,10.386,2.944,13.54c1.962,3.156,4.877,4.733,8.747,4.733c3.675,0,6.509-1.55,8.499-4.65
		c1.99-3.1,2.998-7.559,3.026-13.375V87.974z"/>
	<path clip-path="url(#SVGID_2_)" fill="#F8C831" d="M382.262,90.484c0,5.844-1.092,11.016-3.275,15.516
		c-2.184,4.5-5.286,7.963-9.307,10.391s-8.602,3.643-13.743,3.643c-5.14,0-9.701-1.174-13.681-3.52
		c-3.979-2.345-7.082-5.699-9.306-10.062c-2.225-4.362-3.393-9.369-3.504-15.021v-3.375c0-5.871,1.085-11.05,3.255-15.535
		c2.169-4.486,5.278-7.95,9.328-10.392c4.048-2.441,8.657-3.663,13.825-3.663c5.113,0,9.673,1.208,13.681,3.622
		c4.007,2.415,7.123,5.851,9.348,10.309c2.225,4.459,3.351,9.568,3.379,15.33V90.484z M367.462,87.974
		c0-5.953-1.002-10.474-3.005-13.56c-2.005-3.087-4.872-4.63-8.603-4.63c-7.296,0-11.152,5.432-11.566,16.297l-0.042,4.403
		c0,5.872,0.981,10.386,2.944,13.54c1.962,3.156,4.877,4.733,8.747,4.733c3.675,0,6.509-1.55,8.499-4.65
		c1.99-3.1,2.998-7.559,3.026-13.375V87.974z"/>
	<path clip-path="url(#SVGID_2_)" fill="#FFFFFF" d="M433.337,98.016h-7.877v21.194h-14.551V59.289h23.754
		c7.158,0,12.755,1.576,16.79,4.728c4.035,3.152,6.053,7.606,6.053,13.361c0,4.166-0.85,7.619-2.55,10.36
		c-1.7,2.741-4.36,4.961-7.98,6.66l12.603,24.194v0.618h-15.588L433.337,98.016z M425.46,86.904h9.203
		c2.764,0,4.844-0.722,6.239-2.166c1.396-1.444,2.094-3.459,2.094-6.044s-0.705-4.614-2.114-6.085
		c-1.41-1.472-3.483-2.208-6.219-2.208h-9.203V86.904z"/>
	<polygon clip-path="url(#SVGID_2_)" fill="#FFFFFF" points="503.729,93.776 480.846,93.776 480.846,108.099 507.875,108.099 
		507.875,119.21 466.294,119.21 466.294,59.29 507.958,59.29 507.958,70.442 480.846,70.442 480.846,83.077 503.729,83.077 	"/>
	<path clip-path="url(#SVGID_2_)" fill="#FFFFFF" d="M544.938,103.283c0-2.112-0.754-3.759-2.26-4.938
		c-1.507-1.18-4.152-2.4-7.938-3.663c-3.787-1.262-6.882-2.482-9.287-3.663c-7.821-3.813-11.732-9.054-11.732-15.721
		c0-3.319,0.976-6.248,2.923-8.786c1.948-2.538,4.705-4.513,8.271-5.927c3.564-1.412,7.572-2.119,12.021-2.119
		c4.34,0,8.229,0.768,11.67,2.305c3.441,1.536,6.115,3.724,8.022,6.564c1.907,2.839,2.86,6.084,2.86,9.733h-14.511
		c0-2.442-0.753-4.335-2.259-5.68c-1.507-1.343-3.545-2.016-6.115-2.016c-2.598,0-4.649,0.57-6.155,1.708
		c-1.507,1.139-2.259,2.586-2.259,4.342c0,1.536,0.828,2.929,2.486,4.177c1.658,1.249,4.574,2.538,8.747,3.868
		c4.173,1.331,7.601,2.765,10.281,4.301c6.522,3.731,9.784,8.876,9.784,15.433c0,5.241-1.99,9.355-5.971,12.346
		c-3.979,2.991-9.438,4.486-16.375,4.486c-4.892,0-9.32-0.871-13.287-2.614c-3.966-1.741-6.95-4.128-8.953-7.16
		c-2.004-3.03-3.006-6.522-3.006-10.474h14.593c0,3.21,0.836,5.576,2.508,7.099c1.672,1.523,4.387,2.284,8.146,2.284
		c2.405,0,4.306-0.514,5.7-1.543C544.239,106.596,544.938,105.149,544.938,103.283"/>
	<path clip-path="url(#SVGID_2_)" fill="#FFFFFF" d="M581.502,98.88v20.33H566.95V59.289h24.086c4.615,0,8.699,0.844,12.25,2.531
		c3.552,1.688,6.303,4.089,8.25,7.202c1.948,3.115,2.924,6.647,2.924,10.598c0,5.844-2.108,10.515-6.322,14.013
		c-4.215,3.498-9.998,5.247-17.351,5.247H581.502z M581.502,87.727h9.534c2.819,0,4.969-0.7,6.446-2.099
		c1.479-1.399,2.218-3.375,2.218-5.926c0-2.799-0.76-5.034-2.279-6.708c-1.521-1.673-3.594-2.524-6.219-2.552h-9.7V87.727z"/>
	<path clip-path="url(#SVGID_2_)" fill="#FFFFFF" d="M673.327,90.484c0,5.844-1.092,11.016-3.274,15.516
		c-2.185,4.5-5.286,7.963-9.308,10.391c-4.021,2.428-8.602,3.643-13.742,3.643s-9.701-1.174-13.682-3.52
		c-3.979-2.345-7.082-5.699-9.306-10.062c-2.225-4.362-3.393-9.369-3.504-15.021v-3.375c0-5.871,1.085-11.05,3.255-15.535
		c2.169-4.486,5.278-7.95,9.328-10.392c4.048-2.441,8.657-3.663,13.825-3.663c5.112,0,9.673,1.208,13.681,3.622
		c4.007,2.415,7.123,5.851,9.348,10.309c2.226,4.459,3.352,9.568,3.379,15.33V90.484z M658.527,87.974
		c0-5.953-1.002-10.474-3.005-13.56c-2.005-3.087-4.872-4.63-8.603-4.63c-7.297,0-11.152,5.432-11.566,16.297l-0.042,4.403
		c0,5.872,0.981,10.386,2.944,13.54c1.962,3.156,4.878,4.733,8.747,4.733c3.676,0,6.509-1.55,8.499-4.65
		c1.989-3.1,2.998-7.559,3.025-13.375V87.974z"/>
	<polygon clip-path="url(#SVGID_2_)" fill="#FFFFFF" points="731.242,119.21 716.774,119.21 695.382,81.924 695.382,119.21 
		680.831,119.21 680.831,59.289 695.382,59.289 716.732,96.575 716.732,59.289 731.242,59.289 	"/>
	<path clip-path="url(#SVGID_2_)" fill="#FFFFFF" d="M771.579,103.283c0-2.112-0.753-3.759-2.259-4.938
		c-1.507-1.18-4.153-2.4-7.939-3.663c-3.787-1.262-6.882-2.482-9.287-3.663c-7.82-3.813-11.731-9.054-11.731-15.721
		c0-3.319,0.975-6.248,2.923-8.786s4.705-4.513,8.271-5.927c3.565-1.412,7.572-2.119,12.022-2.119c4.339,0,8.229,0.768,11.67,2.305
		c3.441,1.536,6.115,3.724,8.022,6.564c1.906,2.839,2.859,6.084,2.859,9.733h-14.51c0-2.442-0.753-4.335-2.259-5.68
		c-1.507-1.343-3.545-2.016-6.115-2.016c-2.598,0-4.65,0.57-6.156,1.708c-1.507,1.139-2.259,2.586-2.259,4.342
		c0,1.536,0.829,2.929,2.487,4.177c1.658,1.249,4.574,2.538,8.747,3.868c4.173,1.331,7.6,2.765,10.28,4.301
		c6.523,3.731,9.784,8.876,9.784,15.433c0,5.241-1.99,9.355-5.97,12.346c-3.979,2.991-9.438,4.486-16.375,4.486
		c-4.893,0-9.321-0.871-13.287-2.614c-3.966-1.741-6.951-4.128-8.954-7.16c-2.004-3.03-3.006-6.522-3.006-10.474h14.593
		c0,3.21,0.836,5.576,2.508,7.099c1.673,1.523,4.388,2.284,8.146,2.284c2.405,0,4.305-0.514,5.7-1.543
		S771.579,105.149,771.579,103.283"/>
	<rect x="794.587" y="59.289" clip-path="url(#SVGID_2_)" fill="#FFFFFF" width="14.51" height="59.921"/>
	<path clip-path="url(#SVGID_2_)" fill="#FFFFFF" d="M819.213,119.211V59.29h21.681c7.767,0,13.674,1.413,17.724,4.239
		c4.049,2.826,6.072,6.928,6.072,12.305c0,3.101-0.719,5.748-2.154,7.943c-1.438,2.195-3.553,3.814-6.344,4.856
		c3.15,0.823,5.569,2.36,7.256,4.609c1.685,2.25,2.528,4.994,2.528,8.231c0,5.872-1.873,10.282-5.618,13.23
		c-3.744,2.95-9.293,4.452-16.645,4.508H819.213z M833.764,84.27h7.586c3.178-0.026,5.445-0.605,6.799-1.733
		c1.354-1.128,2.032-2.793,2.032-4.995c0-2.531-0.733-4.354-2.197-5.469c-1.466-1.114-3.829-1.671-7.09-1.671h-7.13V84.27z
		 M833.764,93.735v14.363h9.535c2.625,0,4.643-0.597,6.053-1.79c1.409-1.194,2.114-2.874,2.114-5.042
		c0-4.993-2.502-7.503-7.504-7.531H833.764z"/>
	<polygon clip-path="url(#SVGID_2_)" fill="#FFFFFF" points="888.527,108.099 913.857,108.099 913.857,119.21 873.977,119.21 
		873.977,59.29 888.527,59.29 	"/>
	<polygon clip-path="url(#SVGID_2_)" fill="#FFFFFF" points="930.522,85.299 941.633,59.289 957.345,59.289 937.901,97.686 
		937.901,119.21 923.144,119.21 923.144,97.686 903.742,59.289 919.371,59.289 	"/>
</g>
</svg>
