<svg fill="none" height="16" viewBox="0 0 16 16" width="16" xmlns="http://www.w3.org/2000/svg"><path d="m15 9c0 .39-.225.7425-.58.9075l-10.25 4.75c-.1325.0625-.2775.0925-.42.0925-.1875 0-.375-.0525-.5375-.1575-.2875-.1825-.4625-.5-.4625-.8425v-2.8327c0-.2383.16825-.4435.40175-.4903l4.68075-.937c.535-.1075.535-.8725 0-.98l-4.68075-.937c-.2335-.04675-.40175-.252-.40175-.49025v-2.83275c0-.3425.175-.66.4625-.8425.2875-.185.6475-.2075.9575-.065l10.25 4.75c.355.165.58.5175.58.9075z" fill="#fff"/></svg>