<svg xmlns="http://www.w3.org/2000/svg" xmlns:xlink="http://www.w3.org/1999/xlink" id="Layer_1" x="0px" y="0px" viewBox="0 0 1504 1504" style="enable-background:new 0 0 1504 1504;" xml:space="preserve"><style type="text/css">	.st0{fill:#DDB43F;}</style><path class="st0" d="M1194.3,0H309.7C138.7,0,0,138.7,0,309.7v884.6C0,1365.3,138.7,1504,309.7,1504h884.6 c171.1,0,309.7-138.6,309.7-309.7V309.7C1504,138.7,1365.3,0,1194.3,0z M1138.3,532.4c-19.7,15.8-27.6,32.4-28.4,58.3 c-12.2,392.8-458.5,696.7-763.8,454.8c-29.6-23.4-0.8,0-29.1-22.9c93.7,5.5,175.4-16.7,255.4-74.8 c-80.6-13.8-136.7-50.5-167.2-127.1c23.4-3.4,44.3,2.8,68.6-6.7c-79.4-34.8-130.8-87.1-132.9-177.6c25,2.2,44.1,18.5,74.1,16.3 c-73.2-71.5-95.4-149.1-49.4-243.8c76.3,87.7,165.6,147,274.4,175c5.9,1.5,11.8,3.2,17.8,4.5c28.2,6.5,61.3,20.4,78.3,18.2 c29.4-3.6,0-37.3,7.5-81.1c23.3-136.3,173.2-198.1,284.2-118.3c32.4,23.3,58.2,22.9,89.9,8.8c16.7-7.5,33.7-14.5,53.5-23.1 c-4.6,39.1-34.3,60.3-58.2,89.4c27.2,6.2,49.2-1.7,74-9.6C1178.3,501.1,1157.5,517,1138.3,532.4z"></path></svg>