<svg xmlns="http://www.w3.org/2000/svg" xmlns:xlink="http://www.w3.org/1999/xlink" id="Layer_1" x="0px" y="0px" viewBox="0 0 1504 1504" style="enable-background:new 0 0 1504 1504;" xml:space="preserve"><style type="text/css">	.st0{fill:#DDB43F;}</style><path class="st0" d="M1194.3,0H309.7C138.6,0,0,138.7,0,309.7v884.6C0,1365.3,138.6,1504,309.7,1504h884.6 c171,0,309.7-138.6,309.7-309.7V309.7C1504,138.7,1365.3,0,1194.3,0z M1000.3,841.3H825.6v458.9h-211V841.3H439.4v-186h175.2v-68 c0-251.5,104.9-383.6,327.1-383.6c68.1,0,85.1,10.9,122.6,19.8v184.1c-41.9-7.5-53.6-11.2-97-11.2c-51.7,0-79,14.4-104,43.2 c-25.1,28.8-37.6,78.8-37.6,149.9v65.7h238.9L1000.3,841.3z"></path></svg>