<svg xmlns="http://www.w3.org/2000/svg" xmlns:xlink="http://www.w3.org/1999/xlink" id="Layer_1" x="0px" y="0px" viewBox="0 0 1504 1504" style="enable-background:new 0 0 1504 1504;" xml:space="preserve"><style type="text/css">	.st0{fill:#DDB43F;}</style><path class="st0" d="M752,562.8c-104.3,0-189.2,84.9-189.2,189.1c0,104.3,84.9,189.2,189.2,189.2c104.3,0,189.1-84.9,189.1-189.2 C941.1,647.7,856.3,562.8,752,562.8z M752,562.8c-104.3,0-189.2,84.9-189.2,189.1c0,104.3,84.9,189.2,189.2,189.2 c104.3,0,189.1-84.9,189.1-189.2C941.1,647.7,856.3,562.8,752,562.8z M1080.6,322.5H423.4c-55.6,0-100.9,45.2-100.9,100.8v657.2 c0,55.6,45.2,100.9,100.9,100.9h657.2c55.6,0,100.9-45.2,100.9-100.9V423.3C1181.5,367.7,1136.2,322.5,1080.6,322.5z M938.3,938.3 c-49.7,49.7-115.9,77.2-186.3,77.2c-70.4,0-136.6-27.4-186.3-77.2c-49.7-49.7-77.2-115.9-77.2-186.3c0-70.3,27.4-136.5,77.2-186.3 c49.8-49.7,115.9-77.2,186.3-77.2c70.3,0,136.5,27.4,186.3,77.2c49.7,49.7,77.2,115.9,77.2,186.3 C1015.4,822.3,988,888.5,938.3,938.3z M1066.3,494.8c-32.4,0-58.7-26.4-58.7-58.7c0-32.4,26.4-58.8,58.7-58.8 c32.4,0,58.8,26.4,58.8,58.8C1125,468.5,1098.7,494.8,1066.3,494.8z M752,562.8c-104.3,0-189.2,84.9-189.2,189.1 c0,104.3,84.9,189.2,189.2,189.2c104.3,0,189.1-84.9,189.1-189.2C941.1,647.7,856.3,562.8,752,562.8z M1080.6,322.5H423.4 c-55.6,0-100.9,45.2-100.9,100.8v657.2c0,55.6,45.2,100.9,100.9,100.9h657.2c55.6,0,100.9-45.2,100.9-100.9V423.3 C1181.5,367.7,1136.2,322.5,1080.6,322.5z M938.3,938.3c-49.7,49.7-115.9,77.2-186.3,77.2c-70.4,0-136.6-27.4-186.3-77.2 c-49.7-49.7-77.2-115.9-77.2-186.3c0-70.3,27.4-136.5,77.2-186.3c49.8-49.7,115.9-77.2,186.3-77.2c70.3,0,136.5,27.4,186.3,77.2 c49.7,49.7,77.2,115.9,77.2,186.3C1015.4,822.3,988,888.5,938.3,938.3z M1066.3,494.8c-32.4,0-58.7-26.4-58.7-58.7 c0-32.4,26.4-58.8,58.7-58.8c32.4,0,58.8,26.4,58.8,58.8C1125,468.5,1098.7,494.8,1066.3,494.8z M752,562.8 c-104.3,0-189.2,84.9-189.2,189.1c0,104.3,84.9,189.2,189.2,189.2c104.3,0,189.1-84.9,189.1-189.2 C941.1,647.7,856.3,562.8,752,562.8z M1194.3,0H309.7C138.7,0,0,138.7,0,309.7v884.6C0,1365.3,138.7,1504,309.7,1504h884.6 c171.1,0,309.7-138.6,309.7-309.7V309.7C1504,138.7,1365.3,0,1194.3,0z M1255.7,1080.6c0,96.6-78.6,175.2-175.2,175.2H423.4 c-96.6,0-175.2-78.6-175.2-175.2V423.3c0-96.5,78.6-175.1,175.2-175.1h657.2c96.6,0,175.2,78.6,175.2,175.1V1080.6z M1080.6,322.5 H423.4c-55.6,0-100.9,45.2-100.9,100.8v657.2c0,55.6,45.2,100.9,100.9,100.9h657.2c55.6,0,100.9-45.2,100.9-100.9V423.3 C1181.5,367.7,1136.2,322.5,1080.6,322.5z M938.3,938.3c-49.7,49.7-115.9,77.2-186.3,77.2c-70.4,0-136.6-27.4-186.3-77.2 c-49.7-49.7-77.2-115.9-77.2-186.3c0-70.3,27.4-136.5,77.2-186.3c49.8-49.7,115.9-77.2,186.3-77.2c70.3,0,136.5,27.4,186.3,77.2 c49.7,49.7,77.2,115.9,77.2,186.3C1015.4,822.3,988,888.5,938.3,938.3z M1066.3,494.8c-32.4,0-58.7-26.4-58.7-58.7 c0-32.4,26.4-58.8,58.7-58.8c32.4,0,58.8,26.4,58.8,58.8C1125,468.5,1098.7,494.8,1066.3,494.8z M752,562.8 c-104.3,0-189.2,84.9-189.2,189.1c0,104.3,84.9,189.2,189.2,189.2c104.3,0,189.1-84.9,189.1-189.2 C941.1,647.7,856.3,562.8,752,562.8z M752,562.8c-104.3,0-189.2,84.9-189.2,189.1c0,104.3,84.9,189.2,189.2,189.2 c104.3,0,189.1-84.9,189.1-189.2C941.1,647.7,856.3,562.8,752,562.8z M752,562.8c-104.3,0-189.2,84.9-189.2,189.1 c0,104.3,84.9,189.2,189.2,189.2c104.3,0,189.1-84.9,189.1-189.2C941.1,647.7,856.3,562.8,752,562.8z"></path></svg>