<?xml version="1.0" encoding="utf-8"?>
<!-- Generator: Adobe Illustrator 23.0.4, SVG Export Plug-In . SVG Version: 6.00 Build 0)  -->
<svg version="1.1" id="Слой_1" xmlns="http://www.w3.org/2000/svg" xmlns:xlink="http://www.w3.org/1999/xlink" x="0px" y="0px"
	 viewBox="0 0 255.12 141.73" style="enable-background:new 0 0 255.12 141.73;" xml:space="preserve">
<style type="text/css">
	.st0{fill:#FFFFFF;}
</style>
<g>
	<polygon class="st0" points="48.56,57.56 48.56,63.58 53.25,63.58 53.25,88.44 59.63,88.44 59.63,63.58 64.33,63.58 64.33,57.56 	
		"/>
	<polygon class="st0" points="117.77,57.56 117.77,88.44 132.39,88.44 132.39,82.43 124.15,82.43 124.15,76.01 130.68,76.01 
		130.68,69.99 124.15,69.99 124.15,63.58 132.39,63.58 132.39,57.56 	"/>
	<polygon class="st0" points="145.53,52.78 139.15,52.78 139.15,83.66 153.77,83.66 153.77,77.64 145.53,77.64 	"/>
	<path class="st0" d="M196.86,72.09c1.26-1.53,2.02-3.5,2.02-5.64l0,0c0-4.91-3.98-8.89-8.89-8.89h-6.88v30.88h7.04
		c5.28,0,9.56-4.28,9.56-9.56C199.69,76.23,198.61,73.82,196.86,72.09z M189.62,63.58c1.59,0,2.87,1.29,2.87,2.87
		c0,1.59-1.29,2.87-2.87,2.87h-0.13v-5.75H189.62z M193.31,78.88c0,1.96-1.59,3.54-3.54,3.54h-0.28v-7.09h0.28
		C191.73,75.34,193.31,76.93,193.31,78.88L193.31,78.88z"/>
	<path class="st0" d="M88.26,68.86L88.26,68.86c0-6.24-5.06-11.3-11.3-11.3h-4.48h-2.41v30.88h6.38v-8.29h0.5
		c0.43,0,0.85-0.03,1.26-0.07l4.13,8.36h7.12l-5.35-10.85C86.65,75.52,88.26,72.38,88.26,68.86z M76.47,74.14V63.58h0.13
		c2.92,0,5.28,2.36,5.28,5.28l0,0c0,2.92-2.36,5.28-5.28,5.28H76.47z"/>
	<path class="st0" d="M105.41,80.37c0,1.61-1.31,2.92-2.92,2.92c-1.62,0-2.92-1.31-2.92-2.92V57.56h-6.38V80
		c0,5.14,4.17,9.31,9.31,9.31l0,0c5.14,0,9.31-4.17,9.31-9.31V57.56h-6.38V80.37z"/>
	<rect x="136.91" y="92.83" class="st0" width="64.38" height="2.53"/>
	<rect x="136.91" y="51.51" class="st0" width="64.38" height="2.53"/>
	<path class="st0" d="M171.29,93.2h6.53l-6.66-30.88h-7.83l-6.66,30.88h6.53l0.75-3.54h6.59L171.29,93.2z M165.23,83.64l2.01-9.47
		l2.01,9.47H165.23z"/>
</g>
</svg>
