<svg xmlns="http://www.w3.org/2000/svg" width="128" height="130" viewBox="0 0 128 130" fill="none"><g clip-path="url(#clip0_606_38)"><path d="M101.643 0H26.3574C11.8043 0 0 11.9887 0 26.7693V103.231C0 118.011 11.8043 130 26.3574 130H101.643C116.204 130 128 118.02 128 103.231V26.7693C128 11.9887 116.196 0 101.643 0ZM96.8766 46.0186C95.2 47.3843 94.5277 48.8191 94.4596 51.0578C93.4213 85.01 55.4383 111.278 29.4553 90.369C26.9362 88.3464 29.3872 90.369 26.9787 88.3896C34.9532 88.865 41.9064 86.9461 48.7149 81.9242C41.8553 80.7314 37.0809 77.5592 34.4851 70.9382C36.4766 70.6443 38.2553 71.1802 40.3234 70.359C33.566 67.3511 29.1915 62.8305 29.0128 55.008C31.1404 55.1981 32.766 56.607 35.3191 56.4169C29.0894 50.2367 27.2 43.5293 31.1149 35.3438C37.6085 42.9242 45.2085 48.0499 54.4681 50.4701C54.9702 50.5997 55.4723 50.7467 55.983 50.859C58.383 51.4209 61.2 52.6223 62.6468 52.4322C65.1489 52.121 62.6468 49.2081 63.2851 45.4222C65.2681 33.641 78.0255 28.2992 87.4723 35.1968C90.2298 37.2108 92.4255 37.1762 95.1234 35.9574C96.5447 35.3092 97.9915 34.7041 99.6766 33.9608C99.2851 37.3404 96.7574 39.1729 94.7234 41.6882C97.0383 42.2241 98.9106 41.5412 101.021 40.8584C100.281 43.3132 98.5106 44.6875 96.8766 46.0186Z" fill="#DDB43F"></path></g><defs><clipPath id="clip0_606_38"><rect width="128" height="130" fill="white"></rect></clipPath></defs></svg>