<svg fill="none" height="69" viewBox="0 0 69 69" width="69" xmlns="http://www.w3.org/2000/svg"><path d="m67.9673 42.8457c-4.6082 18.4823-23.3298 29.7303-41.8163 25.1214-18.47873-4.6077-29.7279-23.3285-25.11767-41.8093 4.60619-18.48434 23.32777-29.73317 41.80857-25.12544 18.4851 4.60772 29.7341 23.33014 25.1254 41.81334z" fill="#3e73c4"/><g fill="#fff"><path d="m41.8968 38.4446c0-3.9446-2.3772-5.2966-7.1315-5.8612-3.3948-.4513-4.0727-1.352-4.0727-2.9305 0-1.5786 1.1329-2.5926 3.3949-2.5926 2.0373 0 3.1701.676 3.7347 2.3678.0588.1636.1664.3053.3081.4059.1418.1006.311.1553.4849.1569h1.8107c.1046.0028.2086-.0157.3059-.0544.0972-.0386.1856-.0966.2597-.1704.0742-.0738.1326-.1619.1717-.2589.039-.0971.058-.201.0557-.3056v-.1115c-.2213-1.224-.8406-2.3407-1.7618-3.1766-.9212-.8358-2.0926-1.3441-3.3323-1.4458v-2.704c0-.4513-.3399-.7893-.9045-.9026h-1.6993c-.4512 0-.7911.338-.9044.9026v2.5926c-3.3967.4494-5.5454 2.704-5.5454 5.5231 0 3.718 2.262 5.1833 7.0163 5.7479 3.1701.5627 4.1878 1.2406 4.1878 3.0438 0 1.8015-1.5841 3.042-3.7347 3.042-2.9436 0-3.9613-1.2387-4.3011-2.9305-.1115-.4495-.4532-.676-.793-.676h-1.924c-.1045-.0026-.2083.0161-.3053.0548-.097.0388-.1852.0968-.2591.1706-.074.0738-.1322.1618-.1712.2587s-.0579.2007-.0556.3052v.1114c.4513 2.8191 2.2639 4.8471 5.9986 5.4117v2.7059c0 .4494.3399.7892.9044.9007h1.6993c.4513 0 .7912-.338.9044-.9007v-2.7078c3.3968-.5627 5.6588-2.9305 5.6588-5.9744z"/><path d="m28.6553 50.2801c-8.8289-3.1571-13.3566-12.9628-10.0732-21.6412 1.6975-4.7358 5.4322-8.3405 10.0732-10.0323.4531-.2247.6779-.5627.6779-1.1273v-1.5786c0-.4494-.2248-.7874-.6779-.9007-.1133 0-.3399 0-.4531.1114-2.5473.7955-4.9119 2.087-6.958 3.8001-2.046 1.7131-3.733 3.814-4.9637 6.1817-1.2308 2.3678-1.981 4.9556-2.2075 7.6145s.0752 5.3363.8877 7.8782c2.0354 6.3142 6.903 11.1614 13.2415 13.1894.4531.2247.9062 0 1.0177-.4513.1133-.1114.1133-.2266.1133-.4513v-1.5786c0-.338-.338-.7874-.6779-1.014zm11.9971-35.1668c-.4531-.2266-.9062 0-1.0177.4494-.1133.1133-.1133.2266-.1133.4513v1.5786c0 .4513.338.9007.6779 1.1273 8.8289 3.1571 13.3566 12.9628 10.0731 21.6412-1.6974 4.7358-5.4321 8.3405-10.0731 10.0323-.4531.2247-.6779.5627-.6779 1.1273v1.5786c0 .4494.2248.7874.6779.9007.1133 0 .3399 0 .4531-.1114 2.5472-.7955 4.9119-2.087 6.958-3.8001 2.046-1.7131 3.733-3.814 4.9637-6.1817 1.2307-2.3678 1.981-4.9556 2.2075-7.6145s-.0752-5.3363-.8877-7.8782c-2.0355-6.4257-7.0163-11.2728-13.2415-13.3008z"/></g></svg>