<svg fill="none" height="69" viewBox="0 0 69 69" width="69" xmlns="http://www.w3.org/2000/svg"><path d="m67.9677 42.8457c-4.6082 18.4823-23.3299 29.7303-41.8165 25.1214-18.47888-4.6077-29.72813-23.3285-25.11786-41.8093 4.60622-18.48434 23.32796-29.73317 41.80886-25.12544 18.4852 4.60772 29.7338 23.33054 25.125 41.81374l.0004-.0004z" fill="#50af95"/><path clip-rule="evenodd" d="m38.8699 38.4112c-.2439.0183-1.5045.0935-4.3163.0935-2.2364 0-3.8243-.0671-4.3813-.0935-8.6428-.3802-15.0939-1.8845-15.0939-3.6856 0-1.8012 6.4511-3.3035 15.0939-3.6897v5.8771c.5652.0406 2.1835.1362 4.42.1362 2.6837 0 4.0276-.1118 4.2695-.1342v-5.875c8.6245.3842 15.0613 1.8885 15.0613 3.6856 0 1.797-6.4348 3.3014-15.0613 3.6836zm0-7.9791v-5.259h12.036v-8.0198h-32.7697v8.0198h12.034v5.257c-9.7813.4493-17.1371 2.3866-17.1371 4.7082 0 2.3215 7.3558 4.2568 17.1371 4.7081v16.8526h8.6977v-16.8587c9.7589-.4492 17.1025-2.3846 17.1025-4.7041s-7.3375-4.2548-17.1025-4.7061z" fill="#fff" fill-rule="evenodd"/></svg>