<svg width="78" height="48" viewBox="0 0 78 48" fill="none" xmlns="http://www.w3.org/2000/svg">
<rect width="78" height="48" rx="8" fill="black" fill-opacity="0.1"/>
<path d="M38.4635 17.2501L35.567 30.7866H32.0648L34.9613 17.2501H38.4635ZM53.1982 25.9895L55.0432 20.9079L56.1035 25.9895H53.1982ZM57.1083 30.7866H60.3449L57.5206 17.2501H54.5297C53.8573 17.2501 53.2893 17.6402 53.0392 18.2415L47.7842 30.7866H51.4598L52.1912 28.766H56.6848L57.1083 30.7866ZM47.9643 26.3696C47.9809 22.7918 43.0238 22.5962 43.0583 21.0035C43.0694 20.5144 43.5318 19.9976 44.5432 19.8654C45.0456 19.8009 46.4271 19.7509 47.9976 20.4711L48.6111 17.5991C47.7709 17.2956 46.6839 17 45.3357 17C41.8757 17 39.4371 18.8406 39.4182 21.4781C39.396 23.4254 41.1566 24.5135 42.4859 25.1626C43.8485 25.825 44.3053 26.2496 44.302 26.8453C44.292 27.7523 43.2117 28.1535 42.2058 28.1669C40.4452 28.1969 39.4216 27.6934 38.608 27.3155L37.9722 30.2809C38.7902 30.6566 40.3007 30.98 41.8679 31C45.5468 31 47.9543 29.1805 47.9643 26.3696ZM33.4597 17.2501L27.7845 30.7866H24.0811L21.2891 19.9832C21.118 19.3163 20.9701 19.0751 20.4555 18.7928C19.6153 18.3349 18.2248 17.907 17 17.6402L17.0845 17.2501H23.043C23.8033 17.2501 24.4857 17.7536 24.6591 18.6305L26.134 26.4652L29.7774 17.2501H33.4597Z" fill="white"/>
</svg>
