<svg xmlns="http://www.w3.org/2000/svg" width="128" height="130" viewBox="0 0 128 130" fill="none"><g clip-path="url(#clip0_606_42)"><path d="M56.2554 52.8643C63.2341 56.9268 70.1362 60.946 77.1064 64.9999C70.1362 69.0538 63.2256 73.073 56.2554 77.1355V52.8643Z" fill="#DDB43F"></path><path d="M101.643 0H26.3574C11.7957 0 0 11.9887 0 26.7693V103.231C0 118.011 11.7957 130 26.3574 130H101.643C116.196 130 128 118.02 128 103.231V26.7693C128 11.9887 116.196 0 101.643 0ZM103.787 67.9215C103.736 70.0652 103.626 72.2088 103.464 74.3437C103.311 76.3145 103.089 78.2852 102.834 80.256C102.655 81.613 102.434 82.9701 102.119 84.3012C101.617 86.4535 100.46 88.2254 98.7745 89.6257C97.4383 90.732 95.9149 91.4235 94.2213 91.7433C92.5872 92.0459 90.9447 92.2447 89.2936 92.4003C86.6894 92.6509 84.0766 92.8238 81.4553 92.9189C78.817 93.014 76.1787 93.109 73.5404 93.1695C68.434 93.2992 63.3191 93.2819 58.2128 93.2128C55.5404 93.1782 52.8681 93.1004 50.2043 93.014C48.3234 92.9535 46.4511 92.8757 44.5702 92.7633C42.4766 92.6423 40.3745 92.4867 38.2894 92.3138C36.6383 92.1755 34.9872 92.0027 33.3617 91.6569C30.7149 91.0951 28.6468 89.6257 27.1404 87.361C26.3745 86.2201 25.9149 84.9495 25.6426 83.6011C25.3106 81.9761 25.0553 80.3338 24.8681 78.6828C24.6298 76.6084 24.4681 74.5253 24.3574 72.4421C24.1617 68.9588 24.1362 65.484 24.2043 62.0007C24.2468 60.0558 24.3404 58.1024 24.4511 56.1576C24.6043 53.5472 24.8596 50.9455 25.2681 48.361C25.4468 47.2547 25.583 46.131 25.9574 45.0678C27.1149 41.7487 29.3702 39.5618 32.6979 38.5592C33.4298 38.3344 34.2043 38.2394 34.9702 38.1356C36.3404 37.9455 37.7106 37.7812 39.0894 37.643C40.2128 37.5306 41.3362 37.4441 42.4681 37.3664C44.3319 37.254 46.1957 37.1416 48.0681 37.0552C49.6 36.986 51.1234 36.9342 52.6553 36.9082C56.4766 36.8391 60.3149 36.7872 63.3787 36.7354C67.1149 36.7786 70.0766 36.8045 73.0468 36.8564C75.2596 36.8996 77.4809 36.9688 79.6936 37.0465C81.4894 37.1157 83.2766 37.1935 85.0723 37.3059C87.0298 37.4269 88.9872 37.5824 90.9447 37.7553C92.1617 37.8677 93.3787 38.006 94.5702 38.3085C96.7404 38.8617 98.5957 39.9335 100.051 41.6882C101.166 43.0279 101.864 44.5665 102.23 46.2693C102.613 48.0672 102.911 49.8823 103.123 51.7148C103.362 53.6941 103.515 55.6822 103.634 57.6702C103.838 61.0844 103.872 64.5073 103.787 67.9215Z" fill="#DDB43F"></path></g><defs><clipPath id="clip0_606_42"><rect width="128" height="130" fill="white"></rect></clipPath></defs></svg>